<?xml version="1.0" encoding="utf-8"?>
<!-- Generator: Adobe Illustrator 21.1.0, SVG Export Plug-In . SVG Version: 6.00 Build 0)  -->
<!DOCTYPE svg PUBLIC "-//W3C//DTD SVG 1.1//EN" "http://www.w3.org/Graphics/SVG/1.1/DTD/svg11.dtd">
<svg version="1.1" id="Layer_1" xmlns="http://www.w3.org/2000/svg" xmlns:xlink="http://www.w3.org/1999/xlink" x="0px" y="0px"
	 viewBox="0 0 600 400" style="enable-background:new 0 0 600 400;" xml:space="preserve">
<style type="text/css">
	.st0{fill:#FFFFFF;}
	.st1{fill:none;}
	.st2{fill:none;stroke:#E6E6E6;}
	.st3{fill:none;stroke:#CCD6EB;}
	.st4{fill:#666666;}
	.st5{font-family:'LucidaGrande';}
	.st6{font-size:12px;}
	.st7{clip-path:url(#SVGID_2_);}
	.st8{fill:#7CB5EC;stroke:#FFFFFF;}
	.st9{clip-path:url(#SVGID_4_);}
	.st10{fill:#434348;stroke:#FFFFFF;}
	.st11{fill:#333333;}
	.st12{font-family:'Arial-BoldMT';}
	.st13{fill:#7CB5EC;}
	.st14{fill:#434348;}
	.st15{font-size:11px;}
</style>
<desc>Created with Highcharts 5.0.12</desc>
<rect class="st0" width="600" height="400"/>
<rect x="97" y="68" class="st1" width="493" height="240"/>
<g>
	<path class="st1" d="M97,92.5h493"/>
	<path class="st1" d="M97,116.5h493"/>
	<path class="st1" d="M97,140.5h493"/>
	<path class="st1" d="M97,164.5h493"/>
	<path class="st1" d="M97,188.5h493"/>
	<path class="st1" d="M97,212.5h493"/>
	<path class="st1" d="M97,236.5h493"/>
	<path class="st1" d="M97,260.5h493"/>
	<path class="st1" d="M97,284.5h493"/>
	<path class="st1" d="M97,308.5h493"/>
	<path class="st1" d="M97,68.5h493"/>
</g>
<g>
	<path class="st2" d="M96.5,68v240"/>
	<path class="st2" d="M145.5,68v240"/>
	<path class="st2" d="M195.5,68v240"/>
	<path class="st2" d="M244.5,68v240"/>
	<path class="st2" d="M293.5,68v240"/>
	<path class="st2" d="M343.5,68v240"/>
	<path class="st2" d="M392.5,68v240"/>
	<path class="st2" d="M441.5,68v240"/>
	<path class="st2" d="M490.5,68v240"/>
	<path class="st2" d="M540.5,68v240"/>
	<path class="st2" d="M590.5,68v240"/>
</g>
<rect x="97" y="68" class="st1" width="493" height="240"/>
<g>
	<path class="st3" d="M97,92.5H87"/>
	<path class="st3" d="M97,116.5H87"/>
	<path class="st3" d="M97,140.5H87"/>
	<path class="st3" d="M97,164.5H87"/>
	<path class="st3" d="M97,188.5H87"/>
	<path class="st3" d="M97,212.5H87"/>
	<path class="st3" d="M97,236.5H87"/>
	<path class="st3" d="M97,260.5H87"/>
	<path class="st3" d="M97,284.5H87"/>
	<path class="st3" d="M97,308.5H87"/>
	<path class="st3" d="M97,67.5H87"/>
	<text transform="matrix(-1.836970e-16 -1 1 -1.836970e-16 24.5 227.7119)" class="st4 st5 st6">Financial year</text>
	<path class="st3" d="M96.5,68v240"/>
</g>
<g>
	<text transform="matrix(1 0 0 1 282.2578 346)" class="st4 st5 st6">Percentage of people</text>
	<path class="st1" d="M97,308h493"/>
</g>
<g>
	<g>
		<defs>
			<rect id="SVGID_1_" x="97" y="68" width="493" height="240"/>
		</defs>
		<clipPath id="SVGID_2_">
			<use xlink:href="#SVGID_1_"  style="overflow:visible;"/>
		</clipPath>
		<g transform="translate(590,308) rotate(90) scale(-1,1) scale(1 1)" class="st7">
			
				<rect x="49" y="314" transform="matrix(-2.535182e-06 -1 1 -2.535182e-06 -79.4994 542.5008)" class="st8" width="365" height="-6"/>
			
				<rect x="54.5" y="343.5" transform="matrix(-2.535182e-06 -1 1 -2.535182e-06 -132.9995 548.0009)" class="st8" width="306" height="-6"/>
			
				<rect x="-58" y="255" transform="matrix(-2.535182e-06 -1 1 -2.535182e-06 -68.4995 435.5006)" class="st8" width="483" height="-6"/>
			
				<rect x="-79.5" y="257.5" transform="matrix(-2.535182e-06 -1 1 -2.535182e-06 -94.9996 414.0006)" class="st8" width="478" height="-6"/>
			
				<rect x="-76.5" y="284.5" transform="matrix(-2.535182e-06 -1 1 -2.535182e-06 -145.9996 417.0007)" class="st8" width="424" height="-6"/>
			
				<rect x="-76" y="309" transform="matrix(-2.535182e-06 -1 1 -2.535182e-06 -194.4997 417.5008)" class="st8" width="375" height="-6"/>
			
				<rect x="-122" y="287" transform="matrix(-2.535182e-06 -1 1 -2.535182e-06 -196.4998 371.5007)" class="st8" width="419" height="-6"/>
			
				<rect x="-148.5" y="284.5" transform="matrix(-2.535182e-06 -1 1 -2.535182e-06 -217.9998 345.0007)" class="st8" width="424" height="-6"/>
			
				<rect x="-148" y="309" transform="matrix(-2.535182e-06 -1 1 -2.535182e-06 -266.4999 345.5008)" class="st8" width="375" height="-6"/>
			
				<rect x="-174.5" y="306.5" transform="matrix(-2.535182e-06 -1 1 -2.535182e-06 -288 319.0008)" class="st8" width="380" height="-6"/>
		</g>
	</g>
	<g transform="translate(590,308) rotate(90) scale(-1,1) scale(1 1)">
	</g>
	<g>
		<defs>
			<rect id="SVGID_3_" x="97" y="68" width="493" height="240"/>
		</defs>
		<clipPath id="SVGID_4_">
			<use xlink:href="#SVGID_3_"  style="overflow:visible;"/>
		</clipPath>
		<g transform="translate(590,308) rotate(90) scale(-1,1) scale(1 1)" class="st9">
			
				<rect x="17.5" y="289.5" transform="matrix(-2.535182e-06 -1 1 -2.535182e-06 -61.9994 511.0007)" class="st10" width="414" height="-6"/>
			
				<rect x="47.5" y="343.5" transform="matrix(-2.535182e-06 -1 1 -2.535182e-06 -139.9995 541.0009)" class="st10" width="306" height="-6"/>
			
				<rect x="-50.5" y="269.5" transform="matrix(-2.535182e-06 -1 1 -2.535182e-06 -89.9995 443.0007)" class="st10" width="454" height="-6"/>
			
				<rect x="-57" y="287" transform="matrix(-2.535182e-06 -1 1 -2.535182e-06 -131.4996 436.5007)" class="st10" width="419" height="-6"/>
			
				<rect x="-96" y="272" transform="matrix(-2.535182e-06 -1 1 -2.535182e-06 -140.4997 397.5007)" class="st10" width="449" height="-6"/>
			
				<rect x="-107.5" y="284.5" transform="matrix(-2.535182e-06 -1 1 -2.535182e-06 -176.9997 386.0007)" class="st10" width="424" height="-6"/>
			
				<rect x="-109.5" y="306.5" transform="matrix(-2.535182e-06 -1 1 -2.535182e-06 -222.9998 384.0008)" class="st10" width="380" height="-6"/>
			
				<rect x="-168" y="272" transform="matrix(-2.535182e-06 -1 1 -2.535182e-06 -212.4999 325.5007)" class="st10" width="449" height="-6"/>
			
				<rect x="-189.5" y="274.5" transform="matrix(-2.535182e-06 -1 1 -2.535182e-06 -238.9999 304.0007)" class="st10" width="444" height="-6"/>
			
				<rect x="-174" y="314" transform="matrix(-2.535182e-06 -1 1 -2.535182e-06 -302.5 319.5008)" class="st10" width="365" height="-6"/>
		</g>
	</g>
	<g transform="translate(590,308) rotate(90) scale(-1,1) scale(1 1)">
	</g>
</g>
<g transform="translate(211,360)">
	<rect class="st1" width="177" height="25"/>
	<g>
		<g>
			<g transform="translate(8,3)">
				<text transform="matrix(1 0 0 1 21 15)" class="st11 st12 st6">White</text>
				<path class="st13" d="M8,4L8,4c3.3,0,6,2.7,6,6l0,0c0,3.3-2.7,6-6,6l0,0c-3.3,0-6-2.7-6-6l0,0C2,6.7,4.7,4,8,4z"/>
			</g>
			<g transform="translate(83.515625,3)">
				<text transform="matrix(1 0 0 1 21 15)" class="st11 st12 st6">non-white</text>
				<path class="st14" d="M8,4L8,4c3.3,0,6,2.7,6,6l0,0c0,3.3-2.7,6-6,6l0,0c-3.3,0-6-2.7-6-6l0,0C2,6.7,4.7,4,8,4z"/>
			</g>
		</g>
	</g>
</g>
<g>
	<text transform="matrix(1 0 0 1 54.1777 85)" class="st4 st5 st15">2003</text>
	<text transform="matrix(1 0 0 1 54.1777 109)" class="st4 st5 st15">2005</text>
	<text transform="matrix(1 0 0 1 34.498 133)" class="st4 st5 st15">2007/08</text>
	<text transform="matrix(1 0 0 1 34.498 157)" class="st4 st5 st15">2008/09</text>
	<text transform="matrix(1 0 0 1 34.498 181)" class="st4 st5 st15">2009/10</text>
	<text transform="matrix(1 0 0 1 34.498 205)" class="st4 st5 st15">2010/11</text>
	<text transform="matrix(1 0 0 1 34.498 229)" class="st4 st5 st15">2012/13</text>
	<text transform="matrix(1 0 0 1 34.498 253)" class="st4 st5 st15">2013/14</text>
	<text transform="matrix(1 0 0 1 34.498 277)" class="st4 st5 st15">2014/15</text>
	<text transform="matrix(1 0 0 1 34.498 301)" class="st4 st5 st15">2015/16</text>
</g>
<g>
	<text transform="matrix(1 0 0 1 93.5225 327)" class="st4 st5 st15">0</text>
	<text transform="matrix(1 0 0 1 139.3442 327)" class="st4 st5 st15">10</text>
	<text transform="matrix(1 0 0 1 188.6445 327)" class="st4 st5 st15">20</text>
	<text transform="matrix(1 0 0 1 237.9443 327)" class="st4 st5 st15">30</text>
	<text transform="matrix(1 0 0 1 287.2446 327)" class="st4 st5 st15">40</text>
	<text transform="matrix(1 0 0 1 336.5444 327)" class="st4 st5 st15">50</text>
	<text transform="matrix(1 0 0 1 385.8442 327)" class="st4 st5 st15">60</text>
	<text transform="matrix(1 0 0 1 435.1445 327)" class="st4 st5 st15">70</text>
	<text transform="matrix(1 0 0 1 484.4443 327)" class="st4 st5 st15">80</text>
	<text transform="matrix(1 0 0 1 533.7446 327)" class="st4 st5 st15">90</text>
	<text transform="matrix(1 0 0 1 569.1367 327)" class="st4 st5 st15">100</text>
</g>
</svg>
