<?xml version="1.0" encoding="utf-8"?>
<!-- Generator: Adobe Illustrator 21.0.2, SVG Export Plug-In . SVG Version: 6.00 Build 0)  -->
<svg version="1.2" baseProfile="tiny" xmlns="http://www.w3.org/2000/svg" xmlns:xlink="http://www.w3.org/1999/xlink" x="0px"
	 y="0px" viewBox="0 0 960 795" xml:space="preserve">
<g id="Layer_2">
	<rect fill="#FFFFFF" width="960" height="795"/>
</g>
<g id="Layer_1">
	<g>
		<rect x="476.3" y="73" fill="#BFBFBF" width="1" height="674.5"/>
	</g>
	<g>
		<rect x="529.1" y="73" fill="#BFBFBF" width="1" height="674.5"/>
	</g>
	<g>
		<rect x="581.9" y="73" fill="#BFBFBF" width="1" height="674.5"/>
	</g>
	<g>
		<rect x="634.7" y="73" fill="#BFBFBF" width="1" height="674.5"/>
	</g>
	<g>
		<rect x="687.5" y="73" fill="#BFBFBF" width="1" height="674.5"/>
	</g>
	<g>
		<rect x="160" y="291.5" fill="#85AFD0" width="528" height="23.8"/>
	</g>
	<g>
		<rect x="687.5" y="291.5" fill="#005EA5" width="1" height="23.8"/>
	</g>
	<g>
		<rect x="212.3" y="73" fill="#BFBFBF" width="1" height="674.5"/>
	</g>
	<g>
		<rect x="265.1" y="73" fill="#BFBFBF" width="1" height="674.5"/>
	</g>
	<g>
		<rect x="317.9" y="73" fill="#BFBFBF" width="1" height="674.5"/>
	</g>
	<g>
		<rect x="370.7" y="73" fill="#BFBFBF" width="1" height="674.5"/>
	</g>
	<g>
		<rect x="423.5" y="73" fill="#BFBFBF" width="1" height="674.5"/>
	</g>
	<g>
		<rect x="740.3" y="73" fill="#BFBFBF" width="1" height="674.5"/>
	</g>
	<g>
		<rect x="793.1" y="73" fill="#BFBFBF" width="1" height="674.5"/>
	</g>
	<g>
		<rect x="845.9" y="73" fill="#BFBFBF" width="1" height="674.5"/>
	</g>
	<g>
		<rect x="898.7" y="73" fill="#BFBFBF" width="1" height="674.5"/>
	</g>
	<g>
		<rect x="951.5" y="73" fill="#BFBFBF" width="1" height="674.5"/>
	</g>
	<g>
		<path d="M97,80.8h2.3V92H97V80.8z"/>
		<path d="M101.4,83.6h2.2v0.7c0.5-0.5,1.1-0.9,2.1-0.9c1.8,0,2.9,1.3,2.9,2.9V92h-2.2v-4.9c0-1.2-0.6-1.6-1.3-1.6
			c-0.9,0-1.6,0.6-1.6,1.9V92h-2.2V83.6z"/>
		<path d="M110.2,87.8c0-2.5,1.5-4.3,3.7-4.3c1,0,1.6,0.4,2.1,0.9v-3.6h2.2V92h-2.2v-0.7c-0.5,0.5-1.1,0.9-2.1,0.9
			C111.7,92.2,110.2,90.3,110.2,87.8L110.2,87.8z M116,87c0-0.9-0.7-1.6-1.7-1.6c-1.2,0-1.9,1-1.9,2.3v0.1c0,1.3,0.7,2.3,1.9,2.3
			c1.1,0,1.7-0.7,1.7-1.6V87z"/>
		<path d="M121.2,80.4c0.8,0,1.4,0.6,1.4,1.4s-0.6,1.4-1.4,1.4c-0.8,0-1.4-0.6-1.4-1.4S120.4,80.4,121.2,80.4z M122.3,92h-2.2v-8.4
			h2.2V92z"/>
		<path d="M126.7,92.2c-1.5,0-2.9-1-2.9-2.6c0-1.3,0.9-2.2,2.4-2.4l2.5-0.4v-0.3c0-0.7-0.5-1.1-1.3-1.1c-1,0-1.8,0.4-2.5,0.7
			l-0.8-1.7c1-0.5,2.2-0.9,3.4-0.9c1.5,0,3.4,0.4,3.4,2.7v3.6c0,0.5,0.3,0.7,0.7,0.9l-1,1.6c-0.8-0.1-1.3-0.5-1.6-0.9
			C128.5,91.9,127.7,92.2,126.7,92.2z M127,88.6c-0.5,0.1-0.9,0.4-0.9,0.9c0,0.5,0.4,1,1.1,1c1,0,1.5-0.7,1.5-1.5v-0.6L127,88.6z"/>
		<path d="M132.9,83.6h2.2v0.7c0.5-0.5,1.1-0.9,2.1-0.9c1.8,0,2.9,1.3,2.9,2.9V92h-2.2v-4.9c0-1.2-0.6-1.6-1.3-1.6
			c-0.9,0-1.6,0.6-1.6,1.9V92h-2.2V83.6z"/>
	</g>
	<g>
		<path d="M91.2,69.4h-6.5L83.8,72h-3.6l5.5-16.8h4.5L95.8,72H92L91.2,69.4z M85.5,66.4h4.7l-2.3-7.6h0L85.5,66.4z"/>
		<path d="M98.5,68c0.9,0.8,2.4,1.5,3.7,1.5c1,0,1.8-0.3,1.8-1c0-0.6-0.5-0.8-1.5-1.1c-0.7-0.2-2.1-0.4-3.1-0.9
			c-1.2-0.5-2.2-1.5-2.2-3.3c0-2.7,2.4-4,5.2-4c2.1,0,4,0.8,5,1.8l-2.1,2.1c-0.7-0.6-1.7-1.2-2.9-1.2c-0.9,0-1.8,0.3-1.8,1.1
			c0,0.6,0.6,0.8,1.5,1c1.6,0.4,2.7,0.7,3.6,1.2c1,0.5,1.8,1.6,1.8,3c0,2.7-2.3,4-5.1,4c-2,0-4.4-0.8-5.7-1.9L98.5,68z"/>
		<path d="M111.3,54.6c1.1,0,2,0.9,2,2s-0.9,2-2,2c-1.1,0-2-0.9-2-2S110.2,54.6,111.3,54.6z M112.9,72h-3.2V59.4h3.2V72z"/>
		<path d="M119.5,72.2c-2.3,0-4.3-1.4-4.3-3.9c0-2,1.3-3.4,3.5-3.7l3.8-0.5v-0.4c0-1.1-0.7-1.6-2-1.6c-1.6,0-2.8,0.6-3.7,1l-1.3-2.5
			c1.5-0.8,3.2-1.4,5.1-1.4c2.3,0,5.1,0.6,5.1,4v5.4c0,0.7,0.4,1,1.1,1.3l-1.5,2.3c-1.2-0.1-2-0.7-2.4-1.4
			C122.3,71.8,121,72.2,119.5,72.2z M119.9,66.9c-0.8,0.1-1.3,0.6-1.3,1.3c0,0.8,0.6,1.5,1.7,1.5c1.5,0,2.2-1,2.2-2.3v-0.9
			L119.9,66.9z"/>
		<path d="M128.8,59.4h3.2v1.1c0.7-0.7,1.7-1.3,3.2-1.3c2.7,0,4.3,1.9,4.3,4.3V72h-3.2v-7.3c0-1.8-0.8-2.4-2-2.4
			c-1.3,0-2.3,0.9-2.3,2.9V72h-3.2V59.4z"/>
	</g>
	<g>
		<path d="M85.8,690.7c-5,0-8-3.8-8-8.6c0-4.8,3-8.6,8-8.6c5,0,8,3.8,8,8.6C93.8,686.9,90.8,690.7,85.8,690.7z M85.8,676.6
			c-3.1,0-4.5,2.4-4.5,5.5v0.1c0,3.2,1.4,5.5,4.5,5.5c3,0,4.5-2.4,4.5-5.5C90.2,679.1,88.9,676.6,85.8,676.6z"/>
		<path d="M100.9,686.8c0,0.6,0.3,1.1,1.4,1.1c0.5,0,1.3,0,1.6-0.1l0.3,2.9c0,0-1.6,0.2-3,0.2c-2.2,0-3.6-1-3.6-3.2v-6.7h-2.3v-2.9
			h2.3v-3.6l3.2-0.9v4.4h3.3v2.9h-3.3V686.8z"/>
		<path d="M106.5,673.7h3.2v5.3c0.7-0.7,1.7-1.3,3.2-1.3c2.7,0,4.3,1.9,4.3,4.3v8.5H114v-7.3c0-1.8-0.8-2.4-2-2.4
			c-1.3,0-2.3,0.9-2.3,2.9v6.9h-3.2V673.7z"/>
		<path d="M122.9,685.3c0.3,1.6,1.6,2.4,3,2.4c1.2,0,2.3-0.4,3.2-1.2l1.6,2.4c-1.1,0.9-2.8,1.7-4.9,1.7c-3.5,0-6.3-2.4-6.3-6.4v-0.1
			c0-3.7,2.5-6.5,6.1-6.5c3.3,0,5.8,2.5,5.8,6.2v1.5H122.9z M123,682.9h5.1c-0.1-1.1-0.8-2.4-2.5-2.4
			C123.8,680.5,123,681.8,123,682.9z"/>
		<path d="M141,681.1h-0.6c-1.8,0-3.5,0.6-3.5,3.3v6.1h-3.2v-12.6h3.2v1.4c0.5-0.8,1.7-1.6,3.3-1.6h0.7V681.1z"/>
	</g>
	<g>
		<path d="M73.9,166.3h4.5c2.3,0,3.8,1.6,3.8,3.7c0,2.1-1.6,3.7-3.9,3.7h-2v3.8h-2.3V166.3z M77.7,168.3h-1.6v3.3h1.6
			c1.2,0,2-0.6,2-1.6V170C79.8,168.9,79,168.3,77.7,168.3z"/>
		<path d="M85.8,177.7c-1.5,0-2.9-1-2.9-2.6c0-1.3,0.9-2.2,2.4-2.4l2.5-0.4V172c0-0.7-0.5-1.1-1.3-1.1c-1,0-1.8,0.4-2.5,0.7
			l-0.8-1.7c1-0.5,2.2-0.9,3.4-0.9c1.5,0,3.4,0.4,3.4,2.7v3.6c0,0.5,0.3,0.7,0.7,0.9l-1,1.6c-0.8-0.1-1.3-0.5-1.6-0.9
			C87.6,177.4,86.7,177.7,85.8,177.7z M86,174.1c-0.5,0.1-0.9,0.4-0.9,0.9c0,0.5,0.4,1,1.1,1c1,0,1.5-0.7,1.5-1.5v-0.6L86,174.1z"/>
		<path d="M94.1,172.4l2.9-3.3h2.8l-3.3,3.4l3.3,4.9h-2.7l-2.2-3.4l-0.9,1v2.4h-2.2v-11.2h2.2V172.4z"/>
		<path d="M102.1,165.9c0.8,0,1.4,0.6,1.4,1.4s-0.6,1.4-1.4,1.4c-0.8,0-1.4-0.6-1.4-1.4S101.3,165.9,102.1,165.9z M103.2,177.5H101
			v-8.4h2.2V177.5z"/>
		<path d="M105.8,174.8c0.6,0.6,1.6,1,2.4,1c0.7,0,1.2-0.2,1.2-0.7c0-0.4-0.3-0.6-1-0.7c-0.5-0.1-1.4-0.3-2.1-0.6
			c-0.8-0.4-1.5-1-1.5-2.2c0-1.8,1.6-2.7,3.4-2.7c1.4,0,2.6,0.5,3.3,1.2l-1.4,1.4c-0.4-0.4-1.1-0.8-1.9-0.8c-0.6,0-1.2,0.2-1.2,0.7
			c0,0.4,0.4,0.5,1,0.7c1,0.3,1.8,0.4,2.4,0.8c0.7,0.4,1.2,1.1,1.2,2c0,1.8-1.5,2.7-3.4,2.7c-1.4,0-2.9-0.5-3.8-1.3L105.8,174.8z"/>
		<path d="M116.4,175c0,0.4,0.2,0.7,0.9,0.7c0.3,0,0.8,0,1.1-0.1l0.2,1.9c0,0-1.1,0.1-2,0.1c-1.5,0-2.4-0.7-2.4-2.1v-4.5h-1.5v-1.9
			h1.5v-2.4l2.2-0.6v2.9h2.2v1.9h-2.2V175z"/>
		<path d="M122.5,177.7c-1.5,0-2.9-1-2.9-2.6c0-1.3,0.9-2.2,2.4-2.4l2.5-0.4V172c0-0.7-0.5-1.1-1.3-1.1c-1,0-1.8,0.4-2.5,0.7
			l-0.8-1.7c1-0.5,2.2-0.9,3.4-0.9c1.5,0,3.4,0.4,3.4,2.7v3.6c0,0.5,0.3,0.7,0.7,0.9l-1,1.6c-0.8-0.1-1.3-0.5-1.6-0.9
			C124.3,177.4,123.5,177.7,122.5,177.7z M122.8,174.1c-0.5,0.1-0.9,0.4-0.9,0.9c0,0.5,0.4,1,1.1,1c1,0,1.5-0.7,1.5-1.5v-0.6
			L122.8,174.1z"/>
		<path d="M128.7,169.1h2.2v0.7c0.5-0.5,1.1-0.9,2.1-0.9c1.8,0,2.9,1.3,2.9,2.9v5.7h-2.2v-4.9c0-1.2-0.6-1.6-1.3-1.6
			c-0.9,0-1.6,0.6-1.6,1.9v4.6h-2.2V169.1z"/>
		<path d="M138.9,165.9c0.8,0,1.4,0.6,1.4,1.4s-0.6,1.4-1.4,1.4c-0.8,0-1.4-0.6-1.4-1.4S138.2,165.9,138.9,165.9z M140,177.5h-2.2
			v-8.4h2.2V177.5z"/>
	</g>
	<g>
		<path d="M87.4,331.7c2.8,0,4.9,1.7,4.9,4.4c0,1.4-0.8,2.7-2.2,3.4c1.1,0.4,3.2,1.4,3.2,4.2c0,3.4-2.8,4.9-6.1,4.9h-7.4v-16.8H87.4
			z M86.4,334.4h-3v4h3c1.8,0,2.6-0.7,2.6-1.9C88.9,335.2,88.2,334.4,86.4,334.4z M87,341.2h-3.7v4.6H87c1.4,0,2.9-0.5,2.9-2.3
			C89.9,341.7,88.4,341.2,87,341.2z"/>
		<path d="M95.7,331.7H99v13.4c0,0.5,0.3,0.8,1,0.8c0.4,0,0.9,0,1.2-0.1l0.3,2.8c0,0-1.5,0.2-2.7,0.2c-1.8,0-3-1-3-2.8V331.7z"/>
		<path d="M106.5,348.7c-2.3,0-4.3-1.4-4.3-3.9c0-2,1.3-3.4,3.5-3.7l3.8-0.5v-0.4c0-1.1-0.7-1.6-2-1.6c-1.6,0-2.8,0.6-3.7,1
			l-1.3-2.5c1.5-0.8,3.2-1.4,5.1-1.4c2.3,0,5.1,0.6,5.1,4v5.4c0,0.7,0.4,1,1.1,1.3l-1.5,2.3c-1.2-0.1-2-0.7-2.4-1.4
			C109.2,348.3,108,348.7,106.5,348.7z M106.9,343.4c-0.8,0.1-1.3,0.6-1.3,1.3c0,0.8,0.6,1.5,1.7,1.5c1.5,0,2.2-1,2.2-2.3V343
			L106.9,343.4z"/>
		<path d="M115.2,342.2c0-3.7,2.5-6.5,6.1-6.5c2.6,0,4.6,1.3,5.4,3.2l-2.9,1.5c-0.5-1-1.2-1.7-2.5-1.7c-2,0-2.8,1.8-2.8,3.5v0.1
			c0,1.6,0.8,3.4,2.8,3.4c1.3,0,2-0.7,2.5-1.7l2.9,1.5c-0.8,2-3,3.2-5.5,3.2C117.6,348.7,115.2,346,115.2,342.2L115.2,342.2z"/>
		<path d="M132.1,340.9l4.4-4.9h4.2l-4.9,5.1l5,7.4h-4l-3.3-5.1l-1.4,1.5v3.7h-3.2v-16.8h3.2V340.9z"/>
	</g>
	<g>
		<path d="M84.5,514.1l-5-6.2v11.6h-3.4v-16.8h3.5l5,6.6l5.1-6.6H93v16.8h-3.4v-11.6l-4.9,6.2H84.5z"/>
		<path d="M97.9,502.1c1.1,0,2,0.9,2,2s-0.9,2-2,2c-1.1,0-2-0.9-2-2S96.8,502.1,97.9,502.1z M99.6,519.5h-3.2v-12.6h3.2V519.5z"/>
		<path d="M105.5,512.9l-3.8-6h3.7l1.9,3.4l2-3.4h3.8l-3.9,6l4.3,6.6h-3.8l-2.5-3.8l-2.3,3.8h-3.8L105.5,512.9z"/>
		<path d="M117.4,514.3c0.3,1.6,1.6,2.4,3,2.4c1.2,0,2.3-0.4,3.2-1.2l1.6,2.4c-1.1,0.9-2.8,1.7-4.9,1.7c-3.5,0-6.3-2.4-6.3-6.4v-0.1
			c0-3.7,2.5-6.5,6.1-6.5c3.3,0,5.8,2.5,5.8,6.2v1.5H117.4z M117.4,511.9h5.1c-0.1-1.1-0.8-2.4-2.5-2.4
			C118.3,509.5,117.5,510.8,117.4,511.9z"/>
		<path d="M127.6,513.2c0-3.7,2.2-6.5,5.5-6.5c1.5,0,2.5,0.6,3.2,1.3v-5.3h3.2v16.8h-3.2v-1.1c-0.7,0.7-1.6,1.3-3.1,1.3
			c-3.3,0-5.6-2.7-5.6-6.5V513.2z M136.3,512.1c0-1.3-1-2.4-2.6-2.4c-1.8,0-2.9,1.5-2.9,3.5v0.1c0,2,1,3.5,2.9,3.5
			c1.6,0,2.6-1,2.6-2.4V512.1z"/>
	</g>
	<g>
		<path d="M52.8,425.6c0-4.8,3-8.6,7.9-8.6c3.5,0,6,1.9,7,4.8l-3.2,1.1c-0.4-1.2-1.6-2.8-3.7-2.8c-3,0-4.4,2.7-4.4,5.4v0.1
			c0,2.8,1.3,5.5,4.4,5.5c2.1,0,3.4-1.5,3.7-2.8l3.3,1.1c-1,2.9-3.5,4.8-7,4.8C55.8,434.2,52.8,430.4,52.8,425.6z"/>
		<path d="M70,417.2h3.2v5.3c0.7-0.7,1.7-1.3,3.2-1.3c2.7,0,4.3,1.9,4.3,4.3v8.5h-3.2v-7.3c0-1.8-0.8-2.4-2-2.4
			c-1.3,0-2.3,0.9-2.3,2.9v6.9H70V417.2z"/>
		<path d="M85.3,416.6c1.1,0,2,0.9,2,2s-0.9,2-2,2c-1.1,0-2-0.9-2-2S84.1,416.6,85.3,416.6z M86.9,434h-3.2v-12.6h3.2V434z"/>
		<path d="M89.9,421.4h3.2v1.1c0.7-0.7,1.7-1.3,3.2-1.3c2.7,0,4.3,1.9,4.3,4.3v8.5h-3.2v-7.3c0-1.8-0.8-2.4-2-2.4
			c-1.3,0-2.3,0.9-2.3,2.9v6.9h-3.2V421.4z"/>
		<path d="M106.3,428.8c0.3,1.6,1.6,2.4,3,2.4c1.2,0,2.3-0.4,3.2-1.2l1.6,2.4c-1.1,0.9-2.8,1.7-4.9,1.7c-3.5,0-6.3-2.4-6.3-6.4v-0.1
			c0-3.7,2.5-6.5,6.1-6.5c3.3,0,5.8,2.5,5.8,6.2v1.5H106.3z M106.4,426.4h5.1c-0.1-1.1-0.8-2.4-2.5-2.4
			C107.3,424,106.5,425.3,106.4,426.4z"/>
		<path d="M118.1,430c0.9,0.8,2.4,1.5,3.7,1.5c1,0,1.8-0.3,1.8-1c0-0.6-0.5-0.8-1.5-1.1c-0.7-0.2-2.1-0.4-3.1-0.9
			c-1.2-0.5-2.2-1.5-2.2-3.3c0-2.7,2.4-4,5.2-4c2.1,0,4,0.8,5,1.8l-2.1,2.1c-0.7-0.6-1.7-1.2-2.9-1.2c-0.9,0-1.8,0.3-1.8,1.1
			c0,0.6,0.6,0.8,1.5,1c1.6,0.4,2.7,0.7,3.6,1.2c1,0.5,1.8,1.6,1.8,3c0,2.7-2.3,4-5.1,4c-2,0-4.4-0.8-5.7-1.9L118.1,430z"/>
		<path d="M132,428.8c0.3,1.6,1.6,2.4,3,2.4c1.2,0,2.3-0.4,3.2-1.2l1.6,2.4c-1.1,0.9-2.8,1.7-4.9,1.7c-3.5,0-6.3-2.4-6.3-6.4v-0.1
			c0-3.7,2.5-6.5,6.1-6.5c3.3,0,5.8,2.5,5.8,6.2v1.5H132z M132.1,426.4h5.1c-0.1-1.1-0.8-2.4-2.5-2.4
			C133,424,132.2,425.3,132.1,426.4z"/>
	</g>
	<g>
		<path d="M162.6,777.5v0.9c0.5-0.7,1.3-1.1,2.3-1.1c2.1,0,3.4,1.7,3.4,4.2s-1.3,4.1-3.4,4.1c-1,0-1.9-0.4-2.3-1.1v3.3h-1.3v-10.4
			H162.6z M167,781.5c0-1.7-0.8-2.9-2.3-2.9c-1.4,0-2.1,1-2.1,2.3v1.3c0,1.3,0.7,2.3,2.1,2.3C166.2,784.5,167,783.2,167,781.5
			L167,781.5z"/>
		<path d="M171.3,781.9c0.1,1.5,1,2.6,2.5,2.6c0.9,0,1.5-0.3,2.1-0.8l0.7,0.9c-0.7,0.6-1.7,1-2.8,1c-2.3,0-3.8-1.7-3.8-4.1
			c0-2.4,1.4-4.2,3.6-4.2c2.1,0,3.4,1.7,3.4,4.1v0.4H171.3z M171.3,780.9h4.2c0-1.2-0.7-2.4-2-2.4
			C172.2,778.5,171.4,779.6,171.3,780.9z"/>
		<path d="M183,778.7h-0.2c-1.3,0-2.6,0.5-2.6,2.7v4.1H179v-8h1.3v1.3c0.4-0.9,1.4-1.4,2.4-1.4h0.4V778.7z"/>
		<path d="M185.4,781.5c0,1.6,0.8,3,2.3,3c1,0,1.7-0.6,2.1-1.3l1.1,0.6c-0.5,1.1-1.7,1.9-3.2,1.9c-2.2,0-3.7-1.7-3.7-4.1
			c0-2.4,1.5-4.2,3.7-4.2c1.4,0,2.6,0.7,3.2,1.9l-1.1,0.6c-0.4-0.8-1.1-1.3-2.1-1.3C186.2,778.5,185.4,779.9,185.4,781.5
			L185.4,781.5z"/>
		<path d="M193.7,781.9c0.1,1.5,1,2.6,2.5,2.6c0.9,0,1.5-0.3,2.1-0.8l0.7,0.9c-0.7,0.6-1.7,1-2.8,1c-2.3,0-3.8-1.7-3.8-4.1
			c0-2.4,1.4-4.2,3.6-4.2c2.1,0,3.4,1.7,3.4,4.1v0.4H193.7z M193.7,780.9h4.2c0-1.2-0.7-2.4-2-2.4
			C194.6,778.5,193.8,779.6,193.7,780.9z"/>
		<path d="M201.3,777.5h1.3v0.9c0.5-0.7,1.4-1.1,2.3-1.1c1.8,0,2.7,1.3,2.7,2.7v5.4h-1.3v-5c0-1.4-0.7-1.9-1.6-1.9c-1,0-2,0.7-2,2.2
			v4.7h-1.3V777.5z"/>
		<path d="M212.2,783.5c0,0.5,0.1,1,1,1c0.2,0,0.8,0,1-0.1l0.1,1.2c0,0-0.8,0.1-1.4,0.1c-1.3,0-2-0.5-2-1.9v-5.1h-1.5v-1.2h1.5v-2.6
			l1.3-0.5v3.1h2.2v1.2h-2.2V783.5z"/>
		<path d="M227.3,781.5c0,2.4-1.5,4.1-3.7,4.1s-3.7-1.7-3.7-4.1c0-2.4,1.5-4.2,3.7-4.2S227.3,779.1,227.3,781.5z M225.9,781.6
			L225.9,781.6c0-1.7-0.8-3.1-2.3-3.1s-2.3,1.4-2.3,3v0.1c0,1.6,0.8,2.9,2.3,2.9S225.9,783.1,225.9,781.6z"/>
		<path d="M231.2,777.5h1.6v1.2h-1.6v6.8h-1.3v-6.8h-1.3v-1.2h1.3V776c0-1.4,0.9-1.9,2.2-1.9c0.6,0,1.1,0.1,1.3,0.1l-0.1,1.1
			c-0.3,0-0.9-0.1-1.1-0.1c-0.8,0-0.9,0.5-0.9,1V777.5z"/>
		<path d="M244.7,785.5h-1.3v-0.9c-0.5,0.7-1.4,1.1-2.3,1.1c-1.8,0-2.7-1.3-2.7-2.7v-5.4h1.3v5c0,1.4,0.7,1.9,1.6,1.9
			c1.1,0,2-0.7,2-2.2v-4.7h1.3V785.5z"/>
		<path d="M247.2,777.5h1.3v0.9c0.5-0.7,1.4-1.1,2.3-1.1c1.8,0,2.7,1.3,2.7,2.7v5.4h-1.3v-5c0-1.4-0.7-1.9-1.6-1.9c-1,0-2,0.7-2,2.2
			v4.7h-1.3V777.5z"/>
		<path d="M256.9,781.9c0.1,1.5,1,2.6,2.5,2.6c0.9,0,1.5-0.3,2.1-0.8l0.7,0.9c-0.7,0.6-1.7,1-2.8,1c-2.3,0-3.8-1.7-3.8-4.1
			c0-2.4,1.4-4.2,3.6-4.2c2.1,0,3.4,1.7,3.4,4.1v0.4H256.9z M257,780.9h4.2c0-1.2-0.7-2.4-2-2.4C257.9,778.5,257,779.6,257,780.9z"
			/>
		<path d="M270.6,785.5h-1.3v-5c0-1.4-0.7-1.9-1.6-1.9c-0.9,0-1.8,0.7-1.8,2.2v4.7h-1.3v-8h1.3v0.9c0.5-0.7,1.2-1.1,2.1-1.1
			c0.7,0,1.7,0.4,2.2,1.3c0.6-1,1.5-1.3,2.4-1.3c1.7,0,2.7,1.3,2.7,2.7v5.5H274v-5c0-1.4-0.8-1.9-1.6-1.9c-0.9,0-1.8,0.7-1.8,2.2
			V785.5z"/>
		<path d="M279.1,777.5v0.9c0.5-0.7,1.3-1.1,2.3-1.1c2.1,0,3.4,1.7,3.4,4.2s-1.3,4.1-3.4,4.1c-1,0-1.9-0.4-2.3-1.1v3.3h-1.3v-10.4
			H279.1z M283.5,781.5c0-1.7-0.8-2.9-2.3-2.9c-1.4,0-2.1,1-2.1,2.3v1.3c0,1.3,0.7,2.3,2.1,2.3C282.7,784.5,283.5,783.2,283.5,781.5
			L283.5,781.5z"/>
		<path d="M286.9,774.3h1.3v9.4c0,0.5,0.2,0.8,0.8,0.8c0.3,0,0.6,0,0.8,0l0.1,1.1c0,0-0.8,0.1-1.3,0.1c-0.9,0-1.7-0.4-1.7-1.6V774.3
			z"/>
		<path d="M298.2,781.5c0,2.4-1.5,4.1-3.7,4.1s-3.7-1.7-3.7-4.1c0-2.4,1.5-4.2,3.7-4.2S298.2,779.1,298.2,781.5z M296.8,781.6
			L296.8,781.6c0-1.7-0.8-3.1-2.3-3.1s-2.3,1.4-2.3,3v0.1c0,1.6,0.8,2.9,2.3,2.9S296.8,783.1,296.8,781.6z"/>
		<path d="M299.2,777.5h1.5l2,6.6l1.9-6.6h1.5l-2.9,9.2c-0.4,1.1-1.1,1.4-2.1,1.4c-0.4,0-0.9,0-1.4-0.1l0.2-1.2c0,0,0.5,0.1,1.1,0.1
			c0.6,0,0.9-0.2,1-0.8l0.1-0.4L299.2,777.5z"/>
		<path d="M308.5,781.9c0.1,1.5,1,2.6,2.5,2.6c0.9,0,1.5-0.3,2.1-0.8l0.7,0.9c-0.7,0.6-1.7,1-2.8,1c-2.3,0-3.8-1.7-3.8-4.1
			c0-2.4,1.4-4.2,3.6-4.2c2.1,0,3.4,1.7,3.4,4.1v0.4H308.5z M308.5,780.9h4.2c0-1.2-0.7-2.4-2-2.4
			C309.4,778.5,308.6,779.6,308.5,780.9z"/>
		<path d="M321.4,784.6c-0.5,0.7-1.3,1.1-2.3,1.1c-2.1,0-3.4-1.7-3.4-4.1s1.3-4.2,3.4-4.2c1,0,1.9,0.4,2.3,1.1v-4.1h1.3v11.2h-1.3
			V784.6z M317.1,781.5c0,1.7,0.8,2.9,2.3,2.9c1.4,0,2.1-1,2.1-2.3v-1.3c0-1.3-0.7-2.3-2.1-2.3C317.9,778.5,317.1,779.8,317.1,781.5
			L317.1,781.5z"/>
	</g>
	<g>
		<path d="M159,760.9c0,2.9-1.1,5.7-4.1,5.7s-4.1-2.8-4.1-5.7c0-2.9,1.1-5.8,4.1-5.8S159,758,159,760.9z M157.5,761.2v-0.7
			c0-2.7-1-4.2-2.6-4.2c-1.6,0-2.6,1.5-2.6,4.2v0.7c0,2.7,1,4.2,2.6,4.2C156.5,765.5,157.5,763.9,157.5,761.2z"/>
	</g>
	<g>
		<path d="M207.5,755.4v-0.1h1.3v11.2h-1.4v-8.2h-2.1v-1.2h0.2C207,757.1,207.5,756.6,207.5,755.4z"/>
	</g>
	<g>
		<path d="M256.5,766.5v-1.3c0.8-0.7,3.2-2.7,4-3.5c0.9-0.8,1.7-1.8,1.7-3.1c0-1.4-0.9-2.2-2.2-2.2c-1.4,0-2.1,1-2.2,2.4l-1.4-0.1
			c0.1-2.2,1.5-3.5,3.6-3.5c2.2,0,3.7,1.3,3.7,3.5c0,1.6-0.8,2.7-3.3,4.8l-2,1.7h5.5v1.2H256.5z"/>
	</g>
	<g>
		<path d="M310.2,763.6c0.4,1.1,1.1,1.8,2.6,1.8c1.6,0,2.4-0.9,2.4-2.1c0-1.2-0.9-2-2.6-2h-0.5v-1.2h0.3c1.5,0,2.7-0.5,2.7-1.9
			c0-1.3-1-1.9-2.2-1.9c-1.2,0-2.1,0.7-2.5,1.7l-1.3-0.5c0.6-1.6,2.1-2.4,3.7-2.4c2,0,3.6,1.2,3.6,3c0,1.2-0.7,2.3-2.1,2.6
			c1.6,0.3,2.3,1.4,2.3,2.7c0,2.2-1.8,3.2-3.9,3.2c-1.8,0-3.3-0.8-3.9-2.6L310.2,763.6z"/>
	</g>
	<g>
		<path d="M366.6,766.5v-2.9H361v-1.4l5.1-6.9h2v7.2h1.8v1.2H368v2.9H366.6z M366.6,762.5v-6l-4.3,6H366.6z"/>
	</g>
	<g>
		<path d="M466.7,761.2c0-3,1.2-6.1,4.4-6.1c1.6,0,2.7,0.7,3.3,1.8l-1.4,0.4c-0.5-0.7-1.1-1.1-2-1.1c-2.1,0-3,2.2-3,4.5l0,0
			c0.5-0.8,1.4-1.6,3-1.6c2.1,0,3.6,1.6,3.6,3.7c0,2.2-1.6,3.8-3.9,3.8c-2.4,0-4.2-1.8-4.2-5.2V761.2z M470.8,765.5
			c1.4,0,2.5-1,2.5-2.6s-1-2.6-2.5-2.6c-1.5,0-2.5,1-2.5,2.5C468.3,764.4,469.4,765.5,470.8,765.5z"/>
	</g>
	<g>
		<path d="M579.6,758.2c0,1-0.5,2.1-1.9,2.5c1.6,0.4,2.2,1.7,2.2,2.8c0,2-2,3.1-4,3.1s-4-1.1-4-3.1c0-1.2,0.7-2.4,2.2-2.8
			c-1.4-0.4-1.9-1.5-1.9-2.5c0-1.9,1.8-3,3.7-3S579.6,756.2,579.6,758.2z M578.5,763.4c0-1.4-1.2-2-2.6-2s-2.6,0.7-2.6,2
			c0,1.4,1.2,2,2.6,2S578.5,764.8,578.5,763.4z M578.2,758.3c0-1.2-1.1-1.9-2.3-1.9c-1.2,0-2.3,0.7-2.3,1.9c0,1.2,1,1.9,2.3,1.9
			C577.2,760.1,578.2,759.5,578.2,758.3z"/>
	</g>
	<g>
		<path d="M676,755.4v-0.1h1.3v11.2h-1.4v-8.2h-2.1v-1.2h0.2C675.6,757.1,676,756.6,676,755.4z"/>
		<path d="M688.1,760.9c0,2.9-1.1,5.7-4.1,5.7c-3,0-4.1-2.8-4.1-5.7c0-2.9,1.1-5.8,4.1-5.8C687.1,755.2,688.1,758,688.1,760.9z
			 M686.7,761.2v-0.7c0-2.7-1-4.2-2.6-4.2s-2.6,1.5-2.6,4.2v0.7c0,2.7,1,4.2,2.6,4.2S686.7,763.9,686.7,761.2z"/>
	</g>
	<g>
		<path d="M781.6,755.4v-0.1h1.3v11.2h-1.4v-8.2h-2.1v-1.2h0.2C781.2,757.1,781.6,756.6,781.6,755.4z"/>
		<path d="M785.7,766.5v-1.3c0.8-0.7,3.2-2.7,4-3.5c0.9-0.8,1.7-1.8,1.7-3.1c0-1.4-0.9-2.2-2.2-2.2c-1.4,0-2.1,1-2.2,2.4l-1.4-0.1
			c0.1-2.2,1.5-3.5,3.6-3.5c2.2,0,3.7,1.3,3.7,3.5c0,1.6-0.8,2.7-3.3,4.8l-2,1.7h5.5v1.2H785.7z"/>
	</g>
	<g>
		<path d="M886.5,755.4v-0.1h1.3v11.2h-1.4v-8.2h-2.1v-1.2h0.2C886,757.1,886.5,756.6,886.5,755.4z"/>
		<path d="M895.8,766.5v-2.9h-5.6v-1.4l5.1-6.9h2v7.2h1.8v1.2h-1.8v2.9H895.8z M895.8,762.5v-6l-4.3,6H895.8z"/>
	</g>
	<g>
		<path d="M414.5,760.8l0.6-5.5h6.4v1.2h-5.3l-0.3,3.2c0.6-0.6,1.5-0.9,2.4-0.9c2.1,0,3.7,1.6,3.7,3.8c0,2.4-1.6,4.1-4,4.1
			c-1.8,0-3.4-0.9-3.8-2.7l1.4-0.2c0.3,0.9,1,1.7,2.4,1.7c1.6,0,2.6-1.2,2.6-2.8c0-1.6-1-2.7-2.6-2.7c-0.8,0-1.7,0.4-2.1,1
			L414.5,760.8z"/>
	</g>
	<g>
		<path d="M525.6,756.5h-6v-1.2h7.3v1.2l-4.5,10h-1.6L525.6,756.5z"/>
	</g>
	<g>
		<path d="M632.5,760.6c0,3-1.2,6.1-4.5,6.1c-1.6,0-2.7-0.7-3.3-1.8l1.4-0.4c0.5,0.7,1.1,1.1,2,1.1c2.1,0,3-2.2,3-4.5l0,0
			c-0.5,0.8-1.4,1.6-3,1.6c-2.1,0-3.6-1.6-3.6-3.6c0-2.2,1.6-3.8,3.9-3.8c2.4,0,4.2,1.8,4.2,5.2V760.6z M628.4,756.3
			c-1.4,0-2.5,1-2.5,2.6s1,2.6,2.5,2.6c1.5,0,2.5-1,2.5-2.5C630.9,757.4,629.8,756.3,628.4,756.3z"/>
	</g>
	<g>
		<path d="M730.8,755.4v-0.1h1.3v11.2h-1.4v-8.2h-2.1v-1.2h0.2C730.4,757.1,730.8,756.6,730.8,755.4z"/>
		<path d="M736.6,755.4v-0.1h1.3v11.2h-1.4v-8.2h-2.1v-1.2h0.2C736.2,757.1,736.6,756.6,736.6,755.4z"/>
	</g>
	<g>
		<path d="M834.1,755.4v-0.1h1.3v11.2h-1.4v-8.2H832v-1.2h0.2C833.7,757.1,834.1,756.6,834.1,755.4z"/>
		<path d="M839.4,763.6c0.4,1.1,1.1,1.8,2.6,1.8c1.6,0,2.4-0.9,2.4-2.1c0-1.2-0.9-2-2.6-2h-0.5v-1.2h0.3c1.5,0,2.7-0.5,2.7-1.9
			c0-1.3-1-1.9-2.2-1.9c-1.2,0-2.1,0.7-2.5,1.7l-1.3-0.5c0.6-1.6,2.1-2.4,3.7-2.4c2,0,3.6,1.2,3.6,3c0,1.2-0.7,2.3-2.1,2.6
			c1.6,0.3,2.3,1.4,2.3,2.7c0,2.2-1.8,3.2-3.9,3.2c-1.8,0-3.3-0.8-3.9-2.6L839.4,763.6z"/>
	</g>
	<g>
		<path d="M939.4,755.4v-0.1h1.3v11.2h-1.4v-8.2h-2.1v-1.2h0.2C939,757.1,939.4,756.6,939.4,755.4z"/>
		<path d="M943.6,760.8l0.6-5.5h6.4v1.2h-5.3l-0.3,3.2c0.6-0.6,1.5-0.9,2.4-0.9c2.1,0,3.7,1.6,3.7,3.8c0,2.4-1.6,4.1-4,4.1
			c-1.8,0-3.4-0.9-3.8-2.7l1.4-0.2c0.3,0.9,1,1.7,2.4,1.7c1.6,0,2.6-1.2,2.6-2.8c0-1.6-1-2.7-2.6-2.7c-0.8,0-1.7,0.4-2.1,1
			L943.6,760.8z"/>
	</g>
	<g>
		<path d="M90.9,102.9h6.7v1.2h-5.3v3.7h4.9v1.2h-4.9v5.2h-1.4V102.9z"/>
		<path d="M100.3,110.5c0.1,1.5,1,2.6,2.5,2.6c0.9,0,1.5-0.3,2.1-0.8l0.7,0.9c-0.7,0.6-1.7,1-2.8,1c-2.3,0-3.8-1.7-3.8-4.1
			c0-2.4,1.4-4.2,3.6-4.2c2.1,0,3.4,1.7,3.4,4.1v0.4H100.3z M100.3,109.5h4.2c0-1.2-0.7-2.4-2-2.4
			C101.2,107.1,100.4,108.3,100.3,109.5z"/>
		<path d="M113.9,114.1h-1.3v-5c0-1.4-0.7-1.9-1.6-1.9c-0.9,0-1.8,0.7-1.8,2.2v4.7H108v-8h1.3v0.9c0.5-0.7,1.2-1.1,2.1-1.1
			c0.7,0,1.7,0.4,2.2,1.3c0.6-1,1.5-1.3,2.4-1.3c1.7,0,2.7,1.3,2.7,2.7v5.5h-1.3v-5c0-1.4-0.8-1.9-1.6-1.9c-0.9,0-1.8,0.7-1.8,2.2
			V114.1z"/>
		<path d="M123.3,114.3c-1.6,0-2.8-0.9-2.8-2.4c0-1.2,0.8-2.1,2.1-2.3l2.8-0.4v-0.5c0-1.2-0.8-1.6-1.8-1.6c-0.9,0-1.7,0.3-2.3,0.6
			l-0.5-1c0.9-0.5,2-0.7,2.9-0.7c1.9,0,3,0.9,3,2.5v3.7c0,0.5,0.2,0.9,0.7,1.1l-0.7,0.9c-0.5-0.1-0.9-0.5-1.1-1
			C125.2,113.9,124.4,114.3,123.3,114.3z M123.4,110.6c-0.9,0.1-1.5,0.4-1.5,1.2c0,0.9,0.8,1.4,1.6,1.4c1,0,2-0.6,2-1.6v-1.4
			L123.4,110.6z"/>
		<path d="M129.3,102.9h1.3v9.4c0,0.5,0.2,0.8,0.8,0.8c0.3,0,0.6,0,0.8,0l0.1,1.1c0,0-0.8,0.1-1.3,0.1c-0.9,0-1.7-0.4-1.7-1.6V102.9
			z"/>
		<path d="M134.6,110.5c0.1,1.5,1,2.6,2.5,2.6c0.9,0,1.5-0.3,2.1-0.8l0.7,0.9c-0.7,0.6-1.7,1-2.8,1c-2.3,0-3.8-1.7-3.8-4.1
			c0-2.4,1.4-4.2,3.6-4.2c2.1,0,3.4,1.7,3.4,4.1v0.4H134.6z M134.6,109.5h4.2c0-1.2-0.7-2.4-2-2.4
			C135.5,107.1,134.7,108.3,134.6,109.5z"/>
	</g>
	<g>
		<path d="M90.9,188.4h6.7v1.2h-5.3v3.7h4.9v1.2h-4.9v5.2h-1.4V188.4z"/>
		<path d="M100.3,196c0.1,1.5,1,2.6,2.5,2.6c0.9,0,1.5-0.3,2.1-0.8l0.7,0.9c-0.7,0.6-1.7,1-2.8,1c-2.3,0-3.8-1.7-3.8-4.1
			c0-2.4,1.4-4.2,3.6-4.2c2.1,0,3.4,1.7,3.4,4.1v0.4H100.3z M100.3,195h4.2c0-1.2-0.7-2.4-2-2.4C101.2,192.6,100.4,193.8,100.3,195z
			"/>
		<path d="M113.9,199.6h-1.3v-5c0-1.4-0.7-1.9-1.6-1.9c-0.9,0-1.8,0.7-1.8,2.2v4.7H108v-8h1.3v0.9c0.5-0.7,1.2-1.1,2.1-1.1
			c0.7,0,1.7,0.4,2.2,1.3c0.6-1,1.5-1.3,2.4-1.3c1.7,0,2.7,1.3,2.7,2.7v5.5h-1.3v-5c0-1.4-0.8-1.9-1.6-1.9c-0.9,0-1.8,0.7-1.8,2.2
			V199.6z"/>
		<path d="M123.3,199.8c-1.6,0-2.8-0.9-2.8-2.4c0-1.2,0.8-2.1,2.1-2.3l2.8-0.4v-0.5c0-1.2-0.8-1.6-1.8-1.6c-0.9,0-1.7,0.3-2.3,0.6
			l-0.5-1c0.9-0.5,2-0.7,2.9-0.7c1.9,0,3,0.9,3,2.5v3.7c0,0.5,0.2,0.9,0.7,1.1l-0.7,0.9c-0.5-0.1-0.9-0.5-1.1-1
			C125.2,199.4,124.4,199.8,123.3,199.8z M123.4,196.1c-0.9,0.1-1.5,0.4-1.5,1.2c0,0.9,0.8,1.4,1.6,1.4c1,0,2-0.6,2-1.6v-1.4
			L123.4,196.1z"/>
		<path d="M129.3,188.4h1.3v9.4c0,0.5,0.2,0.8,0.8,0.8c0.3,0,0.6,0,0.8,0l0.1,1.1c0,0-0.8,0.1-1.3,0.1c-0.9,0-1.7-0.4-1.7-1.6V188.4
			z"/>
		<path d="M134.6,196c0.1,1.5,1,2.6,2.5,2.6c0.9,0,1.5-0.3,2.1-0.8l0.7,0.9c-0.7,0.6-1.7,1-2.8,1c-2.3,0-3.8-1.7-3.8-4.1
			c0-2.4,1.4-4.2,3.6-4.2c2.1,0,3.4,1.7,3.4,4.1v0.4H134.6z M134.6,195h4.2c0-1.2-0.7-2.4-2-2.4C135.5,192.6,134.7,193.8,134.6,195z
			"/>
	</g>
	<g>
		<path d="M60,263.2c-3.3,0-5.3-2.5-5.3-5.8s2-5.8,5.3-5.8c3.3,0,5.3,2.5,5.3,5.8S63.3,263.2,60,263.2z M60,253.7c-2,0-3,1.6-3,3.7
			v0c0,2.1,0.9,3.7,3,3.7c2,0,3-1.6,3-3.7C63,255.4,62.1,253.7,60,253.7z"/>
		<path d="M70.1,260.5c0,0.4,0.2,0.7,0.9,0.7c0.3,0,0.8,0,1.1-0.1l0.2,1.9c0,0-1.1,0.1-2,0.1c-1.5,0-2.4-0.7-2.4-2.1v-4.5h-1.5v-1.9
			H68v-2.4l2.2-0.6v2.9h2.2v1.9h-2.2V260.5z"/>
		<path d="M73.8,251.8H76v3.6c0.5-0.5,1.1-0.9,2.1-0.9c1.8,0,2.9,1.3,2.9,2.9v5.7h-2.2v-4.9c0-1.2-0.6-1.6-1.3-1.6
			c-0.9,0-1.6,0.6-1.6,1.9v4.6h-2.2V251.8z"/>
		<path d="M84.8,259.6c0.2,1.1,1,1.6,2,1.6c0.8,0,1.6-0.3,2.1-0.8L90,262c-0.7,0.6-1.9,1.1-3.2,1.1c-2.3,0-4.2-1.6-4.2-4.3v-0.1
			c0-2.5,1.7-4.3,4-4.3c2.2,0,3.8,1.7,3.8,4.1v1H84.8z M84.8,257.9h3.4c0-0.7-0.5-1.6-1.6-1.6C85.4,256.3,84.9,257.2,84.8,257.9z"/>
		<path d="M96.8,256.7h-0.4c-1.2,0-2.3,0.4-2.3,2.2v4.1H92v-8.4h2.2v0.9c0.4-0.6,1.1-1.1,2.2-1.1h0.5V256.7z"/>
		<path d="M107.8,261.2h-4.4l-0.5,1.8h-2.4l3.7-11.2h3l3.7,11.2h-2.5L107.8,261.2z M104,259.2h3.1l-1.6-5.1h0L104,259.2z"/>
		<path d="M112.6,260.3c0.6,0.6,1.6,1,2.4,1c0.7,0,1.2-0.2,1.2-0.7c0-0.4-0.3-0.6-1-0.7c-0.5-0.1-1.4-0.3-2.1-0.6
			c-0.8-0.4-1.5-1-1.5-2.2c0-1.8,1.6-2.7,3.4-2.7c1.4,0,2.6,0.5,3.3,1.2l-1.4,1.4c-0.4-0.4-1.1-0.8-1.9-0.8c-0.6,0-1.2,0.2-1.2,0.7
			c0,0.4,0.4,0.5,1,0.7c1,0.3,1.8,0.4,2.4,0.8c0.7,0.4,1.2,1.1,1.2,2c0,1.8-1.5,2.7-3.4,2.7c-1.4,0-2.9-0.5-3.8-1.3L112.6,260.3z"/>
		<path d="M121.2,251.4c0.8,0,1.4,0.6,1.4,1.4s-0.6,1.4-1.4,1.4c-0.8,0-1.4-0.6-1.4-1.4S120.4,251.4,121.2,251.4z M122.3,263h-2.2
			v-8.4h2.2V263z"/>
		<path d="M126.7,263.2c-1.5,0-2.9-1-2.9-2.6c0-1.3,0.9-2.2,2.4-2.4l2.5-0.4v-0.3c0-0.7-0.5-1.1-1.3-1.1c-1,0-1.8,0.4-2.5,0.7
			l-0.8-1.7c1-0.5,2.2-0.9,3.4-0.9c1.5,0,3.4,0.4,3.4,2.7v3.6c0,0.5,0.3,0.7,0.7,0.9l-1,1.6c-0.8-0.1-1.3-0.5-1.6-0.9
			C128.5,262.9,127.7,263.2,126.7,263.2z M127,259.6c-0.5,0.1-0.9,0.4-0.9,0.9c0,0.5,0.4,1,1.1,1c1,0,1.5-0.7,1.5-1.5v-0.6
			L127,259.6z"/>
		<path d="M132.9,254.6h2.2v0.7c0.5-0.5,1.1-0.9,2.1-0.9c1.8,0,2.9,1.3,2.9,2.9v5.7h-2.2v-4.9c0-1.2-0.6-1.6-1.3-1.6
			c-0.9,0-1.6,0.6-1.6,1.9v4.6h-2.2V254.6z"/>
	</g>
	<g>
		<path d="M90.9,273.9h6.7v1.2h-5.3v3.7h4.9v1.2h-4.9v5.2h-1.4V273.9z"/>
		<path d="M100.3,281.5c0.1,1.5,1,2.6,2.5,2.6c0.9,0,1.5-0.3,2.1-0.8l0.7,0.9c-0.7,0.6-1.7,1-2.8,1c-2.3,0-3.8-1.7-3.8-4.1
			c0-2.4,1.4-4.2,3.6-4.2c2.1,0,3.4,1.7,3.4,4.1v0.4H100.3z M100.3,280.5h4.2c0-1.2-0.7-2.4-2-2.4
			C101.2,278.1,100.4,279.3,100.3,280.5z"/>
		<path d="M113.9,285.1h-1.3v-5c0-1.4-0.7-1.9-1.6-1.9c-0.9,0-1.8,0.7-1.8,2.2v4.7H108v-8h1.3v0.9c0.5-0.7,1.2-1.1,2.1-1.1
			c0.7,0,1.7,0.4,2.2,1.3c0.6-1,1.5-1.3,2.4-1.3c1.7,0,2.7,1.3,2.7,2.7v5.5h-1.3v-5c0-1.4-0.8-1.9-1.6-1.9c-0.9,0-1.8,0.7-1.8,2.2
			V285.1z"/>
		<path d="M123.3,285.3c-1.6,0-2.8-0.9-2.8-2.4c0-1.2,0.8-2.1,2.1-2.3l2.8-0.4v-0.5c0-1.2-0.8-1.6-1.8-1.6c-0.9,0-1.7,0.3-2.3,0.6
			l-0.5-1c0.9-0.5,2-0.7,2.9-0.7c1.9,0,3,0.9,3,2.5v3.7c0,0.5,0.2,0.9,0.7,1.1l-0.7,0.9c-0.5-0.1-0.9-0.5-1.1-1
			C125.2,284.9,124.4,285.3,123.3,285.3z M123.4,281.6c-0.9,0.1-1.5,0.4-1.5,1.2c0,0.9,0.8,1.4,1.6,1.4c1,0,2-0.6,2-1.6v-1.4
			L123.4,281.6z"/>
		<path d="M129.3,273.9h1.3v9.4c0,0.5,0.2,0.8,0.8,0.8c0.3,0,0.6,0,0.8,0l0.1,1.1c0,0-0.8,0.1-1.3,0.1c-0.9,0-1.7-0.4-1.7-1.6V273.9
			z"/>
		<path d="M134.6,281.5c0.1,1.5,1,2.6,2.5,2.6c0.9,0,1.5-0.3,2.1-0.8l0.7,0.9c-0.7,0.6-1.7,1-2.8,1c-2.3,0-3.8-1.7-3.8-4.1
			c0-2.4,1.4-4.2,3.6-4.2c2.1,0,3.4,1.7,3.4,4.1v0.4H134.6z M134.6,280.5h4.2c0-1.2-0.7-2.4-2-2.4
			C135.5,278.1,134.7,279.3,134.6,280.5z"/>
	</g>
	<g>
		<path d="M90.9,530.4h6.7v1.2h-5.3v3.7h4.9v1.2h-4.9v5.2h-1.4V530.4z"/>
		<path d="M100.3,538c0.1,1.5,1,2.6,2.5,2.6c0.9,0,1.5-0.3,2.1-0.8l0.7,0.9c-0.7,0.6-1.7,1-2.8,1c-2.3,0-3.8-1.7-3.8-4.1
			c0-2.4,1.4-4.2,3.6-4.2c2.1,0,3.4,1.7,3.4,4.1v0.4H100.3z M100.3,537h4.2c0-1.2-0.7-2.4-2-2.4C101.2,534.6,100.4,535.8,100.3,537z
			"/>
		<path d="M113.9,541.6h-1.3v-5c0-1.4-0.7-1.9-1.6-1.9c-0.9,0-1.8,0.7-1.8,2.2v4.7H108v-8h1.3v0.9c0.5-0.7,1.2-1.1,2.1-1.1
			c0.7,0,1.7,0.4,2.2,1.3c0.6-1,1.5-1.3,2.4-1.3c1.7,0,2.7,1.3,2.7,2.7v5.5h-1.3v-5c0-1.4-0.8-1.9-1.6-1.9c-0.9,0-1.8,0.7-1.8,2.2
			V541.6z"/>
		<path d="M123.3,541.8c-1.6,0-2.8-0.9-2.8-2.4c0-1.2,0.8-2.1,2.1-2.3l2.8-0.4v-0.5c0-1.2-0.8-1.6-1.8-1.6c-0.9,0-1.7,0.3-2.3,0.6
			l-0.5-1c0.9-0.5,2-0.7,2.9-0.7c1.9,0,3,0.9,3,2.5v3.7c0,0.5,0.2,0.9,0.7,1.1l-0.7,0.9c-0.5-0.1-0.9-0.5-1.1-1
			C125.2,541.4,124.4,541.8,123.3,541.8z M123.4,538.1c-0.9,0.1-1.5,0.4-1.5,1.2c0,0.9,0.8,1.4,1.6,1.4c1,0,2-0.6,2-1.6v-1.4
			L123.4,538.1z"/>
		<path d="M129.3,530.4h1.3v9.4c0,0.5,0.2,0.8,0.8,0.8c0.3,0,0.6,0,0.8,0l0.1,1.1c0,0-0.8,0.1-1.3,0.1c-0.9,0-1.7-0.4-1.7-1.6V530.4
			z"/>
		<path d="M134.6,538c0.1,1.5,1,2.6,2.5,2.6c0.9,0,1.5-0.3,2.1-0.8l0.7,0.9c-0.7,0.6-1.7,1-2.8,1c-2.3,0-3.8-1.7-3.8-4.1
			c0-2.4,1.4-4.2,3.6-4.2c2.1,0,3.4,1.7,3.4,4.1v0.4H134.6z M134.6,537h4.2c0-1.2-0.7-2.4-2-2.4C135.5,534.6,134.7,535.8,134.6,537z
			"/>
	</g>
	<g>
		<path d="M90.9,615.9h6.7v1.2h-5.3v3.7h4.9v1.2h-4.9v5.2h-1.4V615.9z"/>
		<path d="M100.3,623.5c0.1,1.5,1,2.6,2.5,2.6c0.9,0,1.5-0.3,2.1-0.8l0.7,0.9c-0.7,0.6-1.7,1-2.8,1c-2.3,0-3.8-1.7-3.8-4.1
			c0-2.4,1.4-4.2,3.6-4.2c2.1,0,3.4,1.7,3.4,4.1v0.4H100.3z M100.3,622.5h4.2c0-1.2-0.7-2.4-2-2.4
			C101.2,620.1,100.4,621.3,100.3,622.5z"/>
		<path d="M113.9,627.1h-1.3v-5c0-1.4-0.7-1.9-1.6-1.9c-0.9,0-1.8,0.7-1.8,2.2v4.7H108v-8h1.3v0.9c0.5-0.7,1.2-1.1,2.1-1.1
			c0.7,0,1.7,0.4,2.2,1.3c0.6-1,1.5-1.3,2.4-1.3c1.7,0,2.7,1.3,2.7,2.7v5.5h-1.3v-5c0-1.4-0.8-1.9-1.6-1.9c-0.9,0-1.8,0.7-1.8,2.2
			V627.1z"/>
		<path d="M123.3,627.3c-1.6,0-2.8-0.9-2.8-2.4c0-1.2,0.8-2.1,2.1-2.3l2.8-0.4v-0.5c0-1.2-0.8-1.6-1.8-1.6c-0.9,0-1.7,0.3-2.3,0.6
			l-0.5-1c0.9-0.5,2-0.7,2.9-0.7c1.9,0,3,0.9,3,2.5v3.7c0,0.5,0.2,0.9,0.7,1.1l-0.7,0.9c-0.5-0.1-0.9-0.5-1.1-1
			C125.2,626.9,124.4,627.3,123.3,627.3z M123.4,623.6c-0.9,0.1-1.5,0.4-1.5,1.2c0,0.9,0.8,1.4,1.6,1.4c1,0,2-0.6,2-1.6v-1.4
			L123.4,623.6z"/>
		<path d="M129.3,615.9h1.3v9.4c0,0.5,0.2,0.8,0.8,0.8c0.3,0,0.6,0,0.8,0l0.1,1.1c0,0-0.8,0.1-1.3,0.1c-0.9,0-1.7-0.4-1.7-1.6V615.9
			z"/>
		<path d="M134.6,623.5c0.1,1.5,1,2.6,2.5,2.6c0.9,0,1.5-0.3,2.1-0.8l0.7,0.9c-0.7,0.6-1.7,1-2.8,1c-2.3,0-3.8-1.7-3.8-4.1
			c0-2.4,1.4-4.2,3.6-4.2c2.1,0,3.4,1.7,3.4,4.1v0.4H134.6z M134.6,622.5h4.2c0-1.2-0.7-2.4-2-2.4
			C135.5,620.1,134.7,621.3,134.6,622.5z"/>
	</g>
	<g>
		<path d="M90.9,359.4h6.7v1.2h-5.3v3.7h4.9v1.2h-4.9v5.2h-1.4V359.4z"/>
		<path d="M100.3,367c0.1,1.5,1,2.6,2.5,2.6c0.9,0,1.5-0.3,2.1-0.8l0.7,0.9c-0.7,0.6-1.7,1-2.8,1c-2.3,0-3.8-1.7-3.8-4.1
			c0-2.4,1.4-4.2,3.6-4.2c2.1,0,3.4,1.7,3.4,4.1v0.4H100.3z M100.3,366h4.2c0-1.2-0.7-2.4-2-2.4C101.2,363.6,100.4,364.8,100.3,366z
			"/>
		<path d="M113.9,370.6h-1.3v-5c0-1.4-0.7-1.9-1.6-1.9c-0.9,0-1.8,0.7-1.8,2.2v4.7H108v-8h1.3v0.9c0.5-0.7,1.2-1.1,2.1-1.1
			c0.7,0,1.7,0.4,2.2,1.3c0.6-1,1.5-1.3,2.4-1.3c1.7,0,2.7,1.3,2.7,2.7v5.5h-1.3v-5c0-1.4-0.8-1.9-1.6-1.9c-0.9,0-1.8,0.7-1.8,2.2
			V370.6z"/>
		<path d="M123.3,370.8c-1.6,0-2.8-0.9-2.8-2.4c0-1.2,0.8-2.1,2.1-2.3l2.8-0.4v-0.5c0-1.2-0.8-1.6-1.8-1.6c-0.9,0-1.7,0.3-2.3,0.6
			l-0.5-1c0.9-0.5,2-0.7,2.9-0.7c1.9,0,3,0.9,3,2.5v3.7c0,0.5,0.2,0.9,0.7,1.1l-0.7,0.9c-0.5-0.1-0.9-0.5-1.1-1
			C125.2,370.4,124.4,370.8,123.3,370.8z M123.4,367.1c-0.9,0.1-1.5,0.4-1.5,1.2c0,0.9,0.8,1.4,1.6,1.4c1,0,2-0.6,2-1.6v-1.4
			L123.4,367.1z"/>
		<path d="M129.3,359.4h1.3v9.4c0,0.5,0.2,0.8,0.8,0.8c0.3,0,0.6,0,0.8,0l0.1,1.1c0,0-0.8,0.1-1.3,0.1c-0.9,0-1.7-0.4-1.7-1.6V359.4
			z"/>
		<path d="M134.6,367c0.1,1.5,1,2.6,2.5,2.6c0.9,0,1.5-0.3,2.1-0.8l0.7,0.9c-0.7,0.6-1.7,1-2.8,1c-2.3,0-3.8-1.7-3.8-4.1
			c0-2.4,1.4-4.2,3.6-4.2c2.1,0,3.4,1.7,3.4,4.1v0.4H134.6z M134.6,366h4.2c0-1.2-0.7-2.4-2-2.4C135.5,363.6,134.7,364.8,134.6,366z
			"/>
	</g>
	<g>
		<rect x="160" y="96.8" fill="#DBC2A3" width="264" height="23.8"/>
	</g>
	<g>
		<path d="M181.5,108.4l0.6-5.5h6.4v1.2h-5.3l-0.3,3.2c0.6-0.6,1.5-0.9,2.4-0.9c2.1,0,3.7,1.6,3.7,3.8c0,2.4-1.6,4.1-4,4.1
			c-1.8,0-3.4-0.9-3.8-2.7l1.4-0.2c0.3,0.9,1,1.7,2.4,1.7c1.6,0,2.6-1.2,2.6-2.8c0-1.6-1-2.7-2.6-2.7c-0.8,0-1.7,0.4-2.1,1
			L181.5,108.4z"/>
		<path d="M192.1,112.1c0.6,0,1.1,0.5,1.1,1.1c0,0.6-0.5,1.1-1.1,1.1s-1.1-0.5-1.1-1.1C191,112.6,191.5,112.1,192.1,112.1z"/>
		<path d="M203.2,108.5c0,2.9-1.1,5.7-4.1,5.7s-4.1-2.8-4.1-5.7c0-2.9,1.1-5.8,4.1-5.8S203.2,105.6,203.2,108.5z M201.8,108.9v-0.7
			c0-2.7-1-4.2-2.6-4.2c-1.6,0-2.6,1.5-2.6,4.2v0.7c0,2.7,1,4.2,2.6,4.2C200.7,113.1,201.8,111.5,201.8,108.9z"/>
		<path d="M205,105.2c0-1.3,1.1-2.4,2.4-2.4c1.3,0,2.4,1,2.4,2.4c0,1.3-1.1,2.4-2.4,2.4C206,107.5,205,106.5,205,105.2z
			 M206.1,105.2c0,0.8,0.5,1.4,1.3,1.4c0.8,0,1.3-0.6,1.3-1.4c0-0.8-0.5-1.4-1.3-1.4C206.6,103.8,206.1,104.4,206.1,105.2z
			 M213.4,102.9h1.3l-6.8,11.2h-1.3L213.4,102.9z M211.5,111.9c0-1.3,1.1-2.4,2.4-2.4s2.4,1,2.4,2.4c0,1.3-1.1,2.4-2.4,2.4
			S211.5,113.2,211.5,111.9z M212.6,111.9c0,0.8,0.5,1.4,1.3,1.4s1.3-0.6,1.3-1.4c0-0.8-0.5-1.4-1.3-1.4S212.6,111.1,212.6,111.9z"
			/>
	</g>
	<g>
		<rect x="160" y="182.2" fill="#DBC2A3" width="792" height="23.8"/>
	</g>
	<g>
		<path d="M177.3,188.5v-0.1h1.3v11.2h-1.4v-8.2h-2.1v-1.2h0.2C176.9,190.2,177.3,189.7,177.3,188.5z"/>
		<path d="M181.5,193.9l0.6-5.5h6.4v1.2h-5.3l-0.3,3.2c0.6-0.6,1.5-0.9,2.4-0.9c2.1,0,3.7,1.6,3.7,3.8c0,2.4-1.6,4.1-4,4.1
			c-1.8,0-3.4-0.9-3.8-2.7l1.4-0.2c0.3,0.9,1,1.7,2.4,1.7c1.6,0,2.6-1.2,2.6-2.8c0-1.6-1-2.7-2.6-2.7c-0.8,0-1.7,0.4-2.1,1
			L181.5,193.9z"/>
		<path d="M192.1,197.6c0.6,0,1.1,0.5,1.1,1.1c0,0.6-0.5,1.1-1.1,1.1s-1.1-0.5-1.1-1.1C191,198.1,191.5,197.6,192.1,197.6z"/>
		<path d="M203.2,194c0,2.9-1.1,5.7-4.1,5.7s-4.1-2.8-4.1-5.7c0-2.9,1.1-5.8,4.1-5.8S203.2,191.1,203.2,194z M201.8,194.4v-0.7
			c0-2.7-1-4.2-2.6-4.2c-1.6,0-2.6,1.5-2.6,4.2v0.7c0,2.7,1,4.2,2.6,4.2C200.7,198.6,201.8,197,201.8,194.4z"/>
		<path d="M205,190.7c0-1.3,1.1-2.4,2.4-2.4c1.3,0,2.4,1,2.4,2.4c0,1.3-1.1,2.4-2.4,2.4C206,193,205,192,205,190.7z M206.1,190.7
			c0,0.8,0.5,1.4,1.3,1.4c0.8,0,1.3-0.6,1.3-1.4c0-0.8-0.5-1.4-1.3-1.4C206.6,189.3,206.1,189.9,206.1,190.7z M213.4,188.4h1.3
			l-6.8,11.2h-1.3L213.4,188.4z M211.5,197.4c0-1.3,1.1-2.4,2.4-2.4s2.4,1,2.4,2.4c0,1.3-1.1,2.4-2.4,2.4S211.5,198.7,211.5,197.4z
			 M212.6,197.4c0,0.8,0.5,1.4,1.3,1.4s1.3-0.6,1.3-1.4c0-0.8-0.5-1.4-1.3-1.4S212.6,196.6,212.6,197.4z"/>
	</g>
	<g>
		<path d="M90.9,599.8l2.4-11.6h3.7L93.2,605H89l-2.5-12L84,605h-4.2l-3.7-16.8h3.7l2.3,11.6l2.5-11.6h3.8L90.9,599.8z"/>
		<path d="M99.2,588.2h3.2v5.3c0.7-0.7,1.7-1.3,3.2-1.3c2.7,0,4.3,1.9,4.3,4.3v8.5h-3.2v-7.3c0-1.8-0.8-2.4-2-2.4
			c-1.3,0-2.3,0.9-2.3,2.9v6.9h-3.2V588.2z"/>
		<path d="M114.5,587.6c1.1,0,2,0.9,2,2s-0.9,2-2,2c-1.1,0-2-0.9-2-2S113.4,587.6,114.5,587.6z M116.1,605h-3.2v-12.6h3.2V605z"/>
		<path d="M123.8,601.3c0,0.6,0.3,1.1,1.4,1.1c0.5,0,1.3,0,1.6-0.1l0.3,2.9c0,0-1.6,0.2-3,0.2c-2.2,0-3.6-1-3.6-3.2v-6.7h-2.3v-2.9
			h2.3v-3.6l3.2-0.9v4.4h3.3v2.9h-3.3V601.3z"/>
		<path d="M132,599.8c0.3,1.6,1.6,2.4,3,2.4c1.2,0,2.3-0.4,3.2-1.2l1.6,2.4c-1.1,0.9-2.8,1.7-4.9,1.7c-3.5,0-6.3-2.4-6.3-6.4v-0.1
			c0-3.7,2.5-6.5,6.1-6.5c3.3,0,5.8,2.5,5.8,6.2v1.5H132z M132.1,597.4h5.1c-0.1-1.1-0.8-2.4-2.5-2.4
			C133,595,132.2,596.3,132.1,597.4z"/>
	</g>
	<g>
		<path d="M90.9,701.4h6.7v1.2h-5.3v3.7h4.9v1.2h-4.9v5.2h-1.4V701.4z"/>
		<path d="M100.3,709c0.1,1.5,1,2.6,2.5,2.6c0.9,0,1.5-0.3,2.1-0.8l0.7,0.9c-0.7,0.6-1.7,1-2.8,1c-2.3,0-3.8-1.7-3.8-4.1
			c0-2.4,1.4-4.2,3.6-4.2c2.1,0,3.4,1.7,3.4,4.1v0.4H100.3z M100.3,708h4.2c0-1.2-0.7-2.4-2-2.4C101.2,705.6,100.4,706.8,100.3,708z
			"/>
		<path d="M113.9,712.6h-1.3v-5c0-1.4-0.7-1.9-1.6-1.9c-0.9,0-1.8,0.7-1.8,2.2v4.7H108v-8h1.3v0.9c0.5-0.7,1.2-1.1,2.1-1.1
			c0.7,0,1.7,0.4,2.2,1.3c0.6-1,1.5-1.3,2.4-1.3c1.7,0,2.7,1.3,2.7,2.7v5.5h-1.3v-5c0-1.4-0.8-1.9-1.6-1.9c-0.9,0-1.8,0.7-1.8,2.2
			V712.6z"/>
		<path d="M123.3,712.8c-1.6,0-2.8-0.9-2.8-2.4c0-1.2,0.8-2.1,2.1-2.3l2.8-0.4v-0.5c0-1.2-0.8-1.6-1.8-1.6c-0.9,0-1.7,0.3-2.3,0.6
			l-0.5-1c0.9-0.5,2-0.7,2.9-0.7c1.9,0,3,0.9,3,2.5v3.7c0,0.5,0.2,0.9,0.7,1.1l-0.7,0.9c-0.5-0.1-0.9-0.5-1.1-1
			C125.2,712.4,124.4,712.8,123.3,712.8z M123.4,709.1c-0.9,0.1-1.5,0.4-1.5,1.2c0,0.9,0.8,1.4,1.6,1.4c1,0,2-0.6,2-1.6v-1.4
			L123.4,709.1z"/>
		<path d="M129.3,701.4h1.3v9.4c0,0.5,0.2,0.8,0.8,0.8c0.3,0,0.6,0,0.8,0l0.1,1.1c0,0-0.8,0.1-1.3,0.1c-0.9,0-1.7-0.4-1.7-1.6V701.4
			z"/>
		<path d="M134.6,709c0.1,1.5,1,2.6,2.5,2.6c0.9,0,1.5-0.3,2.1-0.8l0.7,0.9c-0.7,0.6-1.7,1-2.8,1c-2.3,0-3.8-1.7-3.8-4.1
			c0-2.4,1.4-4.2,3.6-4.2c2.1,0,3.4,1.7,3.4,4.1v0.4H134.6z M134.6,708h4.2c0-1.2-0.7-2.4-2-2.4C135.5,705.6,134.7,706.8,134.6,708z
			"/>
	</g>
	<g>
		<path d="M283.3,34h-4.5l-0.7,2.5h-1.5l3.5-11.2h2l3.5,11.2h-1.5L283.3,34z M279.1,32.8h3.8l-1.9-6.3H281L279.1,32.8z"/>
		<path d="M288.8,36.5l-2.5-8h1.5l1.9,6.8l1.9-6.8h1.5l-2.5,8H288.8z"/>
		<path d="M295.5,32.9c0.1,1.5,1,2.6,2.5,2.6c0.9,0,1.5-0.3,2.1-0.8l0.7,0.9c-0.7,0.6-1.7,1-2.8,1c-2.3,0-3.8-1.7-3.8-4.1
			c0-2.4,1.4-4.2,3.6-4.2c2.1,0,3.4,1.7,3.4,4.1v0.4H295.5z M295.6,31.9h4.2c0-1.2-0.7-2.4-2-2.4C296.5,29.5,295.6,30.6,295.6,31.9z
			"/>
		<path d="M307.3,29.7h-0.2c-1.3,0-2.6,0.5-2.6,2.7v4.1h-1.3v-8h1.3v1.3c0.4-0.9,1.4-1.4,2.4-1.4h0.4V29.7z"/>
		<path d="M311.2,36.7c-1.6,0-2.8-0.9-2.8-2.4c0-1.2,0.8-2.1,2.1-2.3l2.8-0.4v-0.5c0-1.2-0.8-1.6-1.8-1.6c-0.9,0-1.7,0.3-2.3,0.6
			l-0.5-1c0.9-0.5,2-0.7,2.9-0.7c1.9,0,3,0.9,3,2.5v3.7c0,0.5,0.2,0.9,0.7,1.1l-0.7,0.9c-0.5-0.1-0.9-0.5-1.1-1
			C313,36.2,312.2,36.7,311.2,36.7z M311.2,32.9c-0.9,0.1-1.5,0.4-1.5,1.2c0,0.9,0.8,1.4,1.6,1.4c1,0,2-0.6,2-1.6v-1.4L311.2,32.9z"
			/>
		<path d="M320,28.4c0.9,0,1.7,0.3,2.3,1.1v-0.9h1.3v8.1c0,2-1.7,2.6-3.4,2.6c-0.9,0-2.1-0.2-3-0.6l0.4-1.1c0.6,0.3,1.6,0.6,2.5,0.6
			c1.3,0,2.1-0.5,2.1-1.7v-1.5c-0.5,0.8-1.4,1.1-2.3,1.1c-2,0-3.2-1.6-3.2-3.7C316.7,30,318,28.4,320,28.4z M322.2,32
			c0-1.4-0.6-2.5-2-2.5c-1.5,0-2.1,1.1-2.1,2.5v0.1c0,1.4,0.7,2.5,2.1,2.5C321.6,34.6,322.2,33.5,322.2,32L322.2,32z"/>
		<path d="M327,32.9c0.1,1.5,1,2.6,2.5,2.6c0.9,0,1.5-0.3,2.1-0.8l0.7,0.9c-0.7,0.6-1.7,1-2.8,1c-2.3,0-3.8-1.7-3.8-4.1
			c0-2.4,1.4-4.2,3.6-4.2c2.1,0,3.4,1.7,3.4,4.1v0.4H327z M327,31.9h4.2c0-1.2-0.7-2.4-2-2.4C327.9,29.5,327.1,30.6,327,31.9z"/>
		<path d="M340.5,28.5h1.6v1.2h-1.6v6.8h-1.3v-6.8h-1.3v-1.2h1.3V27c0-1.4,0.9-1.9,2.2-1.9c0.6,0,1.1,0.1,1.3,0.1l-0.1,1.1
			c-0.3,0-0.9-0.1-1.1-0.1c-0.8,0-0.9,0.5-0.9,1V28.5z"/>
		<path d="M350.6,32.5c0,2.4-1.5,4.1-3.7,4.1s-3.7-1.7-3.7-4.1c0-2.4,1.5-4.2,3.7-4.2S350.6,30.1,350.6,32.5z M349.3,32.6
			L349.3,32.6c0-1.7-0.8-3.1-2.3-3.1s-2.3,1.4-2.3,3v0.1c0,1.6,0.8,2.9,2.3,2.9S349.3,34.1,349.3,32.6z"/>
		<path d="M356.8,29.7h-0.2c-1.3,0-2.6,0.5-2.6,2.7v4.1h-1.3v-8h1.3v1.3c0.4-0.9,1.4-1.4,2.4-1.4h0.4V29.7z"/>
		<path d="M362.7,25.3h6.7v1.2H364v3.7h4.9v1.2H364v4h5.6v1.2h-7V25.3z"/>
		<path d="M371.7,28.5h1.3v0.9c0.5-0.7,1.4-1.1,2.3-1.1c1.8,0,2.7,1.3,2.7,2.7v5.4h-1.3v-5c0-1.4-0.7-1.9-1.6-1.9c-1,0-2,0.7-2,2.2
			v4.7h-1.3V28.5z"/>
		<path d="M383.3,28.4c0.9,0,1.7,0.3,2.3,1.1v-0.9h1.3v8.1c0,2-1.7,2.6-3.4,2.6c-0.9,0-2.1-0.2-3-0.6l0.4-1.1
			c0.6,0.3,1.6,0.6,2.5,0.6c1.3,0,2.1-0.5,2.1-1.7v-1.5c-0.5,0.8-1.4,1.1-2.3,1.1c-2,0-3.2-1.6-3.2-3.7
			C380.1,30,381.3,28.4,383.3,28.4z M385.6,32c0-1.4-0.6-2.5-2-2.5c-1.5,0-2.1,1.1-2.1,2.5v0.1c0,1.4,0.7,2.5,2.1,2.5
			C385,34.6,385.6,33.5,385.6,32L385.6,32z"/>
		<path d="M389.4,25.3h1.3v9.4c0,0.5,0.2,0.8,0.8,0.8c0.3,0,0.6,0,0.8,0l0.1,1.1c0,0-0.8,0.1-1.3,0.1c-0.9,0-1.7-0.4-1.7-1.6V25.3z"
			/>
		<path d="M396,36.7c-1.6,0-2.8-0.9-2.8-2.4c0-1.2,0.8-2.1,2.1-2.3l2.8-0.4v-0.5c0-1.2-0.8-1.6-1.8-1.6c-0.9,0-1.7,0.3-2.3,0.6
			l-0.5-1c0.9-0.5,2-0.7,2.9-0.7c1.9,0,3,0.9,3,2.5v3.7c0,0.5,0.2,0.9,0.7,1.1l-0.7,0.9c-0.5-0.1-0.9-0.5-1.1-1
			C397.9,36.2,397.1,36.7,396,36.7z M396,32.9c-0.9,0.1-1.5,0.4-1.5,1.2c0,0.9,0.8,1.4,1.6,1.4c1,0,2-0.6,2-1.6v-1.4L396,32.9z"/>
		<path d="M402,28.5h1.3v0.9c0.5-0.7,1.4-1.1,2.3-1.1c1.8,0,2.7,1.3,2.7,2.7v5.4h-1.3v-5c0-1.4-0.7-1.9-1.6-1.9c-1,0-2,0.7-2,2.2
			v4.7H402V28.5z"/>
		<path d="M416.1,35.6c-0.5,0.7-1.3,1.1-2.3,1.1c-2.1,0-3.4-1.7-3.4-4.1c0-2.4,1.3-4.2,3.4-4.2c1,0,1.9,0.4,2.3,1.1v-4.1h1.3v11.2
			h-1.3V35.6z M411.8,32.5c0,1.7,0.8,2.9,2.3,2.9c1.4,0,2.1-1,2.1-2.3v-1.3c0-1.3-0.7-2.3-2.1-2.3C412.6,29.5,411.8,30.8,411.8,32.5
			L411.8,32.5z"/>
		<path d="M383.2,49.8l0.6-5.5h6.4v1.2h-5.3l-0.3,3.2c0.6-0.6,1.5-0.9,2.4-0.9c2.1,0,3.7,1.6,3.7,3.8c0,2.4-1.6,4.1-4,4.1
			c-1.8,0-3.4-0.9-3.8-2.7l1.4-0.2c0.3,0.9,1,1.7,2.4,1.7c1.6,0,2.6-1.2,2.6-2.8c0-1.6-1-2.7-2.6-2.7c-0.8,0-1.7,0.4-2.1,1
			L383.2,49.8z"/>
		<path d="M393.8,53.5c0.6,0,1.1,0.5,1.1,1.1c0,0.6-0.5,1.1-1.1,1.1s-1.1-0.5-1.1-1.1C392.7,54,393.2,53.5,393.8,53.5z"/>
		<path d="M405,49.9c0,2.9-1.1,5.7-4.1,5.7s-4.1-2.8-4.1-5.7c0-2.9,1.1-5.8,4.1-5.8S405,47,405,49.9z M403.5,50.2v-0.7
			c0-2.7-1-4.2-2.6-4.2c-1.6,0-2.6,1.5-2.6,4.2v0.7c0,2.7,1,4.2,2.6,4.2C402.5,54.5,403.5,52.9,403.5,50.2z"/>
		<path d="M406.7,46.5c0-1.3,1.1-2.4,2.4-2.4c1.3,0,2.4,1,2.4,2.4c0,1.3-1.1,2.4-2.4,2.4C407.7,48.9,406.7,47.9,406.7,46.5z
			 M407.8,46.5c0,0.8,0.5,1.4,1.3,1.4c0.8,0,1.3-0.6,1.3-1.4c0-0.8-0.5-1.4-1.3-1.4C408.3,45.2,407.8,45.8,407.8,46.5z M415.1,44.3
			h1.3l-6.8,11.2h-1.3L415.1,44.3z M413.2,53.3c0-1.3,1.1-2.4,2.4-2.4s2.4,1,2.4,2.4c0,1.3-1.1,2.4-2.4,2.4S413.2,54.6,413.2,53.3z
			 M414.4,53.3c0,0.8,0.5,1.4,1.3,1.4s1.3-0.6,1.3-1.4c0-0.8-0.5-1.4-1.3-1.4S414.4,52.5,414.4,53.3z"/>
	</g>
	<g>
		<rect x="423.5" y="96.8" fill="#B58840" width="1" height="23.8"/>
	</g>
	<g>
		<rect x="951.5" y="182.2" fill="#B58840" width="1" height="23.8"/>
	</g>
	<g>
		<rect x="951.5" y="438.8" fill="#B58840" width="1" height="23.8"/>
	</g>
	<g>
		<rect x="160" y="120.5" fill="#85AFD0" width="264" height="23.8"/>
	</g>
	<g>
		<path d="M116.7,126.7h1.7v11.2H117v-9.5l-3.8,5.2h0l-3.8-5.1v9.5h-1.4v-11.2h1.7l3.5,4.8L116.7,126.7z"/>
		<path d="M123.3,138c-1.6,0-2.8-0.9-2.8-2.4c0-1.2,0.8-2.1,2.1-2.3l2.8-0.4v-0.5c0-1.2-0.8-1.6-1.8-1.6c-0.9,0-1.7,0.3-2.3,0.6
			l-0.5-1c0.9-0.5,2-0.7,2.9-0.7c1.9,0,3,0.9,3,2.5v3.7c0,0.5,0.2,0.9,0.7,1.1l-0.7,0.9c-0.5-0.1-0.9-0.5-1.1-1
			C125.2,137.6,124.4,138,123.3,138z M123.4,134.3c-0.9,0.1-1.5,0.4-1.5,1.2c0,0.9,0.8,1.4,1.6,1.4c1,0,2-0.6,2-1.6V134L123.4,134.3
			z"/>
		<path d="M129.3,126.7h1.3v9.4c0,0.5,0.2,0.8,0.8,0.8c0.3,0,0.6,0,0.8,0l0.1,1.1c0,0-0.8,0.1-1.3,0.1c-0.9,0-1.7-0.4-1.7-1.6V126.7
			z"/>
		<path d="M134.6,134.3c0.1,1.5,1,2.6,2.5,2.6c0.9,0,1.5-0.3,2.1-0.8l0.7,0.9c-0.7,0.6-1.7,1-2.8,1c-2.3,0-3.8-1.7-3.8-4.1
			c0-2.4,1.4-4.2,3.6-4.2c2.1,0,3.4,1.7,3.4,4.1v0.4H134.6z M134.6,133.2h4.2c0-1.2-0.7-2.4-2-2.4
			C135.5,130.9,134.7,132,134.6,133.2z"/>
	</g>
	<g>
		<path d="M116.7,212.2h1.7v11.2H117v-9.5l-3.8,5.2h0l-3.8-5.1v9.5h-1.4v-11.2h1.7l3.5,4.8L116.7,212.2z"/>
		<path d="M123.3,223.5c-1.6,0-2.8-0.9-2.8-2.4c0-1.2,0.8-2.1,2.1-2.3l2.8-0.4V218c0-1.2-0.8-1.6-1.8-1.6c-0.9,0-1.7,0.3-2.3,0.6
			l-0.5-1c0.9-0.5,2-0.7,2.9-0.7c1.9,0,3,0.9,3,2.5v3.7c0,0.5,0.2,0.9,0.7,1.1l-0.7,0.9c-0.5-0.1-0.9-0.5-1.1-1
			C125.2,223.1,124.4,223.5,123.3,223.5z M123.4,219.8c-0.9,0.1-1.5,0.4-1.5,1.2c0,0.9,0.8,1.4,1.6,1.4c1,0,2-0.6,2-1.6v-1.4
			L123.4,219.8z"/>
		<path d="M129.3,212.2h1.3v9.4c0,0.5,0.2,0.8,0.8,0.8c0.3,0,0.6,0,0.8,0l0.1,1.1c0,0-0.8,0.1-1.3,0.1c-0.9,0-1.7-0.4-1.7-1.6V212.2
			z"/>
		<path d="M134.6,219.8c0.1,1.5,1,2.6,2.5,2.6c0.9,0,1.5-0.3,2.1-0.8l0.7,0.9c-0.7,0.6-1.7,1-2.8,1c-2.3,0-3.8-1.7-3.8-4.1
			c0-2.4,1.4-4.2,3.6-4.2c2.1,0,3.4,1.7,3.4,4.1v0.4H134.6z M134.6,218.7h4.2c0-1.2-0.7-2.4-2-2.4
			C135.5,216.4,134.7,217.5,134.6,218.7z"/>
	</g>
	<g>
		<path d="M116.7,297.7h1.7v11.2H117v-9.5l-3.8,5.2h0l-3.8-5.1v9.5h-1.4v-11.2h1.7l3.5,4.8L116.7,297.7z"/>
		<path d="M123.3,309c-1.6,0-2.8-0.9-2.8-2.4c0-1.2,0.8-2.1,2.1-2.3l2.8-0.4v-0.5c0-1.2-0.8-1.6-1.8-1.6c-0.9,0-1.7,0.3-2.3,0.6
			l-0.5-1c0.9-0.5,2-0.7,2.9-0.7c1.9,0,3,0.9,3,2.5v3.7c0,0.5,0.2,0.9,0.7,1.1l-0.7,0.9c-0.5-0.1-0.9-0.5-1.1-1
			C125.2,308.6,124.4,309,123.3,309z M123.4,305.3c-0.9,0.1-1.5,0.4-1.5,1.2c0,0.9,0.8,1.4,1.6,1.4c1,0,2-0.6,2-1.6V305L123.4,305.3
			z"/>
		<path d="M129.3,297.7h1.3v9.4c0,0.5,0.2,0.8,0.8,0.8c0.3,0,0.6,0,0.8,0l0.1,1.1c0,0-0.8,0.1-1.3,0.1c-0.9,0-1.7-0.4-1.7-1.6V297.7
			z"/>
		<path d="M134.6,305.3c0.1,1.5,1,2.6,2.5,2.6c0.9,0,1.5-0.3,2.1-0.8l0.7,0.9c-0.7,0.6-1.7,1-2.8,1c-2.3,0-3.8-1.7-3.8-4.1
			c0-2.4,1.4-4.2,3.6-4.2c2.1,0,3.4,1.7,3.4,4.1v0.4H134.6z M134.6,304.2h4.2c0-1.2-0.7-2.4-2-2.4
			C135.5,301.9,134.7,303,134.6,304.2z"/>
	</g>
	<g>
		<g>
			<path d="M90.9,444.9h6.7v1.2h-5.3v3.7h4.9v1.2h-4.9v5.2h-1.4V444.9z"/>
			<path d="M100.3,452.5c0.1,1.5,1,2.6,2.5,2.6c0.9,0,1.5-0.3,2.1-0.8l0.7,0.9c-0.7,0.6-1.7,1-2.8,1c-2.3,0-3.8-1.7-3.8-4.1
				c0-2.4,1.4-4.2,3.6-4.2c2.1,0,3.4,1.7,3.4,4.1v0.4H100.3z M100.3,451.5h4.2c0-1.2-0.7-2.4-2-2.4
				C101.2,449.1,100.4,450.3,100.3,451.5z"/>
			<path d="M113.9,456.1h-1.3v-5c0-1.4-0.7-1.9-1.6-1.9c-0.9,0-1.8,0.7-1.8,2.2v4.7H108v-8h1.3v0.9c0.5-0.7,1.2-1.1,2.1-1.1
				c0.7,0,1.7,0.4,2.2,1.3c0.6-1,1.5-1.3,2.4-1.3c1.7,0,2.7,1.3,2.7,2.7v5.5h-1.3v-5c0-1.4-0.8-1.9-1.6-1.9c-0.9,0-1.8,0.7-1.8,2.2
				V456.1z"/>
			<path d="M123.3,456.3c-1.6,0-2.8-0.9-2.8-2.4c0-1.2,0.8-2.1,2.1-2.3l2.8-0.4v-0.5c0-1.2-0.8-1.6-1.8-1.6c-0.9,0-1.7,0.3-2.3,0.6
				l-0.5-1c0.9-0.5,2-0.7,2.9-0.7c1.9,0,3,0.9,3,2.5v3.7c0,0.5,0.2,0.9,0.7,1.1l-0.7,0.9c-0.5-0.1-0.9-0.5-1.1-1
				C125.2,455.9,124.4,456.3,123.3,456.3z M123.4,452.6c-0.9,0.1-1.5,0.4-1.5,1.2c0,0.9,0.8,1.4,1.6,1.4c1,0,2-0.6,2-1.6v-1.4
				L123.4,452.6z"/>
			<path d="M129.3,444.9h1.3v9.4c0,0.5,0.2,0.8,0.8,0.8c0.3,0,0.6,0,0.8,0l0.1,1.1c0,0-0.8,0.1-1.3,0.1c-0.9,0-1.7-0.4-1.7-1.6
				V444.9z"/>
			<path d="M134.6,452.5c0.1,1.5,1,2.6,2.5,2.6c0.9,0,1.5-0.3,2.1-0.8l0.7,0.9c-0.7,0.6-1.7,1-2.8,1c-2.3,0-3.8-1.7-3.8-4.1
				c0-2.4,1.4-4.2,3.6-4.2c2.1,0,3.4,1.7,3.4,4.1v0.4H134.6z M134.6,451.5h4.2c0-1.2-0.7-2.4-2-2.4
				C135.5,449.1,134.7,450.3,134.6,451.5z"/>
		</g>
		<g>
			<path d="M116.7,468.7h1.7v11.2H117v-9.5l-3.8,5.2h0l-3.8-5.1v9.5h-1.4v-11.2h1.7l3.5,4.8L116.7,468.7z"/>
			<path d="M123.3,480c-1.6,0-2.8-0.9-2.8-2.4c0-1.2,0.8-2.1,2.1-2.3l2.8-0.4v-0.5c0-1.2-0.8-1.6-1.8-1.6c-0.9,0-1.7,0.3-2.3,0.6
				l-0.5-1c0.9-0.5,2-0.7,2.9-0.7c1.9,0,3,0.9,3,2.5v3.7c0,0.5,0.2,0.9,0.7,1.1l-0.7,0.9c-0.5-0.1-0.9-0.5-1.1-1
				C125.2,479.6,124.4,480,123.3,480z M123.4,476.3c-0.9,0.1-1.5,0.4-1.5,1.2c0,0.9,0.8,1.4,1.6,1.4c1,0,2-0.6,2-1.6V476
				L123.4,476.3z"/>
			<path d="M129.3,468.7h1.3v9.4c0,0.5,0.2,0.8,0.8,0.8c0.3,0,0.6,0,0.8,0l0.1,1.1c0,0-0.8,0.1-1.3,0.1c-0.9,0-1.7-0.4-1.7-1.6
				V468.7z"/>
			<path d="M134.6,476.3c0.1,1.5,1,2.6,2.5,2.6c0.9,0,1.5-0.3,2.1-0.8l0.7,0.9c-0.7,0.6-1.7,1-2.8,1c-2.3,0-3.8-1.7-3.8-4.1
				c0-2.4,1.4-4.2,3.6-4.2c2.1,0,3.4,1.7,3.4,4.1v0.4H134.6z M134.6,475.2h4.2c0-1.2-0.7-2.4-2-2.4
				C135.5,472.9,134.7,474,134.6,475.2z"/>
		</g>
	</g>
	<g>
		<path d="M116.7,554.2h1.7v11.2H117v-9.5l-3.8,5.2h0l-3.8-5.1v9.5h-1.4v-11.2h1.7l3.5,4.8L116.7,554.2z"/>
		<path d="M123.3,565.5c-1.6,0-2.8-0.9-2.8-2.4c0-1.2,0.8-2.1,2.1-2.3l2.8-0.4V560c0-1.2-0.8-1.6-1.8-1.6c-0.9,0-1.7,0.3-2.3,0.6
			l-0.5-1c0.9-0.5,2-0.7,2.9-0.7c1.9,0,3,0.9,3,2.5v3.7c0,0.5,0.2,0.9,0.7,1.1l-0.7,0.9c-0.5-0.1-0.9-0.5-1.1-1
			C125.2,565.1,124.4,565.5,123.3,565.5z M123.4,561.8c-0.9,0.1-1.5,0.4-1.5,1.2c0,0.9,0.8,1.4,1.6,1.4c1,0,2-0.6,2-1.6v-1.4
			L123.4,561.8z"/>
		<path d="M129.3,554.2h1.3v9.4c0,0.5,0.2,0.8,0.8,0.8c0.3,0,0.6,0,0.8,0l0.1,1.1c0,0-0.8,0.1-1.3,0.1c-0.9,0-1.7-0.4-1.7-1.6V554.2
			z"/>
		<path d="M134.6,561.8c0.1,1.5,1,2.6,2.5,2.6c0.9,0,1.5-0.3,2.1-0.8l0.7,0.9c-0.7,0.6-1.7,1-2.8,1c-2.3,0-3.8-1.7-3.8-4.1
			c0-2.4,1.4-4.2,3.6-4.2c2.1,0,3.4,1.7,3.4,4.1v0.4H134.6z M134.6,560.7h4.2c0-1.2-0.7-2.4-2-2.4
			C135.5,558.4,134.7,559.5,134.6,560.7z"/>
	</g>
	<g>
		<path d="M116.7,639.7h1.7v11.2H117v-9.5l-3.8,5.2h0l-3.8-5.1v9.5h-1.4v-11.2h1.7l3.5,4.8L116.7,639.7z"/>
		<path d="M123.3,651c-1.6,0-2.8-0.9-2.8-2.4c0-1.2,0.8-2.1,2.1-2.3l2.8-0.4v-0.5c0-1.2-0.8-1.6-1.8-1.6c-0.9,0-1.7,0.3-2.3,0.6
			l-0.5-1c0.9-0.5,2-0.7,2.9-0.7c1.9,0,3,0.9,3,2.5v3.7c0,0.5,0.2,0.9,0.7,1.1l-0.7,0.9c-0.5-0.1-0.9-0.5-1.1-1
			C125.2,650.6,124.4,651,123.3,651z M123.4,647.3c-0.9,0.1-1.5,0.4-1.5,1.2c0,0.9,0.8,1.4,1.6,1.4c1,0,2-0.6,2-1.6V647L123.4,647.3
			z"/>
		<path d="M129.3,639.7h1.3v9.4c0,0.5,0.2,0.8,0.8,0.8c0.3,0,0.6,0,0.8,0l0.1,1.1c0,0-0.8,0.1-1.3,0.1c-0.9,0-1.7-0.4-1.7-1.6V639.7
			z"/>
		<path d="M134.6,647.3c0.1,1.5,1,2.6,2.5,2.6c0.9,0,1.5-0.3,2.1-0.8l0.7,0.9c-0.7,0.6-1.7,1-2.8,1c-2.3,0-3.8-1.7-3.8-4.1
			c0-2.4,1.4-4.2,3.6-4.2c2.1,0,3.4,1.7,3.4,4.1v0.4H134.6z M134.6,646.2h4.2c0-1.2-0.7-2.4-2-2.4
			C135.5,643.9,134.7,645,134.6,646.2z"/>
	</g>
	<g>
		<path d="M116.7,383.2h1.7v11.2H117v-9.5l-3.8,5.2h0l-3.8-5.1v9.5h-1.4v-11.2h1.7l3.5,4.8L116.7,383.2z"/>
		<path d="M123.3,394.5c-1.6,0-2.8-0.9-2.8-2.4c0-1.2,0.8-2.1,2.1-2.3l2.8-0.4V389c0-1.2-0.8-1.6-1.8-1.6c-0.9,0-1.7,0.3-2.3,0.6
			l-0.5-1c0.9-0.5,2-0.7,2.9-0.7c1.9,0,3,0.9,3,2.5v3.7c0,0.5,0.2,0.9,0.7,1.1l-0.7,0.9c-0.5-0.1-0.9-0.5-1.1-1
			C125.2,394.1,124.4,394.5,123.3,394.5z M123.4,390.8c-0.9,0.1-1.5,0.4-1.5,1.2c0,0.9,0.8,1.4,1.6,1.4c1,0,2-0.6,2-1.6v-1.4
			L123.4,390.8z"/>
		<path d="M129.3,383.2h1.3v9.4c0,0.5,0.2,0.8,0.8,0.8c0.3,0,0.6,0,0.8,0l0.1,1.1c0,0-0.8,0.1-1.3,0.1c-0.9,0-1.7-0.4-1.7-1.6V383.2
			z"/>
		<path d="M134.6,390.8c0.1,1.5,1,2.6,2.5,2.6c0.9,0,1.5-0.3,2.1-0.8l0.7,0.9c-0.7,0.6-1.7,1-2.8,1c-2.3,0-3.8-1.7-3.8-4.1
			c0-2.4,1.4-4.2,3.6-4.2c2.1,0,3.4,1.7,3.4,4.1v0.4H134.6z M134.6,389.7h4.2c0-1.2-0.7-2.4-2-2.4
			C135.5,387.4,134.7,388.5,134.6,389.7z"/>
	</g>
	<g>
		<path d="M181.5,132.2l0.6-5.5h6.4v1.2h-5.3l-0.3,3.2c0.6-0.6,1.5-0.9,2.4-0.9c2.1,0,3.7,1.6,3.7,3.8c0,2.4-1.6,4.1-4,4.1
			c-1.8,0-3.4-0.9-3.8-2.7l1.4-0.2c0.3,0.9,1,1.7,2.4,1.7c1.6,0,2.6-1.2,2.6-2.8c0-1.6-1-2.7-2.6-2.7c-0.8,0-1.7,0.4-2.1,1
			L181.5,132.2z"/>
		<path d="M192.1,135.9c0.6,0,1.1,0.5,1.1,1.1c0,0.6-0.5,1.1-1.1,1.1s-1.1-0.5-1.1-1.1C191,136.4,191.5,135.9,192.1,135.9z"/>
		<path d="M203.2,132.3c0,2.9-1.1,5.7-4.1,5.7s-4.1-2.8-4.1-5.7c0-2.9,1.1-5.8,4.1-5.8S203.2,129.4,203.2,132.3z M201.8,132.6V132
			c0-2.7-1-4.2-2.6-4.2c-1.6,0-2.6,1.5-2.6,4.2v0.7c0,2.7,1,4.2,2.6,4.2C200.7,136.8,201.8,135.3,201.8,132.6z"/>
		<path d="M205,128.9c0-1.3,1.1-2.4,2.4-2.4c1.3,0,2.4,1,2.4,2.4c0,1.3-1.1,2.4-2.4,2.4C206,131.3,205,130.3,205,128.9z
			 M206.1,128.9c0,0.8,0.5,1.4,1.3,1.4c0.8,0,1.3-0.6,1.3-1.4c0-0.8-0.5-1.4-1.3-1.4C206.6,127.6,206.1,128.1,206.1,128.9z
			 M213.4,126.7h1.3l-6.8,11.2h-1.3L213.4,126.7z M211.5,135.6c0-1.3,1.1-2.4,2.4-2.4s2.4,1,2.4,2.4c0,1.3-1.1,2.4-2.4,2.4
			S211.5,137,211.5,135.6z M212.6,135.6c0,0.8,0.5,1.4,1.3,1.4s1.3-0.6,1.3-1.4c0-0.8-0.5-1.4-1.3-1.4S212.6,134.9,212.6,135.6z"/>
	</g>
	<g>
		<rect x="160" y="267.8" fill="#DBC2A3" width="264" height="23.8"/>
	</g>
	<g>
		<path d="M181.5,279.4l0.6-5.5h6.4v1.2h-5.3l-0.3,3.2c0.6-0.6,1.5-0.9,2.4-0.9c2.1,0,3.7,1.6,3.7,3.8c0,2.4-1.6,4.1-4,4.1
			c-1.8,0-3.4-0.9-3.8-2.7l1.4-0.2c0.3,0.9,1,1.7,2.4,1.7c1.6,0,2.6-1.2,2.6-2.8c0-1.6-1-2.7-2.6-2.7c-0.8,0-1.7,0.4-2.1,1
			L181.5,279.4z"/>
		<path d="M192.1,283.1c0.6,0,1.1,0.5,1.1,1.1c0,0.6-0.5,1.1-1.1,1.1s-1.1-0.5-1.1-1.1C191,283.6,191.5,283.1,192.1,283.1z"/>
		<path d="M203.2,279.5c0,2.9-1.1,5.7-4.1,5.7s-4.1-2.8-4.1-5.7c0-2.9,1.1-5.8,4.1-5.8S203.2,276.6,203.2,279.5z M201.8,279.9v-0.7
			c0-2.7-1-4.2-2.6-4.2c-1.6,0-2.6,1.5-2.6,4.2v0.7c0,2.7,1,4.2,2.6,4.2C200.7,284.1,201.8,282.5,201.8,279.9z"/>
		<path d="M205,276.2c0-1.3,1.1-2.4,2.4-2.4c1.3,0,2.4,1,2.4,2.4c0,1.3-1.1,2.4-2.4,2.4C206,278.5,205,277.5,205,276.2z
			 M206.1,276.2c0,0.8,0.5,1.4,1.3,1.4c0.8,0,1.3-0.6,1.3-1.4c0-0.8-0.5-1.4-1.3-1.4C206.6,274.8,206.1,275.4,206.1,276.2z
			 M213.4,273.9h1.3l-6.8,11.2h-1.3L213.4,273.9z M211.5,282.9c0-1.3,1.1-2.4,2.4-2.4s2.4,1,2.4,2.4c0,1.3-1.1,2.4-2.4,2.4
			S211.5,284.2,211.5,282.9z M212.6,282.9c0,0.8,0.5,1.4,1.3,1.4s1.3-0.6,1.3-1.4c0-0.8-0.5-1.4-1.3-1.4S212.6,282.1,212.6,282.9z"
			/>
	</g>
	<g>
		<path d="M178.8,465.5c0.7,0.9,1.9,1.5,3.2,1.5c1.4,0,2.5-0.7,2.5-2c0-0.8-0.4-1.3-1.1-1.6c-1.1-0.5-2.9-0.6-4.1-1.3
			c-0.7-0.4-1.3-1.1-1.3-2.3c0-1.7,1.4-3.1,3.8-3.1c1.4,0,2.8,0.6,3.7,1.5l-1,0.8c-0.6-0.6-1.5-1.2-2.7-1.2c-1.4,0-2.4,0.7-2.4,1.9
			c0,1.8,2.6,1.6,4.6,2.5c1,0.4,1.9,1.2,1.9,2.7c0,2.2-2,3.3-4.1,3.3c-1.9,0-3.2-0.8-4.1-1.7L178.8,465.5z"/>
		<path d="M190.2,468.2c-1.6,0-2.8-0.9-2.8-2.4c0-1.2,0.8-2.1,2.1-2.3l2.8-0.4v-0.5c0-1.2-0.8-1.6-1.8-1.6c-0.9,0-1.7,0.3-2.3,0.6
			l-0.5-1c0.9-0.5,2-0.7,2.9-0.7c1.9,0,3,0.9,3,2.5v3.7c0,0.5,0.2,0.9,0.7,1.1l-0.7,0.9c-0.5-0.1-0.9-0.5-1.1-1
			C192.1,467.7,191.3,468.2,190.2,468.2z M190.3,464.4c-0.9,0.1-1.5,0.4-1.5,1.2c0,0.9,0.8,1.4,1.6,1.4c1,0,2-0.6,2-1.6v-1.4
			L190.3,464.4z"/>
		<path d="M202.3,468h-1.3v-5c0-1.4-0.7-1.9-1.6-1.9c-0.9,0-1.8,0.7-1.8,2.2v4.7h-1.3v-8h1.3v0.9c0.5-0.7,1.2-1.1,2.1-1.1
			c0.7,0,1.7,0.4,2.2,1.3c0.6-1,1.5-1.3,2.4-1.3c1.7,0,2.7,1.3,2.7,2.7v5.5h-1.3v-5c0-1.4-0.8-1.9-1.6-1.9c-0.9,0-1.8,0.7-1.8,2.2
			V468z"/>
		<path d="M210.8,460v0.9c0.5-0.7,1.3-1.1,2.3-1.1c2.1,0,3.4,1.7,3.4,4.2c0,2.4-1.3,4.1-3.4,4.1c-1,0-1.9-0.4-2.3-1.1v3.3h-1.3V460
			H210.8z M215.1,464c0-1.7-0.8-2.9-2.3-2.9c-1.4,0-2.1,1-2.1,2.3v1.3c0,1.3,0.7,2.3,2.1,2.3C214.3,467,215.1,465.7,215.1,464
			L215.1,464z"/>
		<path d="M218.5,456.8h1.3v9.4c0,0.5,0.2,0.8,0.8,0.8c0.3,0,0.6,0,0.8,0l0.1,1.1c0,0-0.8,0.1-1.3,0.1c-0.9,0-1.7-0.4-1.7-1.6V456.8
			z"/>
		<path d="M223.9,464.4c0.1,1.5,1,2.6,2.5,2.6c0.9,0,1.5-0.3,2.1-0.8l0.7,0.9c-0.7,0.6-1.7,1-2.8,1c-2.3,0-3.8-1.7-3.8-4.1
			c0-2.4,1.4-4.2,3.6-4.2c2.1,0,3.4,1.7,3.4,4.1v0.4H223.9z M223.9,463.4h4.2c0-1.2-0.7-2.4-2-2.4
			C224.8,461,223.9,462.1,223.9,463.4z"/>
		<path d="M235,467l0.8-0.9c0.5,0.4,1.3,1,2.4,1c0.9,0,1.6-0.4,1.6-1.2c0-0.9-0.9-1.1-2-1.3c-1.1-0.3-2.5-0.7-2.5-2.3
			c0-1.3,1.2-2.3,2.9-2.3c1.1,0,2.2,0.4,2.8,1l-0.8,0.9c-0.5-0.4-1.2-0.8-2-0.8c-1.1,0-1.6,0.5-1.6,1.2c0,0.6,0.4,0.9,1.2,1.1
			c0.4,0.1,0.9,0.3,1.3,0.4c1.1,0.3,2,0.9,2,2.2c0,1.6-1.5,2.4-3,2.4C237.1,468.2,235.9,467.8,235,467z"/>
		<path d="M243.9,456.8c0.5,0,1,0.4,1,1c0,0.5-0.4,1-1,1c-0.5,0-1-0.4-1-1C242.9,457.2,243.4,456.8,243.9,456.8z M244.5,468h-1.3v-8
			h1.3V468z"/>
		<path d="M246.5,466.8l4.4-5.7h-4.1V460h5.6v1.2l-4.3,5.6h4.5v1.1h-6V466.8z"/>
		<path d="M255.3,464.4c0.1,1.5,1,2.6,2.5,2.6c0.9,0,1.5-0.3,2.1-0.8l0.7,0.9c-0.7,0.6-1.7,1-2.8,1c-2.3,0-3.8-1.7-3.8-4.1
			c0-2.4,1.4-4.2,3.6-4.2c2.1,0,3.4,1.7,3.4,4.1v0.4H255.3z M255.4,463.4h4.2c0-1.2-0.7-2.4-2-2.4
			C256.2,461,255.4,462.1,255.4,463.4z"/>
		<path d="M268.9,466c0,0.5,0.1,1,1,1c0.2,0,0.8,0,1-0.1l0.1,1.2c0,0-0.8,0.1-1.4,0.1c-1.3,0-2-0.5-2-1.9v-5.1h-1.5V460h1.5v-2.6
			l1.3-0.5v3.1h2.2v1.2h-2.2V466z"/>
		<path d="M279.8,464c0,2.4-1.5,4.1-3.7,4.1s-3.7-1.7-3.7-4.1c0-2.4,1.5-4.2,3.7-4.2S279.8,461.6,279.8,464z M278.4,464.1
			L278.4,464.1c0-1.7-0.8-3.1-2.3-3.1s-2.3,1.4-2.3,3v0.1c0,1.6,0.8,2.9,2.3,2.9S278.4,465.6,278.4,464.1z"/>
		<path d="M288.8,464c0,2.4-1.5,4.1-3.7,4.1s-3.7-1.7-3.7-4.1c0-2.4,1.5-4.2,3.7-4.2S288.8,461.6,288.8,464z M287.4,464.1
			L287.4,464.1c0-1.7-0.8-3.1-2.3-3.1s-2.3,1.4-2.3,3v0.1c0,1.6,0.8,2.9,2.3,2.9S287.4,465.6,287.4,464.1z"/>
		<path d="M294.3,467l0.8-0.9c0.5,0.4,1.3,1,2.4,1c0.9,0,1.6-0.4,1.6-1.2c0-0.9-0.9-1.1-2-1.3c-1.1-0.3-2.5-0.7-2.5-2.3
			c0-1.3,1.2-2.3,2.9-2.3c1.1,0,2.2,0.4,2.8,1l-0.8,0.9c-0.5-0.4-1.2-0.8-2-0.8c-1.1,0-1.6,0.5-1.6,1.2c0,0.6,0.4,0.9,1.2,1.1
			c0.4,0.1,0.9,0.3,1.3,0.4c1.1,0.3,2,0.9,2,2.2c0,1.6-1.5,2.4-3,2.4C296.4,468.2,295.2,467.8,294.3,467z"/>
		<path d="M308.5,468h-1.3v-5c0-1.4-0.7-1.9-1.6-1.9c-0.9,0-1.8,0.7-1.8,2.2v4.7h-1.3v-8h1.3v0.9c0.5-0.7,1.2-1.1,2.1-1.1
			c0.7,0,1.7,0.4,2.2,1.3c0.6-1,1.5-1.3,2.4-1.3c1.7,0,2.7,1.3,2.7,2.7v5.5h-1.3v-5c0-1.4-0.8-1.9-1.6-1.9c-0.9,0-1.8,0.7-1.8,2.2
			V468z"/>
		<path d="M317.9,468.2c-1.6,0-2.8-0.9-2.8-2.4c0-1.2,0.8-2.1,2.1-2.3l2.8-0.4v-0.5c0-1.2-0.8-1.6-1.8-1.6c-0.9,0-1.7,0.3-2.3,0.6
			l-0.5-1c0.9-0.5,2-0.7,2.9-0.7c1.9,0,3,0.9,3,2.5v3.7c0,0.5,0.2,0.9,0.7,1.1l-0.7,0.9c-0.5-0.1-0.9-0.5-1.1-1
			C319.8,467.7,319,468.2,317.9,468.2z M317.9,464.4c-0.9,0.1-1.5,0.4-1.5,1.2c0,0.9,0.8,1.4,1.6,1.4c1,0,2-0.6,2-1.6v-1.4
			L317.9,464.4z"/>
		<path d="M323.9,456.8h1.3v9.4c0,0.5,0.2,0.8,0.8,0.8c0.3,0,0.6,0,0.8,0l0.1,1.1c0,0-0.8,0.1-1.3,0.1c-0.9,0-1.7-0.4-1.7-1.6V456.8
			z"/>
		<path d="M328.3,456.8h1.3v9.4c0,0.5,0.2,0.8,0.8,0.8c0.3,0,0.6,0,0.8,0l0.1,1.1c0,0-0.8,0.1-1.3,0.1c-0.9,0-1.7-0.4-1.7-1.6V456.8
			z"/>
	</g>
	<g>
		<rect x="423.5" y="267.8" fill="#B58840" width="1" height="23.8"/>
	</g>
	<g>
		<rect x="160" y="291.5" fill="#85AFD0" width="264" height="23.8"/>
	</g>
	<g>
		<path d="M176.9,297.8v-0.1h1.3v11.2h-1.4v-8.2h-2.1v-1.2h0.2C176.5,299.5,176.9,299,176.9,297.8z"/>
		<path d="M189,303.3c0,2.9-1.1,5.7-4.1,5.7s-4.1-2.8-4.1-5.7c0-2.9,1.1-5.8,4.1-5.8S189,300.4,189,303.3z M187.6,303.6V303
			c0-2.7-1-4.2-2.6-4.2c-1.6,0-2.6,1.5-2.6,4.2v0.7c0,2.7,1,4.2,2.6,4.2C186.5,307.8,187.6,306.3,187.6,303.6z"/>
		<path d="M192.1,306.9c0.6,0,1.1,0.5,1.1,1.1c0,0.6-0.5,1.1-1.1,1.1s-1.1-0.5-1.1-1.1C191,307.4,191.5,306.9,192.1,306.9z"/>
		<path d="M203.2,303.3c0,2.9-1.1,5.7-4.1,5.7s-4.1-2.8-4.1-5.7c0-2.9,1.1-5.8,4.1-5.8S203.2,300.4,203.2,303.3z M201.8,303.6V303
			c0-2.7-1-4.2-2.6-4.2c-1.6,0-2.6,1.5-2.6,4.2v0.7c0,2.7,1,4.2,2.6,4.2C200.7,307.8,201.8,306.3,201.8,303.6z"/>
		<path d="M205,299.9c0-1.3,1.1-2.4,2.4-2.4c1.3,0,2.4,1,2.4,2.4c0,1.3-1.1,2.4-2.4,2.4C206,302.3,205,301.3,205,299.9z
			 M206.1,299.9c0,0.8,0.5,1.4,1.3,1.4c0.8,0,1.3-0.6,1.3-1.4c0-0.8-0.5-1.4-1.3-1.4C206.6,298.6,206.1,299.1,206.1,299.9z
			 M213.4,297.7h1.3l-6.8,11.2h-1.3L213.4,297.7z M211.5,306.6c0-1.3,1.1-2.4,2.4-2.4s2.4,1,2.4,2.4c0,1.3-1.1,2.4-2.4,2.4
			S211.5,308,211.5,306.6z M212.6,306.6c0,0.8,0.5,1.4,1.3,1.4s1.3-0.6,1.3-1.4c0-0.8-0.5-1.4-1.3-1.4S212.6,305.9,212.6,306.6z"/>
	</g>
	<g>
		<rect x="160" y="377" fill="#85AFD0" width="528" height="23.8"/>
	</g>
	<g>
		<rect x="160" y="353.2" fill="#DBC2A3" width="264" height="23.8"/>
	</g>
	<g>
		<path d="M181.5,364.9l0.6-5.5h6.4v1.2h-5.3l-0.3,3.2c0.6-0.6,1.5-0.9,2.4-0.9c2.1,0,3.7,1.6,3.7,3.8c0,2.4-1.6,4.1-4,4.1
			c-1.8,0-3.4-0.9-3.8-2.7l1.4-0.2c0.3,0.9,1,1.7,2.4,1.7c1.6,0,2.6-1.2,2.6-2.8c0-1.6-1-2.7-2.6-2.7c-0.8,0-1.7,0.4-2.1,1
			L181.5,364.9z"/>
		<path d="M192.1,368.6c0.6,0,1.1,0.5,1.1,1.1c0,0.6-0.5,1.1-1.1,1.1s-1.1-0.5-1.1-1.1C191,369.1,191.5,368.6,192.1,368.6z"/>
		<path d="M203.2,365c0,2.9-1.1,5.7-4.1,5.7s-4.1-2.8-4.1-5.7c0-2.9,1.1-5.8,4.1-5.8S203.2,362.1,203.2,365z M201.8,365.4v-0.7
			c0-2.7-1-4.2-2.6-4.2c-1.6,0-2.6,1.5-2.6,4.2v0.7c0,2.7,1,4.2,2.6,4.2C200.7,369.6,201.8,368,201.8,365.4z"/>
		<path d="M205,361.7c0-1.3,1.1-2.4,2.4-2.4c1.3,0,2.4,1,2.4,2.4c0,1.3-1.1,2.4-2.4,2.4C206,364,205,363,205,361.7z M206.1,361.7
			c0,0.8,0.5,1.4,1.3,1.4c0.8,0,1.3-0.6,1.3-1.4c0-0.8-0.5-1.4-1.3-1.4C206.6,360.3,206.1,360.9,206.1,361.7z M213.4,359.4h1.3
			l-6.8,11.2h-1.3L213.4,359.4z M211.5,368.4c0-1.3,1.1-2.4,2.4-2.4s2.4,1,2.4,2.4c0,1.3-1.1,2.4-2.4,2.4S211.5,369.7,211.5,368.4z
			 M212.6,368.4c0,0.8,0.5,1.4,1.3,1.4s1.3-0.6,1.3-1.4c0-0.8-0.5-1.4-1.3-1.4S212.6,367.6,212.6,368.4z"/>
	</g>
	<g>
		<rect x="160" y="377" fill="#85AFD0" width="264" height="23.8"/>
	</g>
	<g>
		<path d="M176.9,383.3v-0.1h1.3v11.2h-1.4v-8.2h-2.1V385h0.2C176.5,385,176.9,384.5,176.9,383.3z"/>
		<path d="M189,388.8c0,2.9-1.1,5.7-4.1,5.7s-4.1-2.8-4.1-5.7c0-2.9,1.1-5.8,4.1-5.8S189,385.9,189,388.8z M187.6,389.1v-0.7
			c0-2.7-1-4.2-2.6-4.2c-1.6,0-2.6,1.5-2.6,4.2v0.7c0,2.7,1,4.2,2.6,4.2C186.5,393.3,187.6,391.8,187.6,389.1z"/>
		<path d="M192.1,392.4c0.6,0,1.1,0.5,1.1,1.1c0,0.6-0.5,1.1-1.1,1.1s-1.1-0.5-1.1-1.1C191,392.9,191.5,392.4,192.1,392.4z"/>
		<path d="M203.2,388.8c0,2.9-1.1,5.7-4.1,5.7s-4.1-2.8-4.1-5.7c0-2.9,1.1-5.8,4.1-5.8S203.2,385.9,203.2,388.8z M201.8,389.1v-0.7
			c0-2.7-1-4.2-2.6-4.2c-1.6,0-2.6,1.5-2.6,4.2v0.7c0,2.7,1,4.2,2.6,4.2C200.7,393.3,201.8,391.8,201.8,389.1z"/>
		<path d="M205,385.4c0-1.3,1.1-2.4,2.4-2.4c1.3,0,2.4,1,2.4,2.4c0,1.3-1.1,2.4-2.4,2.4C206,387.8,205,386.8,205,385.4z
			 M206.1,385.4c0,0.8,0.5,1.4,1.3,1.4c0.8,0,1.3-0.6,1.3-1.4c0-0.8-0.5-1.4-1.3-1.4C206.6,384.1,206.1,384.6,206.1,385.4z
			 M213.4,383.2h1.3l-6.8,11.2h-1.3L213.4,383.2z M211.5,392.1c0-1.3,1.1-2.4,2.4-2.4s2.4,1,2.4,2.4c0,1.3-1.1,2.4-2.4,2.4
			S211.5,393.5,211.5,392.1z M212.6,392.1c0,0.8,0.5,1.4,1.3,1.4s1.3-0.6,1.3-1.4c0-0.8-0.5-1.4-1.3-1.4S212.6,391.4,212.6,392.1z"
			/>
	</g>
	<g>
		<rect x="160" y="548" fill="#85AFD0" width="528" height="23.8"/>
	</g>
	<g>
		<rect x="160" y="524.2" fill="#DBC2A3" width="264" height="23.8"/>
	</g>
	<g>
		<path d="M181.5,535.9l0.6-5.5h6.4v1.2h-5.3l-0.3,3.2c0.6-0.6,1.5-0.9,2.4-0.9c2.1,0,3.7,1.6,3.7,3.8c0,2.4-1.6,4.1-4,4.1
			c-1.8,0-3.4-0.9-3.8-2.7l1.4-0.2c0.3,0.9,1,1.7,2.4,1.7c1.6,0,2.6-1.2,2.6-2.8c0-1.6-1-2.7-2.6-2.7c-0.8,0-1.7,0.4-2.1,1
			L181.5,535.9z"/>
		<path d="M192.1,539.6c0.6,0,1.1,0.5,1.1,1.1c0,0.6-0.5,1.1-1.1,1.1s-1.1-0.5-1.1-1.1C191,540.1,191.5,539.6,192.1,539.6z"/>
		<path d="M203.2,536c0,2.9-1.1,5.7-4.1,5.7s-4.1-2.8-4.1-5.7c0-2.9,1.1-5.8,4.1-5.8S203.2,533.1,203.2,536z M201.8,536.4v-0.7
			c0-2.7-1-4.2-2.6-4.2c-1.6,0-2.6,1.5-2.6,4.2v0.7c0,2.7,1,4.2,2.6,4.2C200.7,540.6,201.8,539,201.8,536.4z"/>
		<path d="M205,532.7c0-1.3,1.1-2.4,2.4-2.4c1.3,0,2.4,1,2.4,2.4c0,1.3-1.1,2.4-2.4,2.4C206,535,205,534,205,532.7z M206.1,532.7
			c0,0.8,0.5,1.4,1.3,1.4c0.8,0,1.3-0.6,1.3-1.4c0-0.8-0.5-1.4-1.3-1.4C206.6,531.3,206.1,531.9,206.1,532.7z M213.4,530.4h1.3
			l-6.8,11.2h-1.3L213.4,530.4z M211.5,539.4c0-1.3,1.1-2.4,2.4-2.4s2.4,1,2.4,2.4c0,1.3-1.1,2.4-2.4,2.4S211.5,540.7,211.5,539.4z
			 M212.6,539.4c0,0.8,0.5,1.4,1.3,1.4s1.3-0.6,1.3-1.4c0-0.8-0.5-1.4-1.3-1.4S212.6,538.6,212.6,539.4z"/>
	</g>
	<g>
		<rect x="160" y="548" fill="#85AFD0" width="264" height="23.8"/>
	</g>
	<g>
		<path d="M176.9,554.3v-0.1h1.3v11.2h-1.4v-8.2h-2.1V556h0.2C176.5,556,176.9,555.5,176.9,554.3z"/>
		<path d="M189,559.8c0,2.9-1.1,5.7-4.1,5.7s-4.1-2.8-4.1-5.7c0-2.9,1.1-5.8,4.1-5.8S189,556.9,189,559.8z M187.6,560.1v-0.7
			c0-2.7-1-4.2-2.6-4.2c-1.6,0-2.6,1.5-2.6,4.2v0.7c0,2.7,1,4.2,2.6,4.2C186.5,564.3,187.6,562.8,187.6,560.1z"/>
		<path d="M192.1,563.4c0.6,0,1.1,0.5,1.1,1.1c0,0.6-0.5,1.1-1.1,1.1s-1.1-0.5-1.1-1.1C191,563.9,191.5,563.4,192.1,563.4z"/>
		<path d="M203.2,559.8c0,2.9-1.1,5.7-4.1,5.7s-4.1-2.8-4.1-5.7c0-2.9,1.1-5.8,4.1-5.8S203.2,556.9,203.2,559.8z M201.8,560.1v-0.7
			c0-2.7-1-4.2-2.6-4.2c-1.6,0-2.6,1.5-2.6,4.2v0.7c0,2.7,1,4.2,2.6,4.2C200.7,564.3,201.8,562.8,201.8,560.1z"/>
		<path d="M205,556.4c0-1.3,1.1-2.4,2.4-2.4c1.3,0,2.4,1,2.4,2.4c0,1.3-1.1,2.4-2.4,2.4C206,558.8,205,557.8,205,556.4z
			 M206.1,556.4c0,0.8,0.5,1.4,1.3,1.4c0.8,0,1.3-0.6,1.3-1.4c0-0.8-0.5-1.4-1.3-1.4C206.6,555.1,206.1,555.6,206.1,556.4z
			 M213.4,554.2h1.3l-6.8,11.2h-1.3L213.4,554.2z M211.5,563.1c0-1.3,1.1-2.4,2.4-2.4s2.4,1,2.4,2.4c0,1.3-1.1,2.4-2.4,2.4
			S211.5,564.5,211.5,563.1z M212.6,563.1c0,0.8,0.5,1.4,1.3,1.4s1.3-0.6,1.3-1.4c0-0.8-0.5-1.4-1.3-1.4S212.6,562.4,212.6,563.1z"
			/>
	</g>
	<g>
		<rect x="160" y="633.5" fill="#85AFD0" width="528" height="23.8"/>
	</g>
	<g>
		<rect x="160" y="609.8" fill="#DBC2A3" width="264" height="23.8"/>
	</g>
	<g>
		<path d="M181.5,621.4l0.6-5.5h6.4v1.2h-5.3l-0.3,3.2c0.6-0.6,1.5-0.9,2.4-0.9c2.1,0,3.7,1.6,3.7,3.8c0,2.4-1.6,4.1-4,4.1
			c-1.8,0-3.4-0.9-3.8-2.7l1.4-0.2c0.3,0.9,1,1.7,2.4,1.7c1.6,0,2.6-1.2,2.6-2.8c0-1.6-1-2.7-2.6-2.7c-0.8,0-1.7,0.4-2.1,1
			L181.5,621.4z"/>
		<path d="M192.1,625.1c0.6,0,1.1,0.5,1.1,1.1c0,0.6-0.5,1.1-1.1,1.1s-1.1-0.5-1.1-1.1C191,625.6,191.5,625.1,192.1,625.1z"/>
		<path d="M203.2,621.5c0,2.9-1.1,5.7-4.1,5.7s-4.1-2.8-4.1-5.7c0-2.9,1.1-5.8,4.1-5.8S203.2,618.6,203.2,621.5z M201.8,621.9v-0.7
			c0-2.7-1-4.2-2.6-4.2c-1.6,0-2.6,1.5-2.6,4.2v0.7c0,2.7,1,4.2,2.6,4.2C200.7,626.1,201.8,624.5,201.8,621.9z"/>
		<path d="M205,618.2c0-1.3,1.1-2.4,2.4-2.4c1.3,0,2.4,1,2.4,2.4c0,1.3-1.1,2.4-2.4,2.4C206,620.5,205,619.5,205,618.2z
			 M206.1,618.2c0,0.8,0.5,1.4,1.3,1.4c0.8,0,1.3-0.6,1.3-1.4c0-0.8-0.5-1.4-1.3-1.4C206.6,616.8,206.1,617.4,206.1,618.2z
			 M213.4,615.9h1.3l-6.8,11.2h-1.3L213.4,615.9z M211.5,624.9c0-1.3,1.1-2.4,2.4-2.4s2.4,1,2.4,2.4c0,1.3-1.1,2.4-2.4,2.4
			S211.5,626.2,211.5,624.9z M212.6,624.9c0,0.8,0.5,1.4,1.3,1.4s1.3-0.6,1.3-1.4c0-0.8-0.5-1.4-1.3-1.4S212.6,624.1,212.6,624.9z"
			/>
	</g>
	<g>
		<rect x="160" y="633.5" fill="#85AFD0" width="264" height="23.8"/>
	</g>
	<g>
		<path d="M176.9,639.8v-0.1h1.3v11.2h-1.4v-8.2h-2.1v-1.2h0.2C176.5,641.5,176.9,641,176.9,639.8z"/>
		<path d="M189,645.3c0,2.9-1.1,5.7-4.1,5.7s-4.1-2.8-4.1-5.7c0-2.9,1.1-5.8,4.1-5.8S189,642.4,189,645.3z M187.6,645.6V645
			c0-2.7-1-4.2-2.6-4.2c-1.6,0-2.6,1.5-2.6,4.2v0.7c0,2.7,1,4.2,2.6,4.2C186.5,649.8,187.6,648.3,187.6,645.6z"/>
		<path d="M192.1,648.9c0.6,0,1.1,0.5,1.1,1.1c0,0.6-0.5,1.1-1.1,1.1s-1.1-0.5-1.1-1.1C191,649.4,191.5,648.9,192.1,648.9z"/>
		<path d="M203.2,645.3c0,2.9-1.1,5.7-4.1,5.7s-4.1-2.8-4.1-5.7c0-2.9,1.1-5.8,4.1-5.8S203.2,642.4,203.2,645.3z M201.8,645.6V645
			c0-2.7-1-4.2-2.6-4.2c-1.6,0-2.6,1.5-2.6,4.2v0.7c0,2.7,1,4.2,2.6,4.2C200.7,649.8,201.8,648.3,201.8,645.6z"/>
		<path d="M205,641.9c0-1.3,1.1-2.4,2.4-2.4c1.3,0,2.4,1,2.4,2.4c0,1.3-1.1,2.4-2.4,2.4C206,644.3,205,643.3,205,641.9z
			 M206.1,641.9c0,0.8,0.5,1.4,1.3,1.4c0.8,0,1.3-0.6,1.3-1.4c0-0.8-0.5-1.4-1.3-1.4C206.6,640.6,206.1,641.1,206.1,641.9z
			 M213.4,639.7h1.3l-6.8,11.2h-1.3L213.4,639.7z M211.5,648.6c0-1.3,1.1-2.4,2.4-2.4s2.4,1,2.4,2.4c0,1.3-1.1,2.4-2.4,2.4
			S211.5,650,211.5,648.6z M212.6,648.6c0,0.8,0.5,1.4,1.3,1.4s1.3-0.6,1.3-1.4c0-0.8-0.5-1.4-1.3-1.4S212.6,647.9,212.6,648.6z"/>
	</g>
	<g>
		<rect x="160" y="206" fill="#85AFD0" width="528" height="23.8"/>
	</g>
	<g>
		<path d="M176.9,212.3v-0.1h1.3v11.2h-1.4v-8.2h-2.1V214h0.2C176.5,214,176.9,213.5,176.9,212.3z"/>
		<path d="M189,217.8c0,2.9-1.1,5.7-4.1,5.7s-4.1-2.8-4.1-5.7c0-2.9,1.1-5.8,4.1-5.8S189,214.9,189,217.8z M187.6,218.1v-0.7
			c0-2.7-1-4.2-2.6-4.2c-1.6,0-2.6,1.5-2.6,4.2v0.7c0,2.7,1,4.2,2.6,4.2C186.5,222.3,187.6,220.8,187.6,218.1z"/>
		<path d="M192.1,221.4c0.6,0,1.1,0.5,1.1,1.1c0,0.6-0.5,1.1-1.1,1.1s-1.1-0.5-1.1-1.1C191,221.9,191.5,221.4,192.1,221.4z"/>
		<path d="M203.2,217.8c0,2.9-1.1,5.7-4.1,5.7s-4.1-2.8-4.1-5.7c0-2.9,1.1-5.8,4.1-5.8S203.2,214.9,203.2,217.8z M201.8,218.1v-0.7
			c0-2.7-1-4.2-2.6-4.2c-1.6,0-2.6,1.5-2.6,4.2v0.7c0,2.7,1,4.2,2.6,4.2C200.7,222.3,201.8,220.8,201.8,218.1z"/>
		<path d="M205,214.4c0-1.3,1.1-2.4,2.4-2.4c1.3,0,2.4,1,2.4,2.4c0,1.3-1.1,2.4-2.4,2.4C206,216.8,205,215.8,205,214.4z
			 M206.1,214.4c0,0.8,0.5,1.4,1.3,1.4c0.8,0,1.3-0.6,1.3-1.4c0-0.8-0.5-1.4-1.3-1.4C206.6,213.1,206.1,213.6,206.1,214.4z
			 M213.4,212.2h1.3l-6.8,11.2h-1.3L213.4,212.2z M211.5,221.1c0-1.3,1.1-2.4,2.4-2.4s2.4,1,2.4,2.4c0,1.3-1.1,2.4-2.4,2.4
			S211.5,222.5,211.5,221.1z M212.6,221.1c0,0.8,0.5,1.4,1.3,1.4s1.3-0.6,1.3-1.4c0-0.8-0.5-1.4-1.3-1.4S212.6,220.4,212.6,221.1z"
			/>
	</g>
	<g>
		<path d="M116.7,725.2h1.7v11.2H117v-9.5l-3.8,5.2h0l-3.8-5.1v9.5h-1.4v-11.2h1.7l3.5,4.8L116.7,725.2z"/>
		<path d="M123.3,736.5c-1.6,0-2.8-0.9-2.8-2.4c0-1.2,0.8-2.1,2.1-2.3l2.8-0.4V731c0-1.2-0.8-1.6-1.8-1.6c-0.9,0-1.7,0.3-2.3,0.6
			l-0.5-1c0.9-0.5,2-0.7,2.9-0.7c1.9,0,3,0.9,3,2.5v3.7c0,0.5,0.2,0.9,0.7,1.1l-0.7,0.9c-0.5-0.1-0.9-0.5-1.1-1
			C125.2,736.1,124.4,736.5,123.3,736.5z M123.4,732.8c-0.9,0.1-1.5,0.4-1.5,1.2c0,0.9,0.8,1.4,1.6,1.4c1,0,2-0.6,2-1.6v-1.4
			L123.4,732.8z"/>
		<path d="M129.3,725.2h1.3v9.4c0,0.5,0.2,0.8,0.8,0.8c0.3,0,0.6,0,0.8,0l0.1,1.1c0,0-0.8,0.1-1.3,0.1c-0.9,0-1.7-0.4-1.7-1.6V725.2
			z"/>
		<path d="M134.6,732.8c0.1,1.5,1,2.6,2.5,2.6c0.9,0,1.5-0.3,2.1-0.8l0.7,0.9c-0.7,0.6-1.7,1-2.8,1c-2.3,0-3.8-1.7-3.8-4.1
			c0-2.4,1.4-4.2,3.6-4.2c2.1,0,3.4,1.7,3.4,4.1v0.4H134.6z M134.6,731.7h4.2c0-1.2-0.7-2.4-2-2.4
			C135.5,729.4,134.7,730.5,134.6,731.7z"/>
	</g>
	<g>
		<rect x="687.5" y="206" fill="#005EA5" width="1" height="23.8"/>
	</g>
	<g>
		<rect x="160" y="719" fill="#85AFD0" width="528" height="23.8"/>
	</g>
	<g>
		<rect x="160" y="695.2" fill="#DBC2A3" width="264" height="23.8"/>
	</g>
	<g>
		<path d="M181.5,706.9l0.6-5.5h6.4v1.2h-5.3l-0.3,3.2c0.6-0.6,1.5-0.9,2.4-0.9c2.1,0,3.7,1.6,3.7,3.8c0,2.4-1.6,4.1-4,4.1
			c-1.8,0-3.4-0.9-3.8-2.7l1.4-0.2c0.3,0.9,1,1.7,2.4,1.7c1.6,0,2.6-1.2,2.6-2.8c0-1.6-1-2.7-2.6-2.7c-0.8,0-1.7,0.4-2.1,1
			L181.5,706.9z"/>
		<path d="M192.1,710.6c0.6,0,1.1,0.5,1.1,1.1c0,0.6-0.5,1.1-1.1,1.1s-1.1-0.5-1.1-1.1C191,711.1,191.5,710.6,192.1,710.6z"/>
		<path d="M203.2,707c0,2.9-1.1,5.7-4.1,5.7s-4.1-2.8-4.1-5.7c0-2.9,1.1-5.8,4.1-5.8S203.2,704.1,203.2,707z M201.8,707.4v-0.7
			c0-2.7-1-4.2-2.6-4.2c-1.6,0-2.6,1.5-2.6,4.2v0.7c0,2.7,1,4.2,2.6,4.2C200.7,711.6,201.8,710,201.8,707.4z"/>
		<path d="M205,703.7c0-1.3,1.1-2.4,2.4-2.4c1.3,0,2.4,1,2.4,2.4c0,1.3-1.1,2.4-2.4,2.4C206,706,205,705,205,703.7z M206.1,703.7
			c0,0.8,0.5,1.4,1.3,1.4c0.8,0,1.3-0.6,1.3-1.4c0-0.8-0.5-1.4-1.3-1.4C206.6,702.3,206.1,702.9,206.1,703.7z M213.4,701.4h1.3
			l-6.8,11.2h-1.3L213.4,701.4z M211.5,710.4c0-1.3,1.1-2.4,2.4-2.4s2.4,1,2.4,2.4c0,1.3-1.1,2.4-2.4,2.4S211.5,711.7,211.5,710.4z
			 M212.6,710.4c0,0.8,0.5,1.4,1.3,1.4s1.3-0.6,1.3-1.4c0-0.8-0.5-1.4-1.3-1.4S212.6,709.6,212.6,710.4z"/>
	</g>
	<g>
		<rect x="160" y="719" fill="#85AFD0" width="264" height="23.8"/>
	</g>
	<g>
		<path d="M176.9,725.3v-0.1h1.3v11.2h-1.4v-8.2h-2.1V727h0.2C176.5,727,176.9,726.5,176.9,725.3z"/>
		<path d="M189,730.8c0,2.9-1.1,5.7-4.1,5.7s-4.1-2.8-4.1-5.7c0-2.9,1.1-5.8,4.1-5.8S189,727.9,189,730.8z M187.6,731.1v-0.7
			c0-2.7-1-4.2-2.6-4.2c-1.6,0-2.6,1.5-2.6,4.2v0.7c0,2.7,1,4.2,2.6,4.2C186.5,735.3,187.6,733.8,187.6,731.1z"/>
		<path d="M192.1,734.4c0.6,0,1.1,0.5,1.1,1.1c0,0.6-0.5,1.1-1.1,1.1s-1.1-0.5-1.1-1.1C191,734.9,191.5,734.4,192.1,734.4z"/>
		<path d="M203.2,730.8c0,2.9-1.1,5.7-4.1,5.7s-4.1-2.8-4.1-5.7c0-2.9,1.1-5.8,4.1-5.8S203.2,727.9,203.2,730.8z M201.8,731.1v-0.7
			c0-2.7-1-4.2-2.6-4.2c-1.6,0-2.6,1.5-2.6,4.2v0.7c0,2.7,1,4.2,2.6,4.2C200.7,735.3,201.8,733.8,201.8,731.1z"/>
		<path d="M205,727.4c0-1.3,1.1-2.4,2.4-2.4c1.3,0,2.4,1,2.4,2.4c0,1.3-1.1,2.4-2.4,2.4C206,729.8,205,728.8,205,727.4z
			 M206.1,727.4c0,0.8,0.5,1.4,1.3,1.4c0.8,0,1.3-0.6,1.3-1.4c0-0.8-0.5-1.4-1.3-1.4C206.6,726.1,206.1,726.6,206.1,727.4z
			 M213.4,725.2h1.3l-6.8,11.2h-1.3L213.4,725.2z M211.5,734.1c0-1.3,1.1-2.4,2.4-2.4s2.4,1,2.4,2.4c0,1.3-1.1,2.4-2.4,2.4
			S211.5,735.5,211.5,734.1z M212.6,734.1c0,0.8,0.5,1.4,1.3,1.4s1.3-0.6,1.3-1.4c0-0.8-0.5-1.4-1.3-1.4S212.6,733.4,212.6,734.1z"
			/>
	</g>
	<g>
		<rect x="159.5" y="73" width="1" height="674.5"/>
	</g>
	<g>
		<rect x="423.5" y="73" fill="#005EA5" width="1" height="674.5"/>
	</g>
</g>
</svg>
