<?xml version="1.0" encoding="utf-8"?>
<!-- Generator: Adobe Illustrator 21.0.2, SVG Export Plug-In . SVG Version: 6.00 Build 0)  -->
<svg version="1.2" baseProfile="tiny" xmlns="http://www.w3.org/2000/svg" xmlns:xlink="http://www.w3.org/1999/xlink" x="0px"
	 y="0px" viewBox="0 0 960 589" xml:space="preserve">
<g id="Layer_2">
	<rect fill="#FFFFFF" width="960" height="589"/>
</g>
<g id="Layer_1">
	<g>
		<rect x="212.3" y="96" fill="#BFBFBF" width="1" height="436"/>
	</g>
	<g>
		<rect x="265.1" y="96" fill="#BFBFBF" width="1" height="436"/>
	</g>
	<g>
		<rect x="317.9" y="96" fill="#BFBFBF" width="1" height="436"/>
	</g>
	<g>
		<rect x="370.7" y="96" fill="#BFBFBF" width="1" height="436"/>
	</g>
	<g>
		<rect x="423.5" y="96" fill="#BFBFBF" width="1" height="436"/>
	</g>
	<g>
		<rect x="476.3" y="96" fill="#BFBFBF" width="1" height="436"/>
	</g>
	<g>
		<rect x="529.1" y="96" fill="#BFBFBF" width="1" height="436"/>
	</g>
	<g>
		<rect x="581.9" y="96" fill="#BFBFBF" width="1" height="436"/>
	</g>
	<g>
		<rect x="634.7" y="96" fill="#BFBFBF" width="1" height="436"/>
	</g>
	<g>
		<rect x="687.5" y="96" fill="#BFBFBF" width="1" height="436"/>
	</g>
	<g>
		<rect x="740.3" y="96" fill="#BFBFBF" width="1" height="436"/>
	</g>
	<g>
		<rect x="793.1" y="96" fill="#BFBFBF" width="1" height="436"/>
	</g>
	<g>
		<rect x="845.9" y="96" fill="#BFBFBF" width="1" height="436"/>
	</g>
	<g>
		<rect x="898.7" y="96" fill="#BFBFBF" width="1" height="436"/>
	</g>
	<g>
		<rect x="951.5" y="96" fill="#BFBFBF" width="1" height="436"/>
	</g>
	<g>
		<rect x="160" y="199.5" fill="#85AFD0" width="264" height="38"/>
	</g>
	<g>
		<rect x="423.5" y="199.5" fill="#005EA5" width="1" height="38"/>
	</g>
	<g>
		<rect x="160" y="427.5" fill="#85AFD0" width="264" height="38"/>
	</g>
	<g>
		<rect x="423.5" y="427.5" fill="#005EA5" width="1" height="38"/>
	</g>
	<g>
		<rect x="160" y="256.5" fill="#85AFD0" width="528" height="38"/>
	</g>
	<g>
		<rect x="160" y="313.5" fill="#85AFD0" width="528" height="38"/>
	</g>
	<g>
		<rect x="687.5" y="256.5" fill="#005EA5" width="1" height="38"/>
	</g>
	<g>
		<rect x="687.5" y="313.5" fill="#005EA5" width="1" height="38"/>
	</g>
	<g>
		<rect x="160" y="370.5" fill="#85AFD0" width="528" height="38"/>
	</g>
	<g>
		<rect x="687.5" y="370.5" fill="#005EA5" width="1" height="38"/>
	</g>
	<g>
		<rect x="160" y="105.5" fill="#85AFD0" width="528" height="38"/>
	</g>
	<g>
		<rect x="160" y="152.5" fill="#85AFD0" width="528" height="38"/>
	</g>
	<g>
		<rect x="160" y="484.5" fill="#85AFD0" width="475.2" height="38"/>
	</g>
	<g>
		<path d="M93.3,122.8h1.4V134h-1.4V122.8z"/>
		<path d="M97.4,126h1.3v0.9c0.5-0.7,1.4-1.1,2.3-1.1c1.8,0,2.7,1.3,2.7,2.7v5.4h-1.3v-5c0-1.4-0.7-1.9-1.6-1.9c-1,0-2,0.7-2,2.2
			v4.7h-1.3V126z"/>
		<path d="M111.5,133.1c-0.5,0.7-1.3,1.1-2.3,1.1c-2.1,0-3.4-1.7-3.4-4.1c0-2.4,1.3-4.2,3.4-4.2c1,0,1.9,0.4,2.3,1.1v-4.1h1.3V134
			h-1.3V133.1z M107.1,130c0,1.7,0.8,2.9,2.3,2.9c1.4,0,2.1-1,2.1-2.3v-1.3c0-1.3-0.7-2.3-2.1-2.3C107.9,127,107.1,128.3,107.1,130
			L107.1,130z"/>
		<path d="M116.1,122.8c0.5,0,1,0.4,1,1c0,0.5-0.4,1-1,1c-0.5,0-1-0.4-1-1C115.1,123.2,115.5,122.8,116.1,122.8z M116.7,134h-1.3v-8
			h1.3V134z"/>
		<path d="M121.4,134.2c-1.6,0-2.8-0.9-2.8-2.4c0-1.2,0.8-2.1,2.1-2.3l2.8-0.4v-0.5c0-1.2-0.8-1.6-1.8-1.6c-0.9,0-1.7,0.3-2.3,0.6
			l-0.5-1c0.9-0.5,2-0.7,2.9-0.7c1.9,0,3,0.9,3,2.5v3.7c0,0.5,0.2,0.9,0.7,1.1l-0.7,0.9c-0.5-0.1-0.9-0.5-1.1-1
			C123.3,133.7,122.5,134.2,121.4,134.2z M121.5,130.4c-0.9,0.1-1.5,0.4-1.5,1.2c0,0.9,0.8,1.4,1.6,1.4c1,0,2-0.6,2-1.6v-1.4
			L121.5,130.4z"/>
		<path d="M127.5,126h1.3v0.9c0.5-0.7,1.4-1.1,2.3-1.1c1.8,0,2.7,1.3,2.7,2.7v5.4h-1.3v-5c0-1.4-0.7-1.9-1.6-1.9c-1,0-2,0.7-2,2.2
			v4.7h-1.3V126z"/>
	</g>
	<g>
		<path d="M284.4,47.5h-4.5l-0.7,2.5h-1.5l3.5-11.2h2l3.5,11.2h-1.5L284.4,47.5z M280.2,46.3h3.8l-1.9-6.3h-0.1L280.2,46.3z"/>
		<path d="M289.9,50l-2.5-8h1.5l1.9,6.8l1.9-6.8h1.5l-2.5,8H289.9z"/>
		<path d="M296.6,46.4c0.1,1.5,1,2.6,2.5,2.6c0.9,0,1.5-0.3,2.1-0.8l0.7,0.9c-0.7,0.6-1.7,1-2.8,1c-2.3,0-3.8-1.7-3.8-4.1
			c0-2.4,1.4-4.2,3.6-4.2c2.1,0,3.4,1.7,3.4,4.1v0.4H296.6z M296.6,45.4h4.2c0-1.2-0.7-2.4-2-2.4C297.5,43,296.7,44.1,296.6,45.4z"
			/>
		<path d="M308.4,43.2h-0.2c-1.3,0-2.6,0.5-2.6,2.7V50h-1.3v-8h1.3v1.3c0.4-0.9,1.4-1.4,2.4-1.4h0.4V43.2z"/>
		<path d="M312.2,50.2c-1.6,0-2.8-0.9-2.8-2.4c0-1.2,0.8-2.1,2.1-2.3l2.8-0.4v-0.5c0-1.2-0.8-1.6-1.8-1.6c-0.9,0-1.7,0.3-2.3,0.6
			l-0.5-1c0.9-0.5,2-0.7,2.9-0.7c1.9,0,3,0.9,3,2.5v3.7c0,0.5,0.2,0.9,0.7,1.1l-0.7,0.9c-0.5-0.1-0.9-0.5-1.1-1
			C314.1,49.7,313.3,50.2,312.2,50.2z M312.3,46.4c-0.9,0.1-1.5,0.4-1.5,1.2c0,0.9,0.8,1.4,1.6,1.4c1,0,2-0.6,2-1.6v-1.4L312.3,46.4
			z"/>
		<path d="M321,41.9c0.9,0,1.7,0.3,2.3,1.1V42h1.3v8.1c0,2-1.7,2.6-3.4,2.6c-0.9,0-2.1-0.2-3-0.6l0.4-1.1c0.6,0.3,1.6,0.6,2.5,0.6
			c1.3,0,2.1-0.5,2.1-1.7v-1.5c-0.5,0.8-1.4,1.1-2.3,1.1c-2,0-3.2-1.6-3.2-3.7C317.8,43.5,319.1,41.9,321,41.9z M323.3,45.5
			c0-1.4-0.6-2.5-2-2.5c-1.5,0-2.1,1.1-2.1,2.5v0.1c0,1.4,0.7,2.5,2.1,2.5C322.7,48.1,323.3,47,323.3,45.5L323.3,45.5z"/>
		<path d="M328.1,46.4c0.1,1.5,1,2.6,2.5,2.6c0.9,0,1.5-0.3,2.1-0.8l0.7,0.9c-0.7,0.6-1.7,1-2.8,1c-2.3,0-3.8-1.7-3.8-4.1
			c0-2.4,1.4-4.2,3.6-4.2c2.1,0,3.4,1.7,3.4,4.1v0.4H328.1z M328.1,45.4h4.2c0-1.2-0.7-2.4-2-2.4C329,43,328.1,44.1,328.1,45.4z"/>
		<path d="M341.6,42h1.6v1.2h-1.6V50h-1.3v-6.8h-1.3V42h1.3v-1.5c0-1.4,0.9-1.9,2.2-1.9c0.6,0,1.1,0.1,1.3,0.1l-0.1,1.1
			c-0.3,0-0.9-0.1-1.1-0.1c-0.8,0-0.9,0.5-0.9,1V42z"/>
		<path d="M351.7,46c0,2.4-1.5,4.1-3.7,4.1s-3.7-1.7-3.7-4.1c0-2.4,1.5-4.2,3.7-4.2S351.7,43.6,351.7,46z M350.4,46.1L350.4,46.1
			c0-1.7-0.8-3.1-2.3-3.1s-2.3,1.4-2.3,3v0.1c0,1.6,0.8,2.9,2.3,2.9S350.4,47.6,350.4,46.1z"/>
		<path d="M357.9,43.2h-0.2c-1.3,0-2.6,0.5-2.6,2.7V50h-1.3v-8h1.3v1.3c0.4-0.9,1.4-1.4,2.4-1.4h0.4V43.2z"/>
		<path d="M363.7,38.8h6.7V40h-5.3v3.7h4.9v1.2h-4.9v4h5.6V50h-7V38.8z"/>
		<path d="M372.8,42h1.3v0.9c0.5-0.7,1.4-1.1,2.3-1.1c1.8,0,2.7,1.3,2.7,2.7V50h-1.3v-5c0-1.4-0.7-1.9-1.6-1.9c-1,0-2,0.7-2,2.2V50
			h-1.3V42z"/>
		<path d="M384.4,41.9c0.9,0,1.7,0.3,2.3,1.1V42h1.3v8.1c0,2-1.7,2.6-3.4,2.6c-0.9,0-2.1-0.2-3-0.6l0.4-1.1c0.6,0.3,1.6,0.6,2.5,0.6
			c1.3,0,2.1-0.5,2.1-1.7v-1.5c-0.5,0.8-1.4,1.1-2.3,1.1c-2,0-3.2-1.6-3.2-3.7C381.2,43.5,382.4,41.9,384.4,41.9z M386.7,45.5
			c0-1.4-0.6-2.5-2-2.5c-1.5,0-2.1,1.1-2.1,2.5v0.1c0,1.4,0.7,2.5,2.1,2.5C386.1,48.1,386.7,47,386.7,45.5L386.7,45.5z"/>
		<path d="M390.5,38.8h1.3v9.4c0,0.5,0.2,0.8,0.8,0.8c0.3,0,0.6,0,0.8,0l0.1,1.1c0,0-0.8,0.1-1.3,0.1c-0.9,0-1.7-0.4-1.7-1.6V38.8z"
			/>
		<path d="M397.1,50.2c-1.6,0-2.8-0.9-2.8-2.4c0-1.2,0.8-2.1,2.1-2.3l2.8-0.4v-0.5c0-1.2-0.8-1.6-1.8-1.6c-0.9,0-1.7,0.3-2.3,0.6
			l-0.5-1c0.9-0.5,2-0.7,2.9-0.7c1.9,0,3,0.9,3,2.5v3.7c0,0.5,0.2,0.9,0.7,1.1l-0.7,0.9c-0.5-0.1-0.9-0.5-1.1-1
			C399,49.7,398.2,50.2,397.1,50.2z M397.1,46.4c-0.9,0.1-1.5,0.4-1.5,1.2c0,0.9,0.8,1.4,1.6,1.4c1,0,2-0.6,2-1.6v-1.4L397.1,46.4z"
			/>
		<path d="M403.1,42h1.3v0.9c0.5-0.7,1.4-1.1,2.3-1.1c1.8,0,2.7,1.3,2.7,2.7V50h-1.3v-5c0-1.4-0.7-1.9-1.6-1.9c-1,0-2,0.7-2,2.2V50
			h-1.3V42z"/>
		<path d="M417.2,49.1c-0.5,0.7-1.3,1.1-2.3,1.1c-2.1,0-3.4-1.7-3.4-4.1c0-2.4,1.3-4.2,3.4-4.2c1,0,1.9,0.4,2.3,1.1v-4.1h1.3V50
			h-1.3V49.1z M412.8,46c0,1.7,0.8,2.9,2.3,2.9c1.4,0,2.1-1,2.1-2.3v-1.3c0-1.3-0.7-2.3-2.1-2.3C413.6,43,412.8,44.3,412.8,46
			L412.8,46z"/>
		<path d="M388.5,63.3l0.6-5.5h6.4V59h-5.3l-0.3,3.2c0.6-0.6,1.5-0.9,2.4-0.9c2.1,0,3.7,1.6,3.7,3.8c0,2.4-1.6,4.1-4,4.1
			c-1.8,0-3.4-0.9-3.8-2.7l1.4-0.2c0.3,0.9,1,1.7,2.4,1.7c1.6,0,2.6-1.2,2.6-2.8c0-1.6-1-2.7-2.6-2.7c-0.8,0-1.7,0.4-2.1,1
			L388.5,63.3z"/>
		<path d="M399.1,67c0.6,0,1.1,0.5,1.1,1.1c0,0.6-0.5,1.1-1.1,1.1s-1.1-0.5-1.1-1.1C398,67.5,398.5,67,399.1,67z"/>
		<path d="M410.2,63.4c0,2.9-1.1,5.7-4.1,5.7s-4.1-2.8-4.1-5.7c0-2.9,1.1-5.8,4.1-5.8S410.2,60.5,410.2,63.4z M408.8,63.7v-0.7
			c0-2.7-1-4.2-2.6-4.2c-1.6,0-2.6,1.5-2.6,4.2v0.7c0,2.7,1,4.2,2.6,4.2C407.7,68,408.8,66.4,408.8,63.7z"/>
		<path d="M412,60c0-1.3,1.1-2.4,2.4-2.4c1.3,0,2.4,1,2.4,2.4c0,1.3-1.1,2.4-2.4,2.4C413,62.4,412,61.4,412,60z M413.1,60
			c0,0.8,0.5,1.4,1.3,1.4c0.8,0,1.3-0.6,1.3-1.4c0-0.8-0.5-1.4-1.3-1.4C413.6,58.7,413.1,59.3,413.1,60z M420.4,57.8h1.3L414.8,69
			h-1.3L420.4,57.8z M418.5,66.8c0-1.3,1.1-2.4,2.4-2.4s2.4,1,2.4,2.4c0,1.3-1.1,2.4-2.4,2.4S418.5,68.1,418.5,66.8z M419.6,66.8
			c0,0.8,0.5,1.4,1.3,1.4s1.3-0.6,1.3-1.4c0-0.8-0.5-1.4-1.3-1.4S419.6,66,419.6,66.8z"/>
	</g>
	<g>
		<path d="M72,169.8H76c2.1,0,3.5,1.5,3.5,3.5c0,2.1-1.5,3.5-3.6,3.5h-2.4v4.2H72V169.8z M75.7,171h-2.3v4.7h2.3
			c1.4,0,2.3-1,2.3-2.3v-0.1C78,172,77.1,171,75.7,171z"/>
		<path d="M83.4,181.2c-1.6,0-2.8-0.9-2.8-2.4c0-1.2,0.8-2.1,2.1-2.3l2.8-0.4v-0.5c0-1.2-0.8-1.6-1.8-1.6c-0.9,0-1.7,0.3-2.3,0.6
			l-0.5-1c0.9-0.5,2-0.7,2.9-0.7c1.9,0,3,0.9,3,2.5v3.7c0,0.5,0.2,0.9,0.7,1.1l-0.7,0.9c-0.5-0.1-0.9-0.5-1.1-1
			C85.3,180.7,84.5,181.2,83.4,181.2z M83.4,177.4c-0.9,0.1-1.5,0.4-1.5,1.2c0,0.9,0.8,1.4,1.6,1.4c1,0,2-0.6,2-1.6v-1.4L83.4,177.4
			z"/>
		<path d="M90.7,176.9l3.8-3.9h1.6l-3,3.2l3.2,4.8h-1.6l-2.5-3.9l-1.4,1.5v2.5h-1.3v-11.2h1.3V176.9z"/>
		<path d="M98.6,169.8c0.5,0,1,0.4,1,1c0,0.5-0.4,1-1,1c-0.5,0-1-0.4-1-1C97.6,170.2,98.1,169.8,98.6,169.8z M99.2,181h-1.3v-8h1.3
			V181z"/>
		<path d="M101.1,180l0.8-0.9c0.5,0.4,1.3,1,2.4,1c0.9,0,1.6-0.4,1.6-1.2c0-0.9-0.9-1.1-2-1.3c-1.1-0.3-2.5-0.7-2.5-2.3
			c0-1.3,1.2-2.3,2.9-2.3c1.1,0,2.2,0.4,2.8,1l-0.8,0.9c-0.5-0.4-1.2-0.8-2-0.8c-1.1,0-1.6,0.5-1.6,1.2c0,0.6,0.4,0.9,1.2,1.1
			c0.4,0.1,0.9,0.3,1.3,0.4c1.1,0.3,2,0.9,2,2.2c0,1.6-1.5,2.4-3,2.4C103.2,181.2,102,180.8,101.1,180z"/>
		<path d="M111.4,179c0,0.5,0.1,1,1,1c0.2,0,0.8,0,1-0.1l0.1,1.2c0,0-0.8,0.1-1.4,0.1c-1.3,0-2-0.5-2-1.9v-5.1h-1.5V173h1.5v-2.6
			l1.3-0.5v3.1h2.2v1.2h-2.2V179z"/>
		<path d="M117.6,181.2c-1.6,0-2.8-0.9-2.8-2.4c0-1.2,0.8-2.1,2.1-2.3l2.8-0.4v-0.5c0-1.2-0.8-1.6-1.8-1.6c-0.9,0-1.7,0.3-2.3,0.6
			l-0.5-1c0.9-0.5,2-0.7,2.9-0.7c1.9,0,3,0.9,3,2.5v3.7c0,0.5,0.2,0.9,0.7,1.1l-0.7,0.9c-0.5-0.1-0.9-0.5-1.1-1
			C119.4,180.7,118.7,181.2,117.6,181.2z M117.6,177.4c-0.9,0.1-1.5,0.4-1.5,1.2c0,0.9,0.8,1.4,1.6,1.4c1,0,2-0.6,2-1.6v-1.4
			L117.6,177.4z"/>
		<path d="M123.6,173h1.3v0.9c0.5-0.7,1.4-1.1,2.3-1.1c1.8,0,2.7,1.3,2.7,2.7v5.4h-1.3v-5c0-1.4-0.7-1.9-1.6-1.9c-1,0-2,0.7-2,2.2
			v4.7h-1.3V173z"/>
		<path d="M133.1,169.8c0.5,0,1,0.4,1,1c0,0.5-0.4,1-1,1c-0.5,0-1-0.4-1-1C132.1,170.2,132.5,169.8,133.1,169.8z M133.7,181h-1.3v-8
			h1.3V181z"/>
	</g>
	<g>
		<path d="M50.2,94.4h-6.5L42.9,97h-3.6l5.5-16.8h4.5L54.8,97H51L50.2,94.4z M44.6,91.4h4.7l-2.3-7.6h0L44.6,91.4z"/>
		<path d="M56.5,80.2h3.2v13.4c0,0.5,0.3,0.8,1,0.8c0.4,0,0.9,0,1.2-0.1l0.3,2.8c0,0-1.5,0.2-2.7,0.2c-1.8,0-3-1-3-2.8V80.2z"/>
		<path d="M63.6,80.2h3.2v13.4c0,0.5,0.3,0.8,1,0.8c0.4,0,0.9,0,1.2-0.1l0.3,2.8c0,0-1.5,0.2-2.7,0.2c-1.8,0-3-1-3-2.8V80.2z"/>
		<path d="M85.2,94.4h-6.5L77.8,97h-3.6l5.5-16.8h4.5L89.8,97H86L85.2,94.4z M79.5,91.4h4.7l-2.3-7.6h0L79.5,91.4z"/>
		<path d="M92.5,93c0.9,0.8,2.4,1.5,3.7,1.5c1,0,1.8-0.3,1.8-1c0-0.6-0.5-0.8-1.5-1.1c-0.7-0.2-2.1-0.4-3.1-0.9
			c-1.2-0.5-2.2-1.5-2.2-3.3c0-2.7,2.4-4,5.2-4c2.1,0,4,0.8,5,1.8l-2.1,2.1c-0.7-0.6-1.7-1.2-2.9-1.2c-0.9,0-1.8,0.3-1.8,1.1
			c0,0.6,0.6,0.8,1.5,1c1.6,0.4,2.7,0.7,3.6,1.2c1,0.5,1.8,1.6,1.8,3c0,2.7-2.3,4-5.1,4c-2,0-4.4-0.8-5.7-1.9L92.5,93z"/>
		<path d="M105.3,79.6c1.1,0,2,0.9,2,2s-0.9,2-2,2c-1.1,0-2-0.9-2-2S104.2,79.6,105.3,79.6z M106.9,97h-3.2V84.4h3.2V97z"/>
		<path d="M113.5,97.2c-2.3,0-4.3-1.4-4.3-3.9c0-2,1.3-3.4,3.5-3.7l3.8-0.5v-0.4c0-1.1-0.7-1.6-2-1.6c-1.6,0-2.8,0.6-3.7,1l-1.3-2.5
			c1.5-0.8,3.2-1.4,5.1-1.4c2.3,0,5.1,0.6,5.1,4v5.4c0,0.7,0.4,1,1.1,1.3l-1.5,2.3c-1.2-0.1-2-0.7-2.4-1.4
			C116.3,96.8,115,97.2,113.5,97.2z M113.9,91.9c-0.8,0.1-1.3,0.6-1.3,1.3c0,0.8,0.6,1.5,1.7,1.5c1.5,0,2.2-1,2.2-2.3v-0.9
			L113.9,91.9z"/>
		<path d="M122.8,84.4h3.2v1.1c0.7-0.7,1.7-1.3,3.2-1.3c2.7,0,4.3,1.9,4.3,4.3V97h-3.2v-7.3c0-1.8-0.8-2.4-2-2.4
			c-1.3,0-2.3,0.9-2.3,2.9V97h-3.2V84.4z"/>
	</g>
	<g>
		<path d="M58.1,216.7c3,0,4.9,2.5,4.9,5.8s-1.9,5.7-4.9,5.7s-4.9-2.5-4.9-5.7S55,216.7,58.1,216.7z M61.5,222.3
			c0-2.3-1-4.4-3.4-4.4s-3.4,2.1-3.4,4.4v0.2c0,2.3,1,4.4,3.4,4.4s3.4-2.1,3.4-4.4V222.3z"/>
		<path d="M67.3,226c0,0.5,0.1,1,1,1c0.2,0,0.8,0,1-0.1l0.1,1.2c0,0-0.8,0.1-1.4,0.1c-1.3,0-2-0.5-2-1.9v-5.1h-1.5V220h1.5v-2.6
			l1.3-0.5v3.1h2.2v1.2h-2.2V226z"/>
		<path d="M71.3,216.8h1.3v4.1c0.5-0.7,1.4-1.1,2.3-1.1c1.8,0,2.7,1.3,2.7,2.7v5.4h-1.3v-5c0-1.4-0.7-1.9-1.6-1.9c-1,0-2,0.7-2,2.2
			v4.7h-1.3V216.8z"/>
		<path d="M81,224.4c0.1,1.5,1,2.6,2.5,2.6c0.9,0,1.5-0.3,2.1-0.8l0.7,0.9c-0.7,0.6-1.7,1-2.8,1c-2.3,0-3.8-1.7-3.8-4.1
			c0-2.4,1.4-4.2,3.6-4.2c2.1,0,3.4,1.7,3.4,4.1v0.4H81z M81,223.4h4.2c0-1.2-0.7-2.4-2-2.4C81.9,221,81,222.1,81,223.4z"/>
		<path d="M92.7,221.2h-0.2c-1.3,0-2.6,0.5-2.6,2.7v4.1h-1.3v-8h1.3v1.3c0.4-0.9,1.4-1.4,2.4-1.4h0.4V221.2z"/>
		<path d="M103.8,225.5h-4.5l-0.7,2.5h-1.5l3.5-11.2h2l3.5,11.2h-1.5L103.8,225.5z M99.7,224.3h3.8l-1.9-6.3h-0.1L99.7,224.3z"/>
		<path d="M107.2,227l0.8-0.9c0.5,0.4,1.3,1,2.4,1c0.9,0,1.6-0.4,1.6-1.2c0-0.9-0.9-1.1-2-1.3c-1.1-0.3-2.5-0.7-2.5-2.3
			c0-1.3,1.2-2.3,2.9-2.3c1.1,0,2.2,0.4,2.8,1l-0.8,0.9c-0.5-0.4-1.2-0.8-2-0.8c-1.1,0-1.6,0.5-1.6,1.2c0,0.6,0.4,0.9,1.2,1.1
			c0.4,0.1,0.9,0.3,1.3,0.4c1.1,0.3,2,0.9,2,2.2c0,1.6-1.5,2.4-3,2.4C109.2,228.2,108.1,227.8,107.2,227z"/>
		<path d="M116.1,216.8c0.5,0,1,0.4,1,1c0,0.5-0.4,1-1,1c-0.5,0-1-0.4-1-1C115.1,217.2,115.5,216.8,116.1,216.8z M116.7,228h-1.3v-8
			h1.3V228z"/>
		<path d="M121.5,228.2c-1.6,0-2.8-0.9-2.8-2.4c0-1.2,0.8-2.1,2.1-2.3l2.8-0.4v-0.5c0-1.2-0.8-1.6-1.8-1.6c-0.9,0-1.7,0.3-2.3,0.6
			l-0.5-1c0.9-0.5,2-0.7,2.9-0.7c1.9,0,3,0.9,3,2.5v3.7c0,0.5,0.2,0.9,0.7,1.1l-0.7,0.9c-0.5-0.1-0.9-0.5-1.1-1
			C123.3,227.7,122.5,228.2,121.5,228.2z M121.5,224.4c-0.9,0.1-1.5,0.4-1.5,1.2c0,0.9,0.8,1.4,1.6,1.4c1,0,2-0.6,2-1.6v-1.4
			L121.5,224.4z"/>
		<path d="M127.5,220h1.3v0.9c0.5-0.7,1.4-1.1,2.3-1.1c1.8,0,2.7,1.3,2.7,2.7v5.4h-1.3v-5c0-1.4-0.7-1.9-1.6-1.9c-1,0-2,0.7-2,2.2
			v4.7h-1.3V220z"/>
	</g>
	<g>
		<path d="M81.4,268.2c2.8,0,4.9,1.7,4.9,4.4c0,1.4-0.8,2.7-2.2,3.4c1.1,0.4,3.2,1.4,3.2,4.2c0,3.4-2.8,4.9-6.1,4.9h-7.4v-16.8H81.4
			z M80.4,270.9h-3v4h3c1.8,0,2.6-0.7,2.6-1.9C82.9,271.7,82.2,270.9,80.4,270.9z M81,277.7h-3.7v4.6H81c1.4,0,2.9-0.5,2.9-2.3
			C83.9,278.2,82.4,277.7,81,277.7z"/>
		<path d="M89.7,268.2H93v13.4c0,0.5,0.3,0.8,1,0.8c0.4,0,0.9,0,1.2-0.1l0.3,2.8c0,0-1.5,0.2-2.7,0.2c-1.8,0-3-1-3-2.8V268.2z"/>
		<path d="M100.5,285.2c-2.3,0-4.3-1.4-4.3-3.9c0-2,1.3-3.4,3.5-3.7l3.8-0.5v-0.4c0-1.1-0.7-1.6-2-1.6c-1.6,0-2.8,0.6-3.7,1
			l-1.3-2.5c1.5-0.8,3.2-1.4,5.1-1.4c2.3,0,5.1,0.6,5.1,4v5.4c0,0.7,0.4,1,1.1,1.3l-1.5,2.3c-1.2-0.1-2-0.7-2.4-1.4
			C103.2,284.8,102,285.2,100.5,285.2z M100.9,279.9c-0.8,0.1-1.3,0.6-1.3,1.3c0,0.8,0.6,1.5,1.7,1.5c1.5,0,2.2-1,2.2-2.3v-0.9
			L100.9,279.9z"/>
		<path d="M109.2,278.7c0-3.7,2.5-6.5,6.1-6.5c2.6,0,4.6,1.3,5.4,3.2l-2.9,1.5c-0.5-1-1.2-1.7-2.5-1.7c-2,0-2.8,1.8-2.8,3.5v0.1
			c0,1.6,0.8,3.4,2.8,3.4c1.3,0,2-0.7,2.5-1.7l2.9,1.5c-0.8,2-3,3.2-5.5,3.2C111.6,285.2,109.2,282.5,109.2,278.7L109.2,278.7z"/>
		<path d="M126.1,277.4l4.4-4.9h4.2l-4.9,5.1l5,7.4h-4l-3.3-5.1l-1.4,1.5v3.7h-3.2v-16.8h3.2V277.4z"/>
	</g>
	<g>
		<path d="M46.8,333.6c0-4.8,3-8.6,7.9-8.6c3.5,0,6,1.9,7,4.8l-3.2,1.1c-0.4-1.2-1.6-2.8-3.7-2.8c-3,0-4.4,2.7-4.4,5.4v0.1
			c0,2.8,1.3,5.5,4.4,5.5c2.1,0,3.4-1.5,3.7-2.8l3.3,1.1c-1,2.9-3.5,4.8-7,4.8C49.8,342.2,46.8,338.4,46.8,333.6z"/>
		<path d="M64,325.2h3.2v5.3c0.7-0.7,1.7-1.3,3.2-1.3c2.7,0,4.3,1.9,4.3,4.3v8.5h-3.2v-7.3c0-1.8-0.8-2.4-2-2.4
			c-1.3,0-2.3,0.9-2.3,2.9v6.9H64V325.2z"/>
		<path d="M79.3,324.6c1.1,0,2,0.9,2,2s-0.9,2-2,2c-1.1,0-2-0.9-2-2S78.1,324.6,79.3,324.6z M80.9,342h-3.2v-12.6h3.2V342z"/>
		<path d="M83.9,329.4h3.2v1.1c0.7-0.7,1.7-1.3,3.2-1.3c2.7,0,4.3,1.9,4.3,4.3v8.5h-3.2v-7.3c0-1.8-0.8-2.4-2-2.4
			c-1.3,0-2.3,0.9-2.3,2.9v6.9h-3.2V329.4z"/>
		<path d="M100.3,336.8c0.3,1.6,1.6,2.4,3,2.4c1.2,0,2.3-0.4,3.2-1.2l1.6,2.4c-1.1,0.9-2.8,1.7-4.9,1.7c-3.5,0-6.3-2.4-6.3-6.4v-0.1
			c0-3.7,2.5-6.5,6.1-6.5c3.3,0,5.8,2.5,5.8,6.2v1.5H100.3z M100.4,334.4h5.1c-0.1-1.1-0.8-2.4-2.5-2.4
			C101.3,332,100.5,333.3,100.4,334.4z"/>
		<path d="M112.1,338c0.9,0.8,2.4,1.5,3.7,1.5c1,0,1.8-0.3,1.8-1c0-0.6-0.5-0.8-1.5-1.1c-0.7-0.2-2.1-0.4-3.1-0.9
			c-1.2-0.5-2.2-1.5-2.2-3.3c0-2.7,2.4-4,5.2-4c2.1,0,4,0.8,5,1.8l-2.1,2.1c-0.7-0.6-1.7-1.2-2.9-1.2c-0.9,0-1.8,0.3-1.8,1.1
			c0,0.6,0.6,0.8,1.5,1c1.6,0.4,2.7,0.7,3.6,1.2c1,0.5,1.8,1.6,1.8,3c0,2.7-2.3,4-5.1,4c-2,0-4.4-0.8-5.7-1.9L112.1,338z"/>
		<path d="M126,336.8c0.3,1.6,1.6,2.4,3,2.4c1.2,0,2.3-0.4,3.2-1.2l1.6,2.4c-1.1,0.9-2.8,1.7-4.9,1.7c-3.5,0-6.3-2.4-6.3-6.4v-0.1
			c0-3.7,2.5-6.5,6.1-6.5c3.3,0,5.8,2.5,5.8,6.2v1.5H126z M126.1,334.4h5.1c-0.1-1.1-0.8-2.4-2.5-2.4
			C127,332,126.2,333.3,126.1,334.4z"/>
	</g>
	<g>
		<path d="M84.9,450.8l2.4-11.6h3.7L87.2,456H83l-2.5-12L78,456h-4.2l-3.7-16.8h3.7l2.3,11.6l2.5-11.6h3.8L84.9,450.8z"/>
		<path d="M93.2,439.2h3.2v5.3c0.7-0.7,1.7-1.3,3.2-1.3c2.7,0,4.3,1.9,4.3,4.3v8.5h-3.2v-7.3c0-1.8-0.8-2.4-2-2.4
			c-1.3,0-2.3,0.9-2.3,2.9v6.9h-3.2V439.2z"/>
		<path d="M108.5,438.6c1.1,0,2,0.9,2,2s-0.9,2-2,2c-1.1,0-2-0.9-2-2S107.4,438.6,108.5,438.6z M110.1,456h-3.2v-12.6h3.2V456z"/>
		<path d="M117.8,452.3c0,0.6,0.3,1.1,1.4,1.1c0.5,0,1.3,0,1.6-0.1l0.3,2.9c0,0-1.6,0.2-3,0.2c-2.2,0-3.6-1-3.6-3.2v-6.7h-2.3v-2.9
			h2.3v-3.6l3.2-0.9v4.4h3.3v2.9h-3.3V452.3z"/>
		<path d="M126,450.8c0.3,1.6,1.6,2.4,3,2.4c1.2,0,2.3-0.4,3.2-1.2l1.6,2.4c-1.1,0.9-2.8,1.7-4.9,1.7c-3.5,0-6.3-2.4-6.3-6.4v-0.1
			c0-3.7,2.5-6.5,6.1-6.5c3.3,0,5.8,2.5,5.8,6.2v1.5H126z M126.1,448.4h5.1c-0.1-1.1-0.8-2.4-2.5-2.4
			C127,446,126.2,447.3,126.1,448.4z"/>
	</g>
	<g>
		<path d="M78.5,393.6l-5-6.2V399h-3.4v-16.8h3.5l5,6.6l5.1-6.6H87V399h-3.4v-11.6l-4.9,6.2H78.5z"/>
		<path d="M91.9,381.6c1.1,0,2,0.9,2,2s-0.9,2-2,2c-1.1,0-2-0.9-2-2S90.8,381.6,91.9,381.6z M93.6,399h-3.2v-12.6h3.2V399z"/>
		<path d="M99.5,392.4l-3.8-6h3.7l1.9,3.4l2-3.4h3.8l-3.9,6l4.3,6.6h-3.8l-2.5-3.8L99,399h-3.8L99.5,392.4z"/>
		<path d="M111.4,393.8c0.3,1.6,1.6,2.4,3,2.4c1.2,0,2.3-0.4,3.2-1.2l1.6,2.4c-1.1,0.9-2.8,1.7-4.9,1.7c-3.5,0-6.3-2.4-6.3-6.4v-0.1
			c0-3.7,2.5-6.5,6.1-6.5c3.3,0,5.8,2.5,5.8,6.2v1.5H111.4z M111.4,391.4h5.1c-0.1-1.1-0.8-2.4-2.5-2.4
			C112.3,389,111.5,390.3,111.4,391.4z"/>
		<path d="M121.6,392.7c0-3.7,2.2-6.5,5.5-6.5c1.5,0,2.5,0.6,3.2,1.3v-5.3h3.2V399h-3.2v-1.1c-0.7,0.7-1.6,1.3-3.1,1.3
			c-3.3,0-5.6-2.7-5.6-6.5V392.7z M130.3,391.6c0-1.3-1-2.4-2.6-2.4c-1.8,0-2.9,1.5-2.9,3.5v0.1c0,2,1,3.5,2.9,3.5
			c1.6,0,2.6-1,2.6-2.4V391.6z"/>
	</g>
	<g>
		<path d="M79.8,513.2c-5,0-8-3.8-8-8.6c0-4.8,3-8.6,8-8.6c5,0,8,3.8,8,8.6C87.8,509.4,84.8,513.2,79.8,513.2z M79.8,499.1
			c-3.1,0-4.5,2.4-4.5,5.5v0.1c0,3.2,1.4,5.5,4.5,5.5c3,0,4.5-2.4,4.5-5.5C84.2,501.6,82.9,499.1,79.8,499.1z"/>
		<path d="M94.9,509.3c0,0.6,0.3,1.1,1.4,1.1c0.5,0,1.3,0,1.6-0.1l0.3,2.9c0,0-1.6,0.2-3,0.2c-2.2,0-3.6-1-3.6-3.2v-6.7h-2.3v-2.9
			h2.3v-3.6l3.2-0.9v4.4h3.3v2.9h-3.3V509.3z"/>
		<path d="M100.5,496.2h3.2v5.3c0.7-0.7,1.7-1.3,3.2-1.3c2.7,0,4.3,1.9,4.3,4.3v8.5H108v-7.3c0-1.8-0.8-2.4-2-2.4
			c-1.3,0-2.3,0.9-2.3,2.9v6.9h-3.2V496.2z"/>
		<path d="M116.9,507.8c0.3,1.6,1.6,2.4,3,2.4c1.2,0,2.3-0.4,3.2-1.2l1.6,2.4c-1.1,0.9-2.8,1.7-4.9,1.7c-3.5,0-6.3-2.4-6.3-6.4v-0.1
			c0-3.7,2.5-6.5,6.1-6.5c3.3,0,5.8,2.5,5.8,6.2v1.5H116.9z M117,505.4h5.1c-0.1-1.1-0.8-2.4-2.5-2.4C117.8,503,117,504.3,117,505.4
			z"/>
		<path d="M135,503.6h-0.6c-1.8,0-3.5,0.6-3.5,3.3v6.1h-3.2v-12.6h3.2v1.4c0.5-0.8,1.7-1.6,3.3-1.6h0.7V503.6z"/>
	</g>
	<g>
		<path d="M162.6,562v0.9c0.5-0.7,1.3-1.1,2.3-1.1c2.1,0,3.4,1.7,3.4,4.2s-1.3,4.1-3.4,4.1c-1,0-1.9-0.4-2.3-1.1v3.3h-1.3V562H162.6
			z M167,566c0-1.7-0.8-2.9-2.3-2.9c-1.4,0-2.1,1-2.1,2.3v1.3c0,1.3,0.7,2.3,2.1,2.3C166.2,569,167,567.7,167,566L167,566z"/>
		<path d="M171.3,566.4c0.1,1.5,1,2.6,2.5,2.6c0.9,0,1.5-0.3,2.1-0.8l0.7,0.9c-0.7,0.6-1.7,1-2.8,1c-2.3,0-3.8-1.7-3.8-4.1
			c0-2.4,1.4-4.2,3.6-4.2c2.1,0,3.4,1.7,3.4,4.1v0.4H171.3z M171.3,565.4h4.2c0-1.2-0.7-2.4-2-2.4
			C172.2,563,171.4,564.1,171.3,565.4z"/>
		<path d="M183,563.2h-0.2c-1.3,0-2.6,0.5-2.6,2.7v4.1H179v-8h1.3v1.3c0.4-0.9,1.4-1.4,2.4-1.4h0.4V563.2z"/>
		<path d="M185.4,566c0,1.6,0.8,3,2.3,3c1,0,1.7-0.6,2.1-1.3l1.1,0.6c-0.5,1.1-1.7,1.9-3.2,1.9c-2.2,0-3.7-1.7-3.7-4.1
			c0-2.4,1.5-4.2,3.7-4.2c1.4,0,2.6,0.7,3.2,1.9l-1.1,0.6c-0.4-0.8-1.1-1.3-2.1-1.3C186.2,563,185.4,564.4,185.4,566L185.4,566z"/>
		<path d="M193.7,566.4c0.1,1.5,1,2.6,2.5,2.6c0.9,0,1.5-0.3,2.1-0.8l0.7,0.9c-0.7,0.6-1.7,1-2.8,1c-2.3,0-3.8-1.7-3.8-4.1
			c0-2.4,1.4-4.2,3.6-4.2c2.1,0,3.4,1.7,3.4,4.1v0.4H193.7z M193.7,565.4h4.2c0-1.2-0.7-2.4-2-2.4
			C194.6,563,193.8,564.1,193.7,565.4z"/>
		<path d="M201.3,562h1.3v0.9c0.5-0.7,1.4-1.1,2.3-1.1c1.8,0,2.7,1.3,2.7,2.7v5.4h-1.3v-5c0-1.4-0.7-1.9-1.6-1.9c-1,0-2,0.7-2,2.2
			v4.7h-1.3V562z"/>
		<path d="M212.2,568c0,0.5,0.1,1,1,1c0.2,0,0.8,0,1-0.1l0.1,1.2c0,0-0.8,0.1-1.4,0.1c-1.3,0-2-0.5-2-1.9v-5.1h-1.5V562h1.5v-2.6
			l1.3-0.5v3.1h2.2v1.2h-2.2V568z"/>
		<path d="M227.3,566c0,2.4-1.5,4.1-3.7,4.1s-3.7-1.7-3.7-4.1c0-2.4,1.5-4.2,3.7-4.2S227.3,563.6,227.3,566z M225.9,566.1
			L225.9,566.1c0-1.7-0.8-3.1-2.3-3.1s-2.3,1.4-2.3,3v0.1c0,1.6,0.8,2.9,2.3,2.9S225.9,567.6,225.9,566.1z"/>
		<path d="M231.2,562h1.6v1.2h-1.6v6.8h-1.3v-6.8h-1.3V562h1.3v-1.5c0-1.4,0.9-1.9,2.2-1.9c0.6,0,1.1,0.1,1.3,0.1l-0.1,1.1
			c-0.3,0-0.9-0.1-1.1-0.1c-0.8,0-0.9,0.5-0.9,1V562z"/>
		<path d="M244.7,570h-1.3v-0.9c-0.5,0.7-1.4,1.1-2.3,1.1c-1.8,0-2.7-1.3-2.7-2.7V562h1.3v5c0,1.4,0.7,1.9,1.6,1.9
			c1.1,0,2-0.7,2-2.2V562h1.3V570z"/>
		<path d="M247.2,562h1.3v0.9c0.5-0.7,1.4-1.1,2.3-1.1c1.8,0,2.7,1.3,2.7,2.7v5.4h-1.3v-5c0-1.4-0.7-1.9-1.6-1.9c-1,0-2,0.7-2,2.2
			v4.7h-1.3V562z"/>
		<path d="M256.9,566.4c0.1,1.5,1,2.6,2.5,2.6c0.9,0,1.5-0.3,2.1-0.8l0.7,0.9c-0.7,0.6-1.7,1-2.8,1c-2.3,0-3.8-1.7-3.8-4.1
			c0-2.4,1.4-4.2,3.6-4.2c2.1,0,3.4,1.7,3.4,4.1v0.4H256.9z M257,565.4h4.2c0-1.2-0.7-2.4-2-2.4C257.9,563,257,564.1,257,565.4z"/>
		<path d="M270.6,570h-1.3v-5c0-1.4-0.7-1.9-1.6-1.9c-0.9,0-1.8,0.7-1.8,2.2v4.7h-1.3v-8h1.3v0.9c0.5-0.7,1.2-1.1,2.1-1.1
			c0.7,0,1.7,0.4,2.2,1.3c0.6-1,1.5-1.3,2.4-1.3c1.7,0,2.7,1.3,2.7,2.7v5.5H274v-5c0-1.4-0.8-1.9-1.6-1.9c-0.9,0-1.8,0.7-1.8,2.2
			V570z"/>
		<path d="M279.1,562v0.9c0.5-0.7,1.3-1.1,2.3-1.1c2.1,0,3.4,1.7,3.4,4.2s-1.3,4.1-3.4,4.1c-1,0-1.9-0.4-2.3-1.1v3.3h-1.3V562H279.1
			z M283.5,566c0-1.7-0.8-2.9-2.3-2.9c-1.4,0-2.1,1-2.1,2.3v1.3c0,1.3,0.7,2.3,2.1,2.3C282.7,569,283.5,567.7,283.5,566L283.5,566z"
			/>
		<path d="M286.9,558.8h1.3v9.4c0,0.5,0.2,0.8,0.8,0.8c0.3,0,0.6,0,0.8,0l0.1,1.1c0,0-0.8,0.1-1.3,0.1c-0.9,0-1.7-0.4-1.7-1.6V558.8
			z"/>
		<path d="M298.2,566c0,2.4-1.5,4.1-3.7,4.1s-3.7-1.7-3.7-4.1c0-2.4,1.5-4.2,3.7-4.2S298.2,563.6,298.2,566z M296.8,566.1
			L296.8,566.1c0-1.7-0.8-3.1-2.3-3.1s-2.3,1.4-2.3,3v0.1c0,1.6,0.8,2.9,2.3,2.9S296.8,567.6,296.8,566.1z"/>
		<path d="M299.2,562h1.5l2,6.6l1.9-6.6h1.5l-2.9,9.2c-0.4,1.1-1.1,1.4-2.1,1.4c-0.4,0-0.9,0-1.4-0.1l0.2-1.2c0,0,0.5,0.1,1.1,0.1
			c0.6,0,0.9-0.2,1-0.8l0.1-0.4L299.2,562z"/>
		<path d="M308.5,566.4c0.1,1.5,1,2.6,2.5,2.6c0.9,0,1.5-0.3,2.1-0.8l0.7,0.9c-0.7,0.6-1.7,1-2.8,1c-2.3,0-3.8-1.7-3.8-4.1
			c0-2.4,1.4-4.2,3.6-4.2c2.1,0,3.4,1.7,3.4,4.1v0.4H308.5z M308.5,565.4h4.2c0-1.2-0.7-2.4-2-2.4
			C309.4,563,308.6,564.1,308.5,565.4z"/>
		<path d="M321.4,569.1c-0.5,0.7-1.3,1.1-2.3,1.1c-2.1,0-3.4-1.7-3.4-4.1s1.3-4.2,3.4-4.2c1,0,1.9,0.4,2.3,1.1v-4.1h1.3V570h-1.3
			V569.1z M317.1,566c0,1.7,0.8,2.9,2.3,2.9c1.4,0,2.1-1,2.1-2.3v-1.3c0-1.3-0.7-2.3-2.1-2.3C317.9,563,317.1,564.3,317.1,566
			L317.1,566z"/>
	</g>
	<g>
		<path d="M159,545.4c0,2.9-1.1,5.7-4.1,5.7s-4.1-2.8-4.1-5.7c0-2.9,1.1-5.8,4.1-5.8S159,542.5,159,545.4z M157.5,545.7v-0.7
			c0-2.7-1-4.2-2.6-4.2c-1.6,0-2.6,1.5-2.6,4.2v0.7c0,2.7,1,4.2,2.6,4.2C156.5,550,157.5,548.4,157.5,545.7z"/>
	</g>
	<g>
		<path d="M207.5,539.9v-0.1h1.3V551h-1.4v-8.2h-2.1v-1.2h0.2C207,541.6,207.5,541.1,207.5,539.9z"/>
	</g>
	<g>
		<path d="M256.5,551v-1.3c0.8-0.7,3.2-2.7,4-3.5c0.9-0.8,1.7-1.8,1.7-3.1c0-1.4-0.9-2.2-2.2-2.2c-1.4,0-2.1,1-2.2,2.4l-1.4-0.1
			c0.1-2.2,1.5-3.5,3.6-3.5c2.2,0,3.7,1.3,3.7,3.5c0,1.6-0.8,2.7-3.3,4.8l-2,1.7h5.5v1.2H256.5z"/>
	</g>
	<g>
		<path d="M310.2,548.1c0.4,1.1,1.1,1.8,2.6,1.8c1.6,0,2.4-0.9,2.4-2.1c0-1.2-0.9-2-2.6-2h-0.5v-1.2h0.3c1.5,0,2.7-0.5,2.7-1.9
			c0-1.3-1-1.9-2.2-1.9c-1.2,0-2.1,0.7-2.5,1.7l-1.3-0.5c0.6-1.6,2.1-2.4,3.7-2.4c2,0,3.6,1.2,3.6,3c0,1.2-0.7,2.3-2.1,2.6
			c1.6,0.3,2.3,1.4,2.3,2.7c0,2.2-1.8,3.2-3.9,3.2c-1.8,0-3.3-0.8-3.9-2.6L310.2,548.1z"/>
	</g>
	<g>
		<path d="M366.6,551v-2.9H361v-1.4l5.1-6.9h2v7.2h1.8v1.2H368v2.9H366.6z M366.6,547v-6l-4.3,6H366.6z"/>
	</g>
	<g>
		<path d="M466.7,545.7c0-3,1.2-6.1,4.4-6.1c1.6,0,2.7,0.7,3.3,1.8l-1.4,0.4c-0.5-0.7-1.1-1.1-2-1.1c-2.1,0-3,2.2-3,4.5l0,0
			c0.5-0.8,1.4-1.6,3-1.6c2.1,0,3.6,1.6,3.6,3.7c0,2.2-1.6,3.8-3.9,3.8c-2.4,0-4.2-1.8-4.2-5.2V545.7z M470.8,550
			c1.4,0,2.5-1,2.5-2.6s-1-2.6-2.5-2.6c-1.5,0-2.5,1-2.5,2.5C468.3,548.9,469.4,550,470.8,550z"/>
	</g>
	<g>
		<path d="M579.6,542.7c0,1-0.5,2.1-1.9,2.5c1.6,0.4,2.2,1.7,2.2,2.8c0,2-2,3.1-4,3.1s-4-1.1-4-3.1c0-1.2,0.7-2.4,2.2-2.8
			c-1.4-0.4-1.9-1.5-1.9-2.5c0-1.9,1.8-3,3.7-3S579.6,540.7,579.6,542.7z M578.5,547.9c0-1.4-1.2-2-2.6-2s-2.6,0.7-2.6,2
			c0,1.4,1.2,2,2.6,2S578.5,549.3,578.5,547.9z M578.2,542.8c0-1.2-1.1-1.9-2.3-1.9c-1.2,0-2.3,0.7-2.3,1.9c0,1.2,1,1.9,2.3,1.9
			C577.2,544.6,578.2,544,578.2,542.8z"/>
	</g>
	<g>
		<path d="M676,539.9v-0.1h1.3V551h-1.4v-8.2h-2.1v-1.2h0.2C675.6,541.6,676,541.1,676,539.9z"/>
		<path d="M688.1,545.4c0,2.9-1.1,5.7-4.1,5.7c-3,0-4.1-2.8-4.1-5.7c0-2.9,1.1-5.8,4.1-5.8C687.1,539.7,688.1,542.5,688.1,545.4z
			 M686.7,545.7v-0.7c0-2.7-1-4.2-2.6-4.2s-2.6,1.5-2.6,4.2v0.7c0,2.7,1,4.2,2.6,4.2S686.7,548.4,686.7,545.7z"/>
	</g>
	<g>
		<path d="M781.6,539.9v-0.1h1.3V551h-1.4v-8.2h-2.1v-1.2h0.2C781.2,541.6,781.6,541.1,781.6,539.9z"/>
		<path d="M785.7,551v-1.3c0.8-0.7,3.2-2.7,4-3.5c0.9-0.8,1.7-1.8,1.7-3.1c0-1.4-0.9-2.2-2.2-2.2c-1.4,0-2.1,1-2.2,2.4l-1.4-0.1
			c0.1-2.2,1.5-3.5,3.6-3.5c2.2,0,3.7,1.3,3.7,3.5c0,1.6-0.8,2.7-3.3,4.8l-2,1.7h5.5v1.2H785.7z"/>
	</g>
	<g>
		<path d="M886.5,539.9v-0.1h1.3V551h-1.4v-8.2h-2.1v-1.2h0.2C886,541.6,886.5,541.1,886.5,539.9z"/>
		<path d="M895.8,551v-2.9h-5.6v-1.4l5.1-6.9h2v7.2h1.8v1.2h-1.8v2.9H895.8z M895.8,547v-6l-4.3,6H895.8z"/>
	</g>
	<g>
		<path d="M414.5,545.3l0.6-5.5h6.4v1.2h-5.3l-0.3,3.2c0.6-0.6,1.5-0.9,2.4-0.9c2.1,0,3.7,1.6,3.7,3.8c0,2.4-1.6,4.1-4,4.1
			c-1.8,0-3.4-0.9-3.8-2.7l1.4-0.2c0.3,0.9,1,1.7,2.4,1.7c1.6,0,2.6-1.2,2.6-2.8c0-1.6-1-2.7-2.6-2.7c-0.8,0-1.7,0.4-2.1,1
			L414.5,545.3z"/>
	</g>
	<g>
		<path d="M525.6,541h-6v-1.2h7.3v1.2l-4.5,10h-1.6L525.6,541z"/>
	</g>
	<g>
		<path d="M632.5,545.1c0,3-1.2,6.1-4.4,6.1c-1.6,0-2.7-0.7-3.3-1.8l1.4-0.4c0.5,0.7,1.1,1.1,2,1.1c2.1,0,3-2.2,3-4.5l0,0
			c-0.5,0.8-1.4,1.6-3,1.6c-2.1,0-3.6-1.6-3.6-3.6c0-2.2,1.6-3.8,3.9-3.8c2.4,0,4.2,1.8,4.2,5.2V545.1z M628.4,540.8
			c-1.4,0-2.5,1-2.5,2.6s1,2.6,2.5,2.6c1.5,0,2.5-1,2.5-2.5C630.9,541.9,629.8,540.8,628.4,540.8z"/>
	</g>
	<g>
		<path d="M730.8,539.9v-0.1h1.3V551h-1.4v-8.2h-2.1v-1.2h0.2C730.4,541.6,730.8,541.1,730.8,539.9z"/>
		<path d="M736.6,539.9v-0.1h1.3V551h-1.4v-8.2h-2.1v-1.2h0.2C736.2,541.6,736.6,541.1,736.6,539.9z"/>
	</g>
	<g>
		<path d="M834.1,539.9v-0.1h1.3V551h-1.4v-8.2H832v-1.2h0.2C833.7,541.6,834.1,541.1,834.1,539.9z"/>
		<path d="M839.4,548.1c0.4,1.1,1.1,1.8,2.6,1.8c1.6,0,2.4-0.9,2.4-2.1c0-1.2-0.9-2-2.6-2h-0.5v-1.2h0.3c1.5,0,2.7-0.5,2.7-1.9
			c0-1.3-1-1.9-2.2-1.9c-1.2,0-2.1,0.7-2.5,1.7l-1.3-0.5c0.6-1.6,2.1-2.4,3.7-2.4c2,0,3.6,1.2,3.6,3c0,1.2-0.7,2.3-2.1,2.6
			c1.6,0.3,2.3,1.4,2.3,2.7c0,2.2-1.8,3.2-3.9,3.2c-1.8,0-3.3-0.8-3.9-2.6L839.4,548.1z"/>
	</g>
	<g>
		<path d="M939.4,539.9v-0.1h1.3V551h-1.4v-8.2h-2.1v-1.2h0.2C939,541.6,939.4,541.1,939.4,539.9z"/>
		<path d="M943.6,545.3l0.6-5.5h6.4v1.2h-5.3l-0.3,3.2c0.6-0.6,1.5-0.9,2.4-0.9c2.1,0,3.7,1.6,3.7,3.8c0,2.4-1.6,4.1-4,4.1
			c-1.8,0-3.4-0.9-3.8-2.7l1.4-0.2c0.3,0.9,1,1.7,2.4,1.7c1.6,0,2.6-1.2,2.6-2.8c0-1.6-1-2.7-2.6-2.7c-0.8,0-1.7,0.4-2.1,1
			L943.6,545.3z"/>
	</g>
	<g>
		<path d="M169.9,169.9v-0.1h1.3V181h-1.4v-8.2h-2.1v-1.2h0.2C169.5,171.6,169.9,171.1,169.9,169.9z"/>
		<path d="M182,175.4c0,2.9-1.1,5.7-4.1,5.7s-4.1-2.8-4.1-5.7c0-2.9,1.1-5.8,4.1-5.8S182,172.5,182,175.4z M180.6,175.7v-0.7
			c0-2.7-1-4.2-2.6-4.2c-1.6,0-2.6,1.5-2.6,4.2v0.7c0,2.7,1,4.2,2.6,4.2C179.5,180,180.6,178.4,180.6,175.7z"/>
		<path d="M185.1,179c0.6,0,1.1,0.5,1.1,1.1c0,0.6-0.5,1.1-1.1,1.1s-1.1-0.5-1.1-1.1C184,179.5,184.5,179,185.1,179z"/>
		<path d="M196.2,175.4c0,2.9-1.1,5.7-4.1,5.7s-4.1-2.8-4.1-5.7c0-2.9,1.1-5.8,4.1-5.8S196.2,172.5,196.2,175.4z M194.8,175.7v-0.7
			c0-2.7-1-4.2-2.6-4.2c-1.6,0-2.6,1.5-2.6,4.2v0.7c0,2.7,1,4.2,2.6,4.2C193.7,180,194.8,178.4,194.8,175.7z"/>
		<path d="M198,172c0-1.3,1.1-2.4,2.4-2.4c1.3,0,2.4,1,2.4,2.4c0,1.3-1.1,2.4-2.4,2.4C199,174.4,198,173.4,198,172z M199.1,172
			c0,0.8,0.5,1.4,1.3,1.4c0.8,0,1.3-0.6,1.3-1.4c0-0.8-0.5-1.4-1.3-1.4C199.6,170.7,199.1,171.3,199.1,172z M206.4,169.8h1.3
			l-6.8,11.2h-1.3L206.4,169.8z M204.5,178.8c0-1.3,1.1-2.4,2.4-2.4s2.4,1,2.4,2.4c0,1.3-1.1,2.4-2.4,2.4S204.5,180.1,204.5,178.8z
			 M205.6,178.8c0,0.8,0.5,1.4,1.3,1.4s1.3-0.6,1.3-1.4c0-0.8-0.5-1.4-1.3-1.4S205.6,178,205.6,178.8z"/>
	</g>
	<g>
		<path d="M174.5,222.3l0.6-5.5h6.4v1.2h-5.3l-0.3,3.2c0.6-0.6,1.5-0.9,2.4-0.9c2.1,0,3.7,1.6,3.7,3.8c0,2.4-1.6,4.1-4,4.1
			c-1.8,0-3.4-0.9-3.8-2.7l1.4-0.2c0.3,0.9,1,1.7,2.4,1.7c1.6,0,2.6-1.2,2.6-2.8c0-1.6-1-2.7-2.6-2.7c-0.8,0-1.7,0.4-2.1,1
			L174.5,222.3z"/>
		<path d="M185.1,226c0.6,0,1.1,0.5,1.1,1.1c0,0.6-0.5,1.1-1.1,1.1s-1.1-0.5-1.1-1.1C184,226.5,184.5,226,185.1,226z"/>
		<path d="M196.2,222.4c0,2.9-1.1,5.7-4.1,5.7s-4.1-2.8-4.1-5.7c0-2.9,1.1-5.8,4.1-5.8S196.2,219.5,196.2,222.4z M194.8,222.7v-0.7
			c0-2.7-1-4.2-2.6-4.2c-1.6,0-2.6,1.5-2.6,4.2v0.7c0,2.7,1,4.2,2.6,4.2C193.7,227,194.8,225.4,194.8,222.7z"/>
		<path d="M198,219c0-1.3,1.1-2.4,2.4-2.4c1.3,0,2.4,1,2.4,2.4c0,1.3-1.1,2.4-2.4,2.4C199,221.4,198,220.4,198,219z M199.1,219
			c0,0.8,0.5,1.4,1.3,1.4c0.8,0,1.3-0.6,1.3-1.4c0-0.8-0.5-1.4-1.3-1.4C199.6,217.7,199.1,218.3,199.1,219z M206.4,216.8h1.3
			l-6.8,11.2h-1.3L206.4,216.8z M204.5,225.8c0-1.3,1.1-2.4,2.4-2.4s2.4,1,2.4,2.4c0,1.3-1.1,2.4-2.4,2.4S204.5,227.1,204.5,225.8z
			 M205.6,225.8c0,0.8,0.5,1.4,1.3,1.4s1.3-0.6,1.3-1.4c0-0.8-0.5-1.4-1.3-1.4S205.6,225,205.6,225.8z"/>
	</g>
	<g>
		<path d="M169.9,273.9v-0.1h1.3V285h-1.4v-8.2h-2.1v-1.2h0.2C169.5,275.6,169.9,275.1,169.9,273.9z"/>
		<path d="M182,279.4c0,2.9-1.1,5.7-4.1,5.7s-4.1-2.8-4.1-5.7c0-2.9,1.1-5.8,4.1-5.8S182,276.5,182,279.4z M180.6,279.7v-0.7
			c0-2.7-1-4.2-2.6-4.2c-1.6,0-2.6,1.5-2.6,4.2v0.7c0,2.7,1,4.2,2.6,4.2C179.5,284,180.6,282.4,180.6,279.7z"/>
		<path d="M185.1,283c0.6,0,1.1,0.5,1.1,1.1c0,0.6-0.5,1.1-1.1,1.1s-1.1-0.5-1.1-1.1C184,283.5,184.5,283,185.1,283z"/>
		<path d="M196.2,279.4c0,2.9-1.1,5.7-4.1,5.7s-4.1-2.8-4.1-5.7c0-2.9,1.1-5.8,4.1-5.8S196.2,276.5,196.2,279.4z M194.8,279.7v-0.7
			c0-2.7-1-4.2-2.6-4.2c-1.6,0-2.6,1.5-2.6,4.2v0.7c0,2.7,1,4.2,2.6,4.2C193.7,284,194.8,282.4,194.8,279.7z"/>
		<path d="M198,276c0-1.3,1.1-2.4,2.4-2.4c1.3,0,2.4,1,2.4,2.4c0,1.3-1.1,2.4-2.4,2.4C199,278.4,198,277.4,198,276z M199.1,276
			c0,0.8,0.5,1.4,1.3,1.4c0.8,0,1.3-0.6,1.3-1.4c0-0.8-0.5-1.4-1.3-1.4C199.6,274.7,199.1,275.3,199.1,276z M206.4,273.8h1.3
			l-6.8,11.2h-1.3L206.4,273.8z M204.5,282.8c0-1.3,1.1-2.4,2.4-2.4s2.4,1,2.4,2.4c0,1.3-1.1,2.4-2.4,2.4S204.5,284.1,204.5,282.8z
			 M205.6,282.8c0,0.8,0.5,1.4,1.3,1.4s1.3-0.6,1.3-1.4c0-0.8-0.5-1.4-1.3-1.4S205.6,282,205.6,282.8z"/>
	</g>
	<g>
		<path d="M169.9,330.9v-0.1h1.3V342h-1.4v-8.2h-2.1v-1.2h0.2C169.5,332.6,169.9,332.1,169.9,330.9z"/>
		<path d="M182,336.4c0,2.9-1.1,5.7-4.1,5.7s-4.1-2.8-4.1-5.7c0-2.9,1.1-5.8,4.1-5.8S182,333.5,182,336.4z M180.6,336.7v-0.7
			c0-2.7-1-4.2-2.6-4.2c-1.6,0-2.6,1.5-2.6,4.2v0.7c0,2.7,1,4.2,2.6,4.2C179.5,341,180.6,339.4,180.6,336.7z"/>
		<path d="M185.1,340c0.6,0,1.1,0.5,1.1,1.1c0,0.6-0.5,1.1-1.1,1.1s-1.1-0.5-1.1-1.1C184,340.5,184.5,340,185.1,340z"/>
		<path d="M196.2,336.4c0,2.9-1.1,5.7-4.1,5.7s-4.1-2.8-4.1-5.7c0-2.9,1.1-5.8,4.1-5.8S196.2,333.5,196.2,336.4z M194.8,336.7v-0.7
			c0-2.7-1-4.2-2.6-4.2c-1.6,0-2.6,1.5-2.6,4.2v0.7c0,2.7,1,4.2,2.6,4.2C193.7,341,194.8,339.4,194.8,336.7z"/>
		<path d="M198,333c0-1.3,1.1-2.4,2.4-2.4c1.3,0,2.4,1,2.4,2.4c0,1.3-1.1,2.4-2.4,2.4C199,335.4,198,334.4,198,333z M199.1,333
			c0,0.8,0.5,1.4,1.3,1.4c0.8,0,1.3-0.6,1.3-1.4c0-0.8-0.5-1.4-1.3-1.4C199.6,331.7,199.1,332.3,199.1,333z M206.4,330.8h1.3
			l-6.8,11.2h-1.3L206.4,330.8z M204.5,339.8c0-1.3,1.1-2.4,2.4-2.4s2.4,1,2.4,2.4c0,1.3-1.1,2.4-2.4,2.4S204.5,341.1,204.5,339.8z
			 M205.6,339.8c0,0.8,0.5,1.4,1.3,1.4s1.3-0.6,1.3-1.4c0-0.8-0.5-1.4-1.3-1.4S205.6,339,205.6,339.8z"/>
	</g>
	<g>
		<path d="M174.5,450.3l0.6-5.5h6.4v1.2h-5.3l-0.3,3.2c0.6-0.6,1.5-0.9,2.4-0.9c2.1,0,3.7,1.6,3.7,3.8c0,2.4-1.6,4.1-4,4.1
			c-1.8,0-3.4-0.9-3.8-2.7l1.4-0.2c0.3,0.9,1,1.7,2.4,1.7c1.6,0,2.6-1.2,2.6-2.8c0-1.6-1-2.7-2.6-2.7c-0.8,0-1.7,0.4-2.1,1
			L174.5,450.3z"/>
		<path d="M185.1,454c0.6,0,1.1,0.5,1.1,1.1c0,0.6-0.5,1.1-1.1,1.1s-1.1-0.5-1.1-1.1C184,454.5,184.5,454,185.1,454z"/>
		<path d="M196.2,450.4c0,2.9-1.1,5.7-4.1,5.7s-4.1-2.8-4.1-5.7c0-2.9,1.1-5.8,4.1-5.8S196.2,447.5,196.2,450.4z M194.8,450.7v-0.7
			c0-2.7-1-4.2-2.6-4.2c-1.6,0-2.6,1.5-2.6,4.2v0.7c0,2.7,1,4.2,2.6,4.2C193.7,455,194.8,453.4,194.8,450.7z"/>
		<path d="M198,447c0-1.3,1.1-2.4,2.4-2.4c1.3,0,2.4,1,2.4,2.4c0,1.3-1.1,2.4-2.4,2.4C199,449.4,198,448.4,198,447z M199.1,447
			c0,0.8,0.5,1.4,1.3,1.4c0.8,0,1.3-0.6,1.3-1.4c0-0.8-0.5-1.4-1.3-1.4C199.6,445.7,199.1,446.3,199.1,447z M206.4,444.8h1.3
			l-6.8,11.2h-1.3L206.4,444.8z M204.5,453.8c0-1.3,1.1-2.4,2.4-2.4s2.4,1,2.4,2.4c0,1.3-1.1,2.4-2.4,2.4S204.5,455.1,204.5,453.8z
			 M205.6,453.8c0,0.8,0.5,1.4,1.3,1.4s1.3-0.6,1.3-1.4c0-0.8-0.5-1.4-1.3-1.4S205.6,453,205.6,453.8z"/>
	</g>
	<g>
		<path d="M182.1,507.1c0,3-1.2,6.1-4.4,6.1c-1.6,0-2.7-0.7-3.3-1.8l1.4-0.4c0.5,0.7,1.1,1.1,2,1.1c2.1,0,3-2.2,3-4.5l0,0
			c-0.5,0.8-1.4,1.6-3,1.6c-2.1,0-3.6-1.6-3.6-3.6c0-2.2,1.6-3.8,3.9-3.8c2.4,0,4.2,1.8,4.2,5.2V507.1z M178,502.8
			c-1.4,0-2.5,1-2.5,2.6s1,2.6,2.5,2.6c1.5,0,2.5-1,2.5-2.5C180.5,503.9,179.4,502.8,178,502.8z"/>
		<path d="M185.1,511c0.6,0,1.1,0.5,1.1,1.1c0,0.6-0.5,1.1-1.1,1.1s-1.1-0.5-1.1-1.1C184,511.5,184.5,511,185.1,511z"/>
		<path d="M196.2,507.4c0,2.9-1.1,5.7-4.1,5.7s-4.1-2.8-4.1-5.7c0-2.9,1.1-5.8,4.1-5.8S196.2,504.5,196.2,507.4z M194.8,507.7v-0.7
			c0-2.7-1-4.2-2.6-4.2c-1.6,0-2.6,1.5-2.6,4.2v0.7c0,2.7,1,4.2,2.6,4.2C193.7,512,194.8,510.4,194.8,507.7z"/>
		<path d="M198,504c0-1.3,1.1-2.4,2.4-2.4c1.3,0,2.4,1,2.4,2.4c0,1.3-1.1,2.4-2.4,2.4C199,506.4,198,505.4,198,504z M199.1,504
			c0,0.8,0.5,1.4,1.3,1.4c0.8,0,1.3-0.6,1.3-1.4c0-0.8-0.5-1.4-1.3-1.4C199.6,502.7,199.1,503.3,199.1,504z M206.4,501.8h1.3
			l-6.8,11.2h-1.3L206.4,501.8z M204.5,510.8c0-1.3,1.1-2.4,2.4-2.4s2.4,1,2.4,2.4c0,1.3-1.1,2.4-2.4,2.4S204.5,512.1,204.5,510.8z
			 M205.6,510.8c0,0.8,0.5,1.4,1.3,1.4s1.3-0.6,1.3-1.4c0-0.8-0.5-1.4-1.3-1.4S205.6,510,205.6,510.8z"/>
	</g>
	<g>
		<path d="M169.9,387.9v-0.1h1.3V399h-1.4v-8.2h-2.1v-1.2h0.2C169.5,389.6,169.9,389.1,169.9,387.9z"/>
		<path d="M182,393.4c0,2.9-1.1,5.7-4.1,5.7s-4.1-2.8-4.1-5.7c0-2.9,1.1-5.8,4.1-5.8S182,390.5,182,393.4z M180.6,393.7v-0.7
			c0-2.7-1-4.2-2.6-4.2c-1.6,0-2.6,1.5-2.6,4.2v0.7c0,2.7,1,4.2,2.6,4.2C179.5,398,180.6,396.4,180.6,393.7z"/>
		<path d="M185.1,397c0.6,0,1.1,0.5,1.1,1.1c0,0.6-0.5,1.1-1.1,1.1s-1.1-0.5-1.1-1.1C184,397.5,184.5,397,185.1,397z"/>
		<path d="M196.2,393.4c0,2.9-1.1,5.7-4.1,5.7s-4.1-2.8-4.1-5.7c0-2.9,1.1-5.8,4.1-5.8S196.2,390.5,196.2,393.4z M194.8,393.7v-0.7
			c0-2.7-1-4.2-2.6-4.2c-1.6,0-2.6,1.5-2.6,4.2v0.7c0,2.7,1,4.2,2.6,4.2C193.7,398,194.8,396.4,194.8,393.7z"/>
		<path d="M198,390c0-1.3,1.1-2.4,2.4-2.4c1.3,0,2.4,1,2.4,2.4c0,1.3-1.1,2.4-2.4,2.4C199,392.4,198,391.4,198,390z M199.1,390
			c0,0.8,0.5,1.4,1.3,1.4c0.8,0,1.3-0.6,1.3-1.4c0-0.8-0.5-1.4-1.3-1.4C199.6,388.7,199.1,389.3,199.1,390z M206.4,387.8h1.3
			l-6.8,11.2h-1.3L206.4,387.8z M204.5,396.8c0-1.3,1.1-2.4,2.4-2.4s2.4,1,2.4,2.4c0,1.3-1.1,2.4-2.4,2.4S204.5,398.1,204.5,396.8z
			 M205.6,396.8c0,0.8,0.5,1.4,1.3,1.4s1.3-0.6,1.3-1.4c0-0.8-0.5-1.4-1.3-1.4S205.6,396,205.6,396.8z"/>
	</g>
	<g>
		<path d="M169.9,122.9v-0.1h1.3V134h-1.4v-8.2h-2.1v-1.2h0.2C169.5,124.6,169.9,124.1,169.9,122.9z"/>
		<path d="M182,128.4c0,2.9-1.1,5.7-4.1,5.7s-4.1-2.8-4.1-5.7c0-2.9,1.1-5.8,4.1-5.8S182,125.5,182,128.4z M180.6,128.7v-0.7
			c0-2.7-1-4.2-2.6-4.2c-1.6,0-2.6,1.5-2.6,4.2v0.7c0,2.7,1,4.2,2.6,4.2C179.5,133,180.6,131.4,180.6,128.7z"/>
		<path d="M185.1,132c0.6,0,1.1,0.5,1.1,1.1c0,0.6-0.5,1.1-1.1,1.1s-1.1-0.5-1.1-1.1C184,132.5,184.5,132,185.1,132z"/>
		<path d="M196.2,128.4c0,2.9-1.1,5.7-4.1,5.7s-4.1-2.8-4.1-5.7c0-2.9,1.1-5.8,4.1-5.8S196.2,125.5,196.2,128.4z M194.8,128.7v-0.7
			c0-2.7-1-4.2-2.6-4.2c-1.6,0-2.6,1.5-2.6,4.2v0.7c0,2.7,1,4.2,2.6,4.2C193.7,133,194.8,131.4,194.8,128.7z"/>
		<path d="M198,125c0-1.3,1.1-2.4,2.4-2.4c1.3,0,2.4,1,2.4,2.4c0,1.3-1.1,2.4-2.4,2.4C199,127.4,198,126.4,198,125z M199.1,125
			c0,0.8,0.5,1.4,1.3,1.4c0.8,0,1.3-0.6,1.3-1.4c0-0.8-0.5-1.4-1.3-1.4C199.6,123.7,199.1,124.3,199.1,125z M206.4,122.8h1.3
			l-6.8,11.2h-1.3L206.4,122.8z M204.5,131.8c0-1.3,1.1-2.4,2.4-2.4s2.4,1,2.4,2.4c0,1.3-1.1,2.4-2.4,2.4S204.5,133.1,204.5,131.8z
			 M205.6,131.8c0,0.8,0.5,1.4,1.3,1.4s1.3-0.6,1.3-1.4c0-0.8-0.5-1.4-1.3-1.4S205.6,131,205.6,131.8z"/>
	</g>
	<g>
		<rect x="159.5" y="96" width="1" height="436"/>
	</g>
	<g>
		<rect x="687.5" y="105.5" fill="#005EA5" width="1" height="38"/>
	</g>
	<g>
		<rect x="687.5" y="152.5" fill="#005EA5" width="1" height="38"/>
	</g>
	<g>
		<rect x="634.7" y="484.5" fill="#005EA5" width="1" height="38"/>
	</g>
	<g>
		<rect x="423.5" y="77" fill="#005EA5" width="1" height="455"/>
	</g>
</g>
</svg>
