<?xml version="1.0" encoding="utf-8"?>
<svg version="1.1" id="Layer_1" xmlns="http://www.w3.org/2000/svg" xmlns:xlink="http://www.w3.org/1999/xlink" x="0px" y="0px" viewBox="0 0 25.5 25.5">
  <path fill="#FFFFFF" d="M21,14.6v6.1h-3.6V15c0-1.4-0.5-2.4-1.8-2.4c-1,0-1.6,0.7-1.8,1.3c-0.1,0.2-0.1,0.5-0.1,0.9v6
      h-3.6c0,0,0-9.7,0-10.7h3.6v1.5c0,0,0,0,0,0h0v0c0.5-0.7,1.3-1.8,3.2-1.8C19.3,9.8,21,11.3,21,14.6z M6.5,4.9c-1.2,0-2,0.8-2,1.8
      c0,1,0.8,1.8,2,1.8h0c1.2,0,2-0.8,2-1.8C8.4,5.7,7.7,4.9,6.5,4.9z M4.7,20.8h3.6V10H4.7V20.8z"/>
</svg>
