<?xml version="1.0" encoding="utf-8"?>
<!-- Generator: Adobe Illustrator 21.0.2, SVG Export Plug-In . SVG Version: 6.00 Build 0)  -->
<svg version="1.2" baseProfile="tiny" xmlns="http://www.w3.org/2000/svg" xmlns:xlink="http://www.w3.org/1999/xlink" x="0px"
	 y="0px" viewBox="0 0 280 270" xml:space="preserve">
<g id="Layer_3">
	<g>
		<rect fill="#FFFFFF" width="280" height="270"/>
	</g>
</g>
<g id="Layer_1">
	<g>
		<path d="M0.7,268v-1.3c0.8-0.7,3.2-2.7,4-3.5c0.9-0.8,1.7-1.8,1.7-3.1c0-1.4-0.9-2.2-2.2-2.2c-1.4,0-2.1,1-2.2,2.4l-1.4-0.1
			c0.1-2.2,1.5-3.5,3.6-3.5c2.2,0,3.7,1.3,3.7,3.5c0,1.6-0.8,2.7-3.3,4.8l-2,1.7h5.5v1.2H0.7z"/>
		<path d="M18.3,262.4c0,2.9-1.1,5.7-4.1,5.7s-4.1-2.8-4.1-5.7c0-2.9,1.1-5.8,4.1-5.8S18.3,259.5,18.3,262.4z M16.8,262.7v-0.7
			c0-2.7-1-4.2-2.6-4.2c-1.6,0-2.6,1.5-2.6,4.2v0.7c0,2.7,1,4.2,2.6,4.2C15.8,267,16.8,265.4,16.8,262.7z"/>
		<path d="M28.5,262.4c0,2.9-1.1,5.7-4.1,5.7s-4.1-2.8-4.1-5.7c0-2.9,1.1-5.8,4.1-5.8S28.5,259.5,28.5,262.4z M27,262.7v-0.7
			c0-2.7-1-4.2-2.6-4.2c-1.6,0-2.6,1.5-2.6,4.2v0.7c0,2.7,1,4.2,2.6,4.2C26,267,27,265.4,27,262.7z"/>
		<path d="M30.6,268v-1.3c0.8-0.7,3.2-2.7,4-3.5c0.9-0.8,1.7-1.8,1.7-3.1c0-1.4-0.9-2.2-2.2-2.2c-1.4,0-2.1,1-2.2,2.4l-1.4-0.1
			c0.1-2.2,1.5-3.5,3.6-3.5c2.2,0,3.7,1.3,3.7,3.5c0,1.6-0.8,2.7-3.3,4.8l-2,1.7H38v1.2H30.6z"/>
	</g>
	<g>
		<path d="M60.6,268v-1.3c0.8-0.7,3.2-2.7,4-3.5c0.9-0.8,1.7-1.8,1.7-3.1c0-1.4-0.9-2.2-2.2-2.2c-1.4,0-2.1,1-2.2,2.4l-1.4-0.1
			c0.1-2.2,1.5-3.5,3.6-3.5c2.2,0,3.7,1.3,3.7,3.5c0,1.6-0.8,2.7-3.3,4.8l-2,1.7h5.5v1.2H60.6z"/>
		<path d="M78.1,262.4c0,2.9-1.1,5.7-4.1,5.7s-4.1-2.8-4.1-5.7c0-2.9,1.1-5.8,4.1-5.8S78.1,259.5,78.1,262.4z M76.7,262.7v-0.7
			c0-2.7-1-4.2-2.6-4.2c-1.6,0-2.6,1.5-2.6,4.2v0.7c0,2.7,1,4.2,2.6,4.2C75.6,267,76.7,265.4,76.7,262.7z"/>
		<path d="M88.3,262.4c0,2.9-1.1,5.7-4.1,5.7s-4.1-2.8-4.1-5.7c0-2.9,1.1-5.8,4.1-5.8S88.3,259.5,88.3,262.4z M86.9,262.7v-0.7
			c0-2.7-1-4.2-2.6-4.2c-1.6,0-2.6,1.5-2.6,4.2v0.7c0,2.7,1,4.2,2.6,4.2C85.9,267,86.9,265.4,86.9,262.7z"/>
		<path d="M90.6,262.3l0.6-5.5h6.4v1.2h-5.3l-0.3,3.2c0.6-0.6,1.5-0.9,2.4-0.9c2.1,0,3.7,1.6,3.7,3.8c0,2.4-1.6,4.1-4,4.1
			c-1.8,0-3.4-0.9-3.8-2.7l1.4-0.2c0.3,0.9,1,1.7,2.4,1.7c1.6,0,2.6-1.2,2.6-2.8c0-1.6-1-2.7-2.6-2.7c-0.8,0-1.7,0.4-2.1,1
			L90.6,262.3z"/>
	</g>
	<g>
		<path d="M120.3,268v-1.3c0.8-0.7,3.2-2.7,4-3.5c0.9-0.8,1.7-1.8,1.7-3.1c0-1.4-0.9-2.2-2.2-2.2c-1.4,0-2.1,1-2.2,2.4l-1.4-0.1
			c0.1-2.2,1.5-3.5,3.6-3.5c2.2,0,3.7,1.3,3.7,3.5c0,1.6-0.8,2.7-3.3,4.8l-2,1.7h5.5v1.2H120.3z"/>
		<path d="M137.8,262.4c0,2.9-1.1,5.7-4.1,5.7s-4.1-2.8-4.1-5.7c0-2.9,1.1-5.8,4.1-5.8S137.8,259.5,137.8,262.4z M136.4,262.7v-0.7
			c0-2.7-1-4.2-2.6-4.2c-1.6,0-2.6,1.5-2.6,4.2v0.7c0,2.7,1,4.2,2.6,4.2C135.3,267,136.4,265.4,136.4,262.7z"/>
		<path d="M148,262.4c0,2.9-1.1,5.7-4.1,5.7c-3,0-4.1-2.8-4.1-5.7c0-2.9,1.1-5.8,4.1-5.8C147,256.7,148,259.5,148,262.4z
			 M146.6,262.7v-0.7c0-2.7-1-4.2-2.6-4.2s-2.6,1.5-2.6,4.2v0.7c0,2.7,1,4.2,2.6,4.2S146.6,265.4,146.6,262.7z"/>
		<path d="M157.7,259.7c0,1-0.5,2.1-1.9,2.5c1.6,0.4,2.2,1.7,2.2,2.8c0,2-2,3.1-4,3.1s-4-1.1-4-3.1c0-1.2,0.7-2.4,2.2-2.8
			c-1.4-0.4-1.9-1.5-1.9-2.5c0-1.9,1.8-3,3.7-3S157.7,257.7,157.7,259.7z M156.6,264.9c0-1.4-1.2-2-2.6-2s-2.6,0.7-2.6,2
			c0,1.4,1.2,2,2.6,2S156.6,266.3,156.6,264.9z M156.3,259.8c0-1.2-1.1-1.9-2.3-1.9s-2.3,0.7-2.3,1.9c0,1.2,1,1.9,2.3,1.9
			S156.3,261,156.3,259.8z"/>
	</g>
	<g>
		<path d="M245,268v-1.3c0.8-0.7,3.2-2.7,4-3.5c0.9-0.8,1.7-1.8,1.7-3.1c0-1.4-0.9-2.2-2.2-2.2c-1.4,0-2.1,1-2.2,2.4l-1.4-0.1
			c0.1-2.2,1.5-3.5,3.7-3.5c2.2,0,3.7,1.3,3.7,3.5c0,1.6-0.8,2.7-3.3,4.8l-2,1.7h5.5v1.2H245z"/>
		<path d="M262.6,262.4c0,2.9-1.1,5.7-4.1,5.7s-4.1-2.8-4.1-5.7c0-2.9,1.1-5.8,4.1-5.8S262.6,259.5,262.6,262.4z M261.1,262.7v-0.7
			c0-2.7-1-4.2-2.6-4.2s-2.6,1.5-2.6,4.2v0.7c0,2.7,1,4.2,2.6,4.2S261.1,265.4,261.1,262.7z"/>
		<path d="M266.4,256.9v-0.1h1.3V268h-1.4v-8.2h-2.1v-1.2h0.2C266,258.6,266.4,258.1,266.4,256.9z"/>
		<path d="M270.6,262.3l0.6-5.5h6.4v1.2h-5.3l-0.3,3.2c0.6-0.6,1.5-0.9,2.4-0.9c2.1,0,3.7,1.6,3.7,3.8c0,2.4-1.6,4.1-4,4.1
			c-1.8,0-3.4-0.9-3.8-2.7l1.4-0.2c0.3,0.9,1,1.7,2.4,1.7c1.6,0,2.6-1.2,2.6-2.8c0-1.6-1-2.7-2.6-2.7c-0.8,0-1.7,0.4-2.1,1
			L270.6,262.3z"/>
	</g>
	<g>
		<path d="M27.1,205v-2.9h-5.6v-1.4l5.1-6.9h2v7.2h1.8v1.2h-1.8v2.9H27.1z M27.1,201v-6l-4.3,6H27.1z"/>
	</g>
	<g>
		<path d="M30,239.4c0,2.9-1.1,5.7-4.1,5.7s-4.1-2.8-4.1-5.7c0-2.9,1.1-5.8,4.1-5.8S30,236.5,30,239.4z M28.5,239.7v-0.7
			c0-2.7-1-4.2-2.6-4.2c-1.6,0-2.6,1.5-2.6,4.2v0.7c0,2.7,1,4.2,2.6,4.2C27.5,244,28.5,242.4,28.5,239.7z"/>
	</g>
	<g>
		<path d="M29.7,156.7c0,1-0.5,2.1-1.9,2.5c1.6,0.4,2.2,1.7,2.2,2.8c0,2-2,3.1-4,3.1s-4-1.1-4-3.1c0-1.2,0.7-2.4,2.2-2.8
			c-1.4-0.4-1.9-1.5-1.9-2.5c0-1.9,1.8-3,3.7-3S29.7,154.7,29.7,156.7z M28.6,161.9c0-1.4-1.2-2-2.6-2c-1.4,0-2.6,0.7-2.6,2
			c0,1.4,1.2,2,2.6,2C27.4,164,28.6,163.3,28.6,161.9z M28.3,156.8c0-1.2-1.1-1.9-2.3-1.9s-2.3,0.7-2.3,1.9c0,1.2,1,1.9,2.3,1.9
			S28.3,158,28.3,156.8z"/>
	</g>
	<g>
		<path d="M18.6,113.9v-0.1h1.3V125h-1.4v-8.2h-2.1v-1.2h0.2C18.1,115.6,18.6,115.1,18.6,113.9z"/>
		<path d="M22.6,125v-1.3c0.8-0.7,3.2-2.7,4-3.5c0.9-0.8,1.7-1.8,1.7-3.1c0-1.4-0.9-2.2-2.2-2.2c-1.4,0-2.1,1-2.2,2.4l-1.4-0.1
			c0.1-2.2,1.5-3.5,3.6-3.5c2.2,0,3.7,1.3,3.7,3.5c0,1.6-0.8,2.7-3.3,4.8l-2,1.7H30v1.2H22.6z"/>
	</g>
	<g>
		<path d="M18,73.9v-0.1h1.3V85H18v-8.2h-2.1v-1.2h0.2C17.6,75.6,18,75.1,18,73.9z"/>
		<path d="M22,79.7c0-3,1.2-6.1,4.4-6.1c1.6,0,2.7,0.7,3.3,1.8l-1.4,0.4c-0.5-0.7-1.1-1.1-2-1.1c-2.1,0-3,2.2-3,4.5l0,0
			c0.5-0.8,1.4-1.6,3-1.6c2.1,0,3.6,1.6,3.6,3.7c0,2.2-1.6,3.8-3.9,3.8c-2.4,0-4.2-1.8-4.2-5.2V79.7z M26.2,84c1.4,0,2.5-1,2.5-2.6
			s-1-2.6-2.5-2.6c-1.5,0-2.5,1-2.5,2.5C23.6,82.9,24.7,84,26.2,84z"/>
	</g>
	<g>
		<path d="M12.4,45v-1.3c0.8-0.7,3.2-2.7,4-3.5c0.9-0.8,1.7-1.8,1.7-3.1c0-1.4-0.9-2.2-2.2-2.2c-1.4,0-2.1,1-2.2,2.4l-1.4-0.1
			c0.1-2.2,1.5-3.5,3.6-3.5c2.2,0,3.7,1.3,3.7,3.5c0,1.6-0.8,2.7-3.3,4.8l-2,1.7h5.5V45H12.4z"/>
		<path d="M30,39.4c0,2.9-1.1,5.7-4.1,5.7s-4.1-2.8-4.1-5.7c0-2.9,1.1-5.8,4.1-5.8S30,36.5,30,39.4z M28.5,39.7v-0.7
			c0-2.7-1-4.2-2.6-4.2c-1.6,0-2.6,1.5-2.6,4.2v0.7c0,2.7,1,4.2,2.6,4.2C27.5,44,28.5,42.4,28.5,39.7z"/>
	</g>
	<g>
		<path d="M19,6c0-1.3,1.1-2.4,2.4-2.4c1.3,0,2.4,1,2.4,2.4s-1.1,2.4-2.4,2.4C20,8.4,19,7.4,19,6z M20.1,6c0,0.8,0.5,1.4,1.3,1.4
			c0.8,0,1.3-0.6,1.3-1.4s-0.5-1.4-1.3-1.4C20.6,4.7,20.1,5.3,20.1,6z M27.4,3.8h1.3L21.8,15h-1.3L27.4,3.8z M25.5,12.8
			c0-1.3,1.1-2.4,2.4-2.4s2.4,1,2.4,2.4s-1.1,2.4-2.4,2.4S25.5,14.1,25.5,12.8z M26.6,12.8c0,0.8,0.5,1.4,1.3,1.4s1.3-0.6,1.3-1.4
			s-0.5-1.4-1.3-1.4S26.6,12,26.6,12.8z"/>
	</g>
	<g>
		<rect x="38.5" y="245" fill="#BFBFBF" width="1" height="5"/>
	</g>
	<g>
		<rect x="278.5" y="245" fill="#BFBFBF" width="1" height="5"/>
	</g>
	<g>
		<rect x="98.5" y="245" fill="#BFBFBF" width="1" height="5"/>
	</g>
	<g>
		<rect x="158.5" y="245" fill="#BFBFBF" width="1" height="5"/>
	</g>
	<g>
		<rect x="218.5" y="245" fill="#BFBFBF" width="1" height="5"/>
	</g>
	<g>
		<rect x="34" y="244.5" fill="#BFBFBF" width="245" height="1"/>
	</g>
	<g>
		<polygon fill="#BFBFBF" points="279.5,250 278.5,250 278.5,245.5 34,245.5 34,244.5 279.5,244.5 		"/>
	</g>
	<g>
		<path d="M189.8,268v-1.3c0.8-0.7,3.2-2.7,4-3.5c0.9-0.8,1.7-1.8,1.7-3.1c0-1.4-0.9-2.2-2.2-2.2c-1.4,0-2.1,1-2.2,2.4l-1.4-0.1
			c0.1-2.2,1.5-3.5,3.7-3.5c2.2,0,3.7,1.3,3.7,3.5c0,1.6-0.8,2.7-3.3,4.8l-2,1.7h5.5v1.2H189.8z"/>
		<path d="M207.4,262.4c0,2.9-1.1,5.7-4.1,5.7s-4.1-2.8-4.1-5.7c0-2.9,1.1-5.8,4.1-5.8S207.4,259.5,207.4,262.4z M205.9,262.7v-0.7
			c0-2.7-1-4.2-2.6-4.2s-2.6,1.5-2.6,4.2v0.7c0,2.7,1,4.2,2.6,4.2S205.9,265.4,205.9,262.7z"/>
		<path d="M211.2,256.9v-0.1h1.3V268h-1.4v-8.2h-2.1v-1.2h0.2C210.8,258.6,211.2,258.1,211.2,256.9z"/>
		<path d="M217,256.9v-0.1h1.3V268H217v-8.2h-2.1v-1.2h0.2C216.6,258.6,217,258.1,217,256.9z"/>
	</g>
</g>
<g id="Layer_2">
	<g>
		<g>
			<g>
				
					<rect x="36.6" y="116.9" transform="matrix(0.7908 -0.6121 0.6121 0.7908 -61.8008 54.0966)" fill="#BFBFBF" width="23.3" height="1"/>
			</g>
			<g>
				
					<rect x="66.2" y="107" transform="matrix(0.7724 -0.6352 0.6352 0.7724 -62.0122 70.026)" fill="#BFBFBF" width="1" height="29.1"/>
			</g>
			<g>
				
					<rect x="84.7" y="126.7" transform="matrix(0.4044 -0.9146 0.9146 0.4044 -74.4298 159.3849)" fill="#BFBFBF" width="1" height="20.2"/>
			</g>
			<g>
				
					<rect x="89.9" y="130.2" transform="matrix(0.6705 -0.7419 0.7419 0.6705 -62.8363 119.937)" fill="#BFBFBF" width="27.5" height="1"/>
			</g>
			<g>
				
					<rect x="121.6" y="114.8" transform="matrix(0.4454 -0.8953 0.8953 0.4454 -44.3031 178.6838)" fill="#BFBFBF" width="1" height="20.6"/>
			</g>
			<g>
				
					<rect x="140" y="123.4" transform="matrix(0.3609 -0.9326 0.9326 0.3609 -34.4624 216.2437)" fill="#BFBFBF" width="1" height="19.8"/>
			</g>
			<g>
				
					<rect x="149.3" y="133.3" transform="matrix(0.9493 -0.3145 0.3145 0.9493 -34.0019 56.7874)" fill="#BFBFBF" width="19.4" height="1"/>
			</g>
			<g>
				
					<rect x="162.1" y="118" transform="matrix(0.6016 -0.7988 0.7988 0.6016 -23.9291 188.9637)" fill="#BFBFBF" width="30.7" height="1"/>
			</g>
			<g>
				
					<rect x="195.4" y="103.5" transform="matrix(0.8399 -0.5427 0.5427 0.8399 -34.0387 125.6249)" fill="#BFBFBF" width="1" height="34"/>
			</g>
			<g>
				
					<rect x="199.1" y="122.1" transform="matrix(0.6016 -0.7988 0.7988 0.6016 -12.4778 220.0853)" fill="#BFBFBF" width="30.7" height="1"/>
			</g>
			<g>
				
					<rect x="232.3" y="103.3" transform="matrix(0.2664 -0.9639 0.9639 0.2664 62.043 307.2289)" fill="#BFBFBF" width="1" height="19.2"/>
			</g>
			<g>
				
					<rect x="250.8" y="111.2" transform="matrix(0.6625 -0.7491 0.7491 0.6625 -7.7434 229.9576)" fill="#BFBFBF" width="1" height="24.6"/>
			</g>
			<g>
				
					<rect x="269.3" y="128.3" transform="matrix(0.7576 -0.6527 0.6527 0.7576 -27.5868 210.6145)" fill="#BFBFBF" width="1" height="28.3"/>
			</g>
		</g>
	</g>
	<g>
		<g>
			<g>
				
					<rect x="36.2" y="139.9" transform="matrix(0.7695 -0.6386 0.6386 0.7695 -78.554 63.1664)" fill="#BFBFBF" width="24" height="1"/>
			</g>
			<g>
				
					<rect x="66.2" y="128.9" transform="matrix(0.7053 -0.7089 0.7089 0.7053 -80.9677 89.1089)" fill="#BFBFBF" width="1" height="26"/>
			</g>
			<g>
				
					<rect x="84.7" y="145.1" transform="matrix(0.4044 -0.9146 0.9146 0.4044 -91.2298 170.3135)" fill="#BFBFBF" width="1" height="20.2"/>
			</g>
			<g>
				
					<rect x="92.8" y="153.2" transform="matrix(0.8542 -0.5199 0.5199 0.8542 -64.795 76.2804)" fill="#BFBFBF" width="21.6" height="1"/>
			</g>
			<g>
				
					<rect x="112.8" y="146.5" transform="matrix(0.9939 -0.1103 0.1103 0.9939 -15.477 14.3656)" fill="#BFBFBF" width="18.6" height="1"/>
			</g>
			<g>
				
					<rect x="140" y="139" transform="matrix(0.2663 -0.9639 0.9639 0.2663 -40.0973 244.4629)" fill="#BFBFBF" width="1" height="19.2"/>
			</g>
			<g>
				
					<rect x="158.5" y="142.9" transform="matrix(0.1099 -0.9939 0.9939 0.1099 -9.6935 293.4608)" fill="#BFBFBF" width="1" height="18.6"/>
			</g>
			<g>
				
					<rect x="162.9" y="141.4" transform="matrix(0.6354 -0.7722 0.7722 0.6354 -44.8981 188.7938)" fill="#BFBFBF" width="29.1" height="1"/>
			</g>
			<g>
				
					<rect x="204.7" y="116.7" transform="matrix(0.2664 -0.9639 0.9639 0.2664 19.5963 297.3793)" fill="#BFBFBF" width="1" height="38.3"/>
			</g>
			<g>
				
					<rect x="232.3" y="135.2" transform="matrix(0.4454 -0.8953 0.8953 0.4454 -1.139 289.1808)" fill="#BFBFBF" width="1" height="20.6"/>
			</g>
			<g>
				
					<rect x="250.8" y="147.3" transform="matrix(0.8308 -0.5566 0.5566 0.8308 -48.6879 167.6243)" fill="#BFBFBF" width="1" height="33.2"/>
			</g>
			<g>
				<rect x="260.5" y="177.2" fill="#BFBFBF" width="18.5" height="1"/>
			</g>
		</g>
	</g>
	<g>
		<g>
			<g>
				
					<rect x="36.9" y="183.8" transform="matrix(0.812 -0.5836 0.5836 0.812 -98.4891 62.792)" fill="#BFBFBF" width="22.7" height="1"/>
			</g>
			<g>
				
					<rect x="55.3" y="170.5" transform="matrix(0.812 -0.5836 0.5836 0.812 -87.2766 71.0732)" fill="#BFBFBF" width="22.7" height="1"/>
			</g>
			<g>
				
					<rect x="84.7" y="155.7" transform="matrix(5.519213e-02 -0.9985 0.9985 5.519213e-02 -84.1926 240.8209)" fill="#BFBFBF" width="1" height="18.5"/>
			</g>
			<g>
				
					<rect x="94.2" y="162.9" transform="matrix(0.9764 -0.2158 0.2158 0.9764 -32.8122 26.2086)" fill="#BFBFBF" width="18.9" height="1"/>
			</g>
			<g>
				<rect x="112.8" y="160.8" fill="#BFBFBF" width="18.5" height="1"/>
			</g>
			<g>
				
					<rect x="140" y="156.4" transform="matrix(0.5527 -0.8334 0.8334 0.5527 -76.6866 192.0127)" fill="#BFBFBF" width="1" height="22.2"/>
			</g>
			<g>
				
					<rect x="158.5" y="168.6" transform="matrix(0.5528 -0.8333 0.8333 0.5528 -78.6348 212.8687)" fill="#BFBFBF" width="1" height="22.2"/>
			</g>
			<g>
				
					<rect x="164.8" y="176.6" transform="matrix(0.7283 -0.6853 0.6853 0.7283 -73.173 169.7523)" fill="#BFBFBF" width="25.3" height="1"/>
			</g>
			<g>
				
					<rect x="184.3" y="160.8" transform="matrix(0.7912 -0.6115 0.6115 0.7912 -57.7512 153.486)" fill="#BFBFBF" width="23.3" height="1"/>
			</g>
			<g>
				
					<rect x="200.2" y="143" transform="matrix(0.6524 -0.7579 0.7579 0.6524 -34.2114 212.3472)" fill="#BFBFBF" width="28.3" height="1"/>
			</g>
			<g>
				
					<rect x="232.3" y="129.1" transform="matrix(0.7242 -0.6896 0.6896 0.7242 -34.011 199.8613)" fill="#BFBFBF" width="1" height="26.8"/>
			</g>
			<g>
				
					<rect x="250.8" y="148.5" transform="matrix(0.7242 -0.6896 0.6896 0.7242 -42.2905 217.9321)" fill="#BFBFBF" width="1" height="26.8"/>
			</g>
			<g>
				<polygon fill="#BFBFBF" points="278.6,195.3 260.1,171.8 260.9,171.2 279.4,194.7 				"/>
			</g>
		</g>
	</g>
	<g>
		<g>
			<g>
				
					<rect x="38.7" y="168.5" transform="matrix(0.9639 -0.2663 0.2663 0.9639 -43.2631 18.949)" fill="#BFBFBF" width="19.2" height="1"/>
			</g>
			<g>
				
					<rect x="66.2" y="162.4" transform="matrix(0.6848 -0.7288 0.7288 0.6848 -106.5847 103.8018)" fill="#BFBFBF" width="1" height="25.3"/>
			</g>
			<g>
				
					<rect x="75.6" y="180.7" transform="matrix(0.9639 -0.2663 0.2663 0.9639 -45.1908 29.2252)" fill="#BFBFBF" width="19.2" height="1"/>
			</g>
			<g>
				
					<rect x="92.5" y="172.1" transform="matrix(0.8335 -0.5524 0.5524 0.8335 -78.0783 85.9633)" fill="#BFBFBF" width="22.2" height="1"/>
			</g>
			<g>
				
					<rect x="121.6" y="160.7" transform="matrix(0.4454 -0.8953 0.8953 0.4454 -85.4157 204.1509)" fill="#BFBFBF" width="1" height="20.6"/>
			</g>
			<g>
				
					<rect x="130.6" y="171.5" transform="matrix(0.9329 -0.3601 0.3601 0.9329 -52.5226 62.1476)" fill="#BFBFBF" width="19.8" height="1"/>
			</g>
			<g>
				
					<rect x="146" y="158.8" transform="matrix(0.7091 -0.7052 0.7052 0.7091 -66.0605 158.4619)" fill="#BFBFBF" width="26" height="1"/>
			</g>
			<g>
				
					<rect x="177" y="145.8" transform="matrix(0.6383 -0.7698 0.7698 0.6383 -57.2479 193.681)" fill="#BFBFBF" width="1" height="24"/>
			</g>
			<g>
				
					<rect x="183.9" y="157.3" transform="matrix(0.7695 -0.6386 0.6386 0.7695 -55.5893 161.4881)" fill="#BFBFBF" width="24" height="1"/>
			</g>
			<g>
				
					<rect x="205.1" y="149.1" transform="matrix(0.9985 -5.471245e-02 5.471245e-02 0.9985 -7.8634 11.9536)" fill="#BFBFBF" width="18.5" height="1"/>
			</g>
			<g>
				
					<rect x="232.3" y="141.7" transform="matrix(0.2158 -0.9764 0.9764 0.2158 35.0279 345.8616)" fill="#BFBFBF" width="1" height="18.9"/>
			</g>
			<g>
				
					<rect x="250.8" y="150.5" transform="matrix(0.8484 -0.5293 0.5293 0.8484 -50.8112 158.4735)" fill="#BFBFBF" width="1" height="34.9"/>
			</g>
			<g>
				
					<rect x="260.4" y="180.7" transform="matrix(0.9864 -0.1641 0.1641 0.9864 -26.0795 46.7205)" fill="#BFBFBF" width="18.7" height="1"/>
			</g>
		</g>
	</g>
	<g>
		<g>
			<g>
				
					<rect x="47.7" y="75.3" transform="matrix(0.8828 -0.4698 0.4698 0.8828 -38.9737 33.7906)" fill="#BFBFBF" width="1" height="39.3"/>
			</g>
			<g>
				
					<rect x="66.2" y="105.3" transform="matrix(0.2664 -0.9639 0.9639 0.2664 -61.8199 148.5744)" fill="#BFBFBF" width="1" height="19.2"/>
			</g>
			<g>
				
					<rect x="84.7" y="110.4" transform="matrix(0.2663 -0.9639 0.9639 0.2663 -53.1919 170.1161)" fill="#BFBFBF" width="1" height="19.2"/>
			</g>
			<g>
				
					<rect x="92.5" y="115.9" transform="matrix(0.8333 -0.5529 0.5529 0.8333 -47.095 76.7029)" fill="#BFBFBF" width="22.2" height="1"/>
			</g>
			<g>
				
					<rect x="121.6" y="106.1" transform="matrix(0.6625 -0.7491 0.7491 0.6625 -47.5395 131.4336)" fill="#BFBFBF" width="1" height="24.6"/>
			</g>
			<g>
				
					<rect x="127.5" y="116.9" transform="matrix(0.7091 -0.7052 0.7052 0.7091 -41.9306 133.2718)" fill="#BFBFBF" width="26" height="1"/>
			</g>
			<g>
				
					<rect x="143.7" y="95.5" transform="matrix(0.6016 -0.7988 0.7988 0.6016 -13.3518 165.2716)" fill="#BFBFBF" width="30.7" height="1"/>
			</g>
			<g>
				
					<rect x="177" y="79.8" transform="matrix(0.6848 -0.7288 0.7288 0.6848 -11.4312 158.4713)" fill="#BFBFBF" width="1" height="25.3"/>
			</g>
			<g>
				
					<rect x="183.3" y="91.9" transform="matrix(0.7283 -0.6853 0.6853 0.7283 -10.1149 159.3893)" fill="#BFBFBF" width="25.3" height="1"/>
			</g>
			<g>
				
					<rect x="213.9" y="76.4" transform="matrix(0.2159 -0.9764 0.9764 0.2159 84.3112 276.6201)" fill="#BFBFBF" width="1" height="18.9"/>
			</g>
			<g>
				
					<rect x="232.3" y="81.2" transform="matrix(0.3148 -0.9492 0.9492 0.3148 73.2558 283.3094)" fill="#BFBFBF" width="1" height="19.5"/>
			</g>
			<g>
				
					<rect x="250.8" y="89.8" transform="matrix(0.6625 -0.7491 0.7491 0.6625 8.3084 222.725)" fill="#BFBFBF" width="1" height="24.6"/>
			</g>
			<g>
				
					<rect x="269.3" y="106.8" transform="matrix(0.7416 -0.6709 0.6709 0.7416 -11.1328 212.1192)" fill="#BFBFBF" width="1" height="27.5"/>
			</g>
		</g>
	</g>
	<g>
		<g>
			<g>
				
					<rect x="47.7" y="101.2" transform="matrix(0.2664 -0.9639 0.9639 0.2664 -71.4291 127.7853)" fill="#BFBFBF" width="1" height="19.2"/>
			</g>
			<g>
				
					<rect x="66.2" y="106.3" transform="matrix(0.2664 -0.9639 0.9639 0.2664 -62.8031 149.3227)" fill="#BFBFBF" width="1" height="19.2"/>
			</g>
			<g>
				
					<rect x="75.7" y="115.9" transform="matrix(0.9764 -0.2158 0.2158 0.9764 -23.1182 21.1188)" fill="#BFBFBF" width="18.9" height="1"/>
			</g>
			<g>
				
					<rect x="92.8" y="108.3" transform="matrix(0.8545 -0.5195 0.5195 0.8545 -41.4303 69.6605)" fill="#BFBFBF" width="21.6" height="1"/>
			</g>
			<g>
				
					<rect x="121.6" y="96.8" transform="matrix(0.3608 -0.9326 0.9326 0.3608 -21.5178 182.0714)" fill="#BFBFBF" width="1" height="19.8"/>
			</g>
			<g>
				
					<rect x="131.3" y="108.8" transform="matrix(0.9939 -0.1103 0.1103 0.9939 -11.199 16.1719)" fill="#BFBFBF" width="18.6" height="1"/>
			</g>
			<g>
				
					<rect x="134.3" y="84.8" transform="matrix(0.3731 -0.9278 0.9278 0.3731 20.5341 201.0011)" fill="#BFBFBF" width="49.5" height="1"/>
			</g>
			<g>
				
					<rect x="177" y="58" transform="matrix(0.6382 -0.7698 0.7698 0.6382 10.3108 161.9415)" fill="#BFBFBF" width="1" height="24"/>
			</g>
			<g>
				
					<rect x="177.2" y="60.8" transform="matrix(0.4919 -0.8706 0.8706 0.4919 46.1501 201.736)" fill="#BFBFBF" width="37.5" height="1"/>
			</g>
			<g>
				
					<rect x="213.9" y="42.4" transform="matrix(0.8563 -0.5164 0.5164 0.8563 -0.3439 119.3761)" fill="#BFBFBF" width="1" height="35.7"/>
			</g>
			<g>
				
					<rect x="223.4" y="73.1" transform="matrix(0.9762 -0.2167 0.2167 0.9762 -10.4106 52.2119)" fill="#BFBFBF" width="18.9" height="1"/>
			</g>
			<g>
				
					<rect x="250.8" y="67.4" transform="matrix(0.6625 -0.7491 0.7491 0.6625 25.1265 215.1513)" fill="#BFBFBF" width="1" height="24.6"/>
			</g>
			<g>
				
					<rect x="269.3" y="83.3" transform="matrix(0.612 -0.7909 0.7909 0.612 29.5415 250.213)" fill="#BFBFBF" width="1" height="23.3"/>
			</g>
		</g>
	</g>
	<g>
		<g>
			<g>
				
					<rect x="47.7" y="188.8" transform="matrix(0.1099 -0.9939 0.9939 0.1099 -153.9313 224.2359)" fill="#BFBFBF" width="1" height="18.6"/>
			</g>
			<g>
				
					<rect x="66.2" y="190.8" transform="matrix(0.1098 -0.9939 0.9939 0.1098 -139.5244 244.4126)" fill="#BFBFBF" width="1" height="18.6"/>
			</g>
			<g>
				<rect x="75.9" y="200.6" fill="#BFBFBF" width="18.5" height="1"/>
			</g>
			<g>
				
					<rect x="94" y="198.1" transform="matrix(0.9639 -0.2663 0.2663 0.9639 -49.144 34.7688)" fill="#BFBFBF" width="19.2" height="1"/>
			</g>
			<g>
				<rect x="112.8" y="195.5" fill="#BFBFBF" width="18.5" height="1"/>
			</g>
			<g>
				
					<rect x="131.1" y="193.5" transform="matrix(0.9764 -0.2158 0.2158 0.9764 -38.5482 34.8976)" fill="#BFBFBF" width="18.9" height="1"/>
			</g>
			<g>
				
					<rect x="146" y="182.3" transform="matrix(0.7091 -0.7052 0.7052 0.7091 -82.6099 165.2901)" fill="#BFBFBF" width="26" height="1"/>
			</g>
			<g>
				
					<rect x="168.1" y="171.5" transform="matrix(0.9864 -0.1641 0.1641 0.9864 -25.8236 31.45)" fill="#BFBFBF" width="18.7" height="1"/>
			</g>
			<g>
				
					<rect x="186.6" y="169" transform="matrix(0.994 -0.1094 0.1094 0.994 -17.3603 22.4427)" fill="#BFBFBF" width="18.6" height="1"/>
			</g>
			<g>
				
					<rect x="213.9" y="160.2" transform="matrix(0.1098 -0.9939 0.9939 0.1098 22.3731 363.9611)" fill="#BFBFBF" width="1" height="18.6"/>
			</g>
			<g>
				
					<rect x="232.3" y="163.5" transform="matrix(0.2664 -0.9639 0.9639 0.2664 4.0099 351.3906)" fill="#BFBFBF" width="1" height="19.2"/>
			</g>
			<g>
				
					<rect x="250.8" y="170.9" transform="matrix(0.5835 -0.8121 0.8121 0.5835 -43.3393 279.9793)" fill="#BFBFBF" width="1" height="22.7"/>
			</g>
			<g>
				
					<rect x="269.3" y="182.6" transform="matrix(0.3608 -0.9326 0.9326 0.3608 -7.0539 374.606)" fill="#BFBFBF" width="1" height="19.8"/>
			</g>
		</g>
	</g>
	<g>
		<g>
			<g>
				
					<rect x="35.9" y="83.3" transform="matrix(0.7492 -0.6623 0.6623 0.7492 -43.3902 52.9509)" fill="#005EA5" width="24.6" height="1"/>
			</g>
			<g>
				
					<rect x="66.2" y="72.6" transform="matrix(0.8101 -0.5863 0.5863 0.8101 -39.1434 55.8792)" fill="#005EA5" width="1" height="31.5"/>
			</g>
			<g>
				
					<rect x="75.7" y="98.6" transform="matrix(0.9764 -0.2158 0.2158 0.9764 -19.3749 20.7101)" fill="#005EA5" width="18.9" height="1"/>
			</g>
			<g>
				
					<rect x="93.9" y="93.5" transform="matrix(0.9493 -0.3145 0.3145 0.9493 -24.2971 37.3517)" fill="#005EA5" width="19.5" height="1"/>
			</g>
			<g>
				
					<rect x="121.6" y="85.2" transform="matrix(0.4454 -0.8953 0.8953 0.4454 -17.8084 162.2717)" fill="#005EA5" width="1" height="20.6"/>
			</g>
			<g>
				
					<rect x="140" y="93.1" transform="matrix(0.2664 -0.9639 0.9639 0.2664 4.1596 210.7712)" fill="#005EA5" width="1" height="19.2"/>
			</g>
			<g>
				
					<rect x="143.3" y="91.9" transform="matrix(0.5858 -0.8104 0.8104 0.5858 -9.0723 167.1451)" fill="#005EA5" width="31.5" height="1"/>
			</g>
			<g>
				
					<rect x="165.1" y="71" transform="matrix(0.7492 -0.6623 0.6623 0.7492 -2.8742 135.4697)" fill="#005EA5" width="24.6" height="1"/>
			</g>
			<g>
				
					<rect x="195.4" y="60.6" transform="matrix(0.8399 -0.5427 0.5427 0.8399 -10.7793 118.7623)" fill="#005EA5" width="1" height="34"/>
			</g>
			<g>
				
					<rect x="201" y="81.7" transform="matrix(0.6893 -0.7245 0.7245 0.6893 7.023 180.8662)" fill="#005EA5" width="26.8" height="1"/>
			</g>
			<g>
				
					<rect x="220.2" y="63.4" transform="matrix(0.7283 -0.6853 0.6853 0.7283 19.4988 176.9286)" fill="#005EA5" width="25.3" height="1"/>
			</g>
			<g>
				
					<rect x="250.8" y="53.2" transform="matrix(0.9071 -0.4208 0.4208 0.9071 -8.2692 112.7279)" fill="#005EA5" width="1" height="43.9"/>
			</g>
			<g>
				
					<rect x="269.3" y="92.6" transform="matrix(0.8705 -0.4922 0.4922 0.8705 -19.8559 147.1917)" fill="#005EA5" width="1" height="37.5"/>
			</g>
		</g>
	</g>
</g>
</svg>
